<?xml version="1.0" encoding="UTF-8" standalone="no"?>
<!-- Created with Inkscape (http://www.inkscape.org/) -->
<svg
   xmlns:svg="http://www.w3.org/2000/svg"
   xmlns="http://www.w3.org/2000/svg"
   version="1.0"
   width="1083.59"
   height="400.17001"
   id="svg2">
  <defs
     id="defs4">
    <clipPath
       id="clipPath7128">
      <path
         d="M 0,841.421 L 595.135,841.421 L 595.135,0 L 0,0 L 0,841.421 z"
         id="path7130" />
    </clipPath>
    <clipPath
       id="clipPath6992">
      <path
         d="M 0,841.421 L 595.135,841.421 L 595.135,0 L 0,0 L 0,841.421 z"
         id="path6994" />
    </clipPath>
    <clipPath
       id="clipPath6976">
      <path
         d="M 0,603.279 L 595.135,603.279 L 595.135,568.89 L 0,568.89 L 0,603.279 z"
         id="path6978" />
    </clipPath>
    <clipPath
       id="clipPath6956">
      <path
         d="M 0,603.279 L 595.135,603.279 L 595.135,568.89 L 0,568.89 L 0,603.279 z"
         id="path6958" />
    </clipPath>
    <clipPath
       id="clipPath6912">
      <path
         d="M 0,603.279 L 595.135,603.279 L 595.135,568.89 L 0,568.89 L 0,603.279 z"
         id="path6914" />
    </clipPath>
    <clipPath
       id="clipPath6848">
      <path
         d="M 0,603.279 L 595.135,603.279 L 595.135,568.89 L 0,568.89 L 0,603.279 z"
         id="path6850" />
    </clipPath>
    <clipPath
       id="clipPath6784">
      <path
         d="M 0,603.279 L 595.135,603.279 L 595.135,568.89 L 0,568.89 L 0,603.279 z"
         id="path6786" />
    </clipPath>
    <clipPath
       id="clipPath6720">
      <path
         d="M 0,603.279 L 595.135,603.279 L 595.135,568.89 L 0,568.89 L 0,603.279 z"
         id="path6722" />
    </clipPath>
    <clipPath
       id="clipPath6688">
      <path
         d="M 0,603.279 L 595.135,603.279 L 595.135,568.89 L 0,568.89 L 0,603.279 z"
         id="path6690" />
    </clipPath>
    <clipPath
       id="clipPath6668">
      <path
         d="M 0,603.279 L 595.135,603.279 L 595.135,568.89 L 0,568.89 L 0,603.279 z"
         id="path6670" />
    </clipPath>
    <clipPath
       id="clipPath6648">
      <path
         d="M 0,603.279 L 595.135,603.279 L 595.135,568.89 L 0,568.89 L 0,603.279 z"
         id="path6650" />
    </clipPath>
    <clipPath
       id="clipPath6628">
      <path
         d="M 0,603.279 L 595.135,603.279 L 595.135,568.89 L 0,568.89 L 0,603.279 z"
         id="path6630" />
    </clipPath>
    <clipPath
       id="clipPath6608">
      <path
         d="M 0,603.279 L 595.135,603.279 L 595.135,568.89 L 0,568.89 L 0,603.279 z"
         id="path6610" />
    </clipPath>
    <clipPath
       id="clipPath6588">
      <path
         d="M 0,603.279 L 595.135,603.279 L 595.135,568.89 L 0,568.89 L 0,603.279 z"
         id="path6590" />
    </clipPath>
    <clipPath
       id="clipPath6568">
      <path
         d="M 0,603.279 L 595.135,603.279 L 595.135,568.89 L 0,568.89 L 0,603.279 z"
         id="path6570" />
    </clipPath>
    <clipPath
       id="clipPath6548">
      <path
         d="M 0,603.279 L 595.135,603.279 L 595.135,568.89 L 0,568.89 L 0,603.279 z"
         id="path6550" />
    </clipPath>
    <clipPath
       id="clipPath6528">
      <path
         d="M 0,603.279 L 595.135,603.279 L 595.135,568.89 L 0,568.89 L 0,603.279 z"
         id="path6530" />
    </clipPath>
    <clipPath
       id="clipPath6512">
      <path
         d="M 0,603.279 L 595.135,603.279 L 595.135,568.89 L 0,568.89 L 0,603.279 z"
         id="path6514" />
    </clipPath>
    <clipPath
       id="clipPath6468">
      <path
         d="M 0,603.279 L 595.135,603.279 L 595.135,568.89 L 0,568.89 L 0,603.279 z"
         id="path6470" />
    </clipPath>
    <clipPath
       id="clipPath6404">
      <path
         d="M 0,603.279 L 595.135,603.279 L 595.135,568.89 L 0,568.89 L 0,603.279 z"
         id="path6406" />
    </clipPath>
    <clipPath
       id="clipPath6340">
      <path
         d="M 0,603.279 L 595.135,603.279 L 595.135,568.89 L 0,568.89 L 0,603.279 z"
         id="path6342" />
    </clipPath>
    <clipPath
       id="clipPath6276">
      <path
         d="M 0,603.279 L 595.135,603.279 L 595.135,568.89 L 0,568.89 L 0,603.279 z"
         id="path6278" />
    </clipPath>
    <clipPath
       id="clipPath6212">
      <path
         d="M 0,603.279 L 595.135,603.279 L 595.135,568.89 L 0,568.89 L 0,603.279 z"
         id="path6214" />
    </clipPath>
    <clipPath
       id="clipPath6148">
      <path
         d="M 0,603.279 L 595.135,603.279 L 595.135,568.89 L 0,568.89 L 0,603.279 z"
         id="path6150" />
    </clipPath>
    <clipPath
       id="clipPath6084">
      <path
         d="M 0,603.279 L 595.135,603.279 L 595.135,568.89 L 0,568.89 L 0,603.279 z"
         id="path6086" />
    </clipPath>
    <clipPath
       id="clipPath6020">
      <path
         d="M 0,603.279 L 595.135,603.279 L 595.135,568.89 L 0,568.89 L 0,603.279 z"
         id="path6022" />
    </clipPath>
    <clipPath
       id="clipPath5956">
      <path
         d="M 0,603.279 L 595.135,603.279 L 595.135,568.89 L 0,568.89 L 0,603.279 z"
         id="path5958" />
    </clipPath>
    <clipPath
       id="clipPath5892">
      <path
         d="M 0,603.279 L 595.135,603.279 L 595.135,568.89 L 0,568.89 L 0,603.279 z"
         id="path5894" />
    </clipPath>
    <clipPath
       id="clipPath5816">
      <path
         d="M 0,603.279 L 595.135,603.279 L 595.135,568.89 L 0,568.89 L 0,603.279 z"
         id="path5818" />
    </clipPath>
    <clipPath
       id="clipPath5796">
      <path
         d="M 0,603.279 L 595.135,603.279 L 595.135,568.89 L 0,568.89 L 0,603.279 z"
         id="path5798" />
    </clipPath>
    <clipPath
       id="clipPath5776">
      <path
         d="M 0,603.279 L 595.135,603.279 L 595.135,568.89 L 0,568.89 L 0,603.279 z"
         id="path5778" />
    </clipPath>
    <clipPath
       id="clipPath5756">
      <path
         d="M 0,603.279 L 595.135,603.279 L 595.135,568.89 L 0,568.89 L 0,603.279 z"
         id="path5758" />
    </clipPath>
    <clipPath
       id="clipPath5736">
      <path
         d="M 0,603.279 L 595.135,603.279 L 595.135,568.89 L 0,568.89 L 0,603.279 z"
         id="path5738" />
    </clipPath>
    <clipPath
       id="clipPath5716">
      <path
         d="M 0,603.279 L 595.135,603.279 L 595.135,568.89 L 0,568.89 L 0,603.279 z"
         id="path5718" />
    </clipPath>
    <clipPath
       id="clipPath5696">
      <path
         d="M 0,603.279 L 595.135,603.279 L 595.135,568.89 L 0,568.89 L 0,603.279 z"
         id="path5698" />
    </clipPath>
    <clipPath
       id="clipPath5676">
      <path
         d="M 0,603.279 L 595.135,603.279 L 595.135,568.89 L 0,568.89 L 0,603.279 z"
         id="path5678" />
    </clipPath>
    <clipPath
       id="clipPath5656">
      <path
         d="M 0,603.279 L 595.135,603.279 L 595.135,568.89 L 0,568.89 L 0,603.279 z"
         id="path5658" />
    </clipPath>
    <clipPath
       id="clipPath5636">
      <path
         d="M 0,603.279 L 595.135,603.279 L 595.135,568.89 L 0,568.89 L 0,603.279 z"
         id="path5638" />
    </clipPath>
    <clipPath
       id="clipPath5616">
      <path
         d="M 0,603.279 L 595.135,603.279 L 595.135,568.89 L 0,568.89 L 0,603.279 z"
         id="path5618" />
    </clipPath>
    <clipPath
       id="clipPath5596">
      <path
         d="M 0,603.279 L 595.135,603.279 L 595.135,568.89 L 0,568.89 L 0,603.279 z"
         id="path5598" />
    </clipPath>
    <clipPath
       id="clipPath5576">
      <path
         d="M 0,603.279 L 595.135,603.279 L 595.135,568.89 L 0,568.89 L 0,603.279 z"
         id="path5578" />
    </clipPath>
    <clipPath
       id="clipPath5556">
      <path
         d="M 0,603.279 L 595.135,603.279 L 595.135,568.89 L 0,568.89 L 0,603.279 z"
         id="path5558" />
    </clipPath>
    <clipPath
       id="clipPath5536">
      <path
         d="M 0,603.279 L 595.135,603.279 L 595.135,568.89 L 0,568.89 L 0,603.279 z"
         id="path5538" />
    </clipPath>
    <clipPath
       id="clipPath5516">
      <path
         d="M 0,603.279 L 595.135,603.279 L 595.135,568.89 L 0,568.89 L 0,603.279 z"
         id="path5518" />
    </clipPath>
    <clipPath
       id="clipPath5496">
      <path
         d="M 0,603.279 L 595.135,603.279 L 595.135,568.89 L 0,568.89 L 0,603.279 z"
         id="path5498" />
    </clipPath>
    <clipPath
       id="clipPath5476">
      <path
         d="M 0,603.279 L 595.135,603.279 L 595.135,568.89 L 0,568.89 L 0,603.279 z"
         id="path5478" />
    </clipPath>
    <clipPath
       id="clipPath5456">
      <path
         d="M 0,603.279 L 595.135,603.279 L 595.135,568.89 L 0,568.89 L 0,603.279 z"
         id="path5458" />
    </clipPath>
    <clipPath
       id="clipPath5436">
      <path
         d="M 0,603.279 L 595.135,603.279 L 595.135,568.89 L 0,568.89 L 0,603.279 z"
         id="path5438" />
    </clipPath>
    <clipPath
       id="clipPath5416">
      <path
         d="M 0,603.279 L 595.135,603.279 L 595.135,568.89 L 0,568.89 L 0,603.279 z"
         id="path5418" />
    </clipPath>
    <clipPath
       id="clipPath5400">
      <path
         d="M 0,603.279 L 595.135,603.279 L 595.135,568.89 L 0,568.89 L 0,603.279 z"
         id="path5402" />
    </clipPath>
    <clipPath
       id="clipPath5390">
      <path
         d="M 0,841.421 L 595.135,841.421 L 595.135,0 L 0,0 L 0,841.421 z"
         id="path5392" />
    </clipPath>
    <clipPath
       id="clipPath5374">
      <path
         d="M 0,642.573 L 595.135,642.573 L 595.135,608.184 L 0,608.184 L 0,642.573 z"
         id="path5376" />
    </clipPath>
    <clipPath
       id="clipPath5334">
      <path
         d="M 0,642.573 L 595.135,642.573 L 595.135,608.184 L 0,608.184 L 0,642.573 z"
         id="path5336" />
    </clipPath>
    <clipPath
       id="clipPath5286">
      <path
         d="M 0,642.573 L 595.135,642.573 L 595.135,608.184 L 0,608.184 L 0,642.573 z"
         id="path5288" />
    </clipPath>
    <clipPath
       id="clipPath5238">
      <path
         d="M 0,642.573 L 595.135,642.573 L 595.135,608.184 L 0,608.184 L 0,642.573 z"
         id="path5240" />
    </clipPath>
    <clipPath
       id="clipPath5190">
      <path
         d="M 0,642.573 L 595.135,642.573 L 595.135,608.184 L 0,608.184 L 0,642.573 z"
         id="path5192" />
    </clipPath>
    <clipPath
       id="clipPath5142">
      <path
         d="M 0,642.573 L 595.135,642.573 L 595.135,608.184 L 0,608.184 L 0,642.573 z"
         id="path5144" />
    </clipPath>
    <clipPath
       id="clipPath5094">
      <path
         d="M 0,642.573 L 595.135,642.573 L 595.135,608.184 L 0,608.184 L 0,642.573 z"
         id="path5096" />
    </clipPath>
    <clipPath
       id="clipPath5046">
      <path
         d="M 0,642.573 L 595.135,642.573 L 595.135,608.184 L 0,608.184 L 0,642.573 z"
         id="path5048" />
    </clipPath>
    <clipPath
       id="clipPath4998">
      <path
         d="M 0,642.573 L 595.135,642.573 L 595.135,608.184 L 0,608.184 L 0,642.573 z"
         id="path5000" />
    </clipPath>
    <clipPath
       id="clipPath4950">
      <path
         d="M 0,642.573 L 595.135,642.573 L 595.135,608.184 L 0,608.184 L 0,642.573 z"
         id="path4952" />
    </clipPath>
    <clipPath
       id="clipPath4902">
      <path
         d="M 0,642.573 L 595.135,642.573 L 595.135,608.184 L 0,608.184 L 0,642.573 z"
         id="path4904" />
    </clipPath>
    <clipPath
       id="clipPath4854">
      <path
         d="M 0,642.573 L 595.135,642.573 L 595.135,608.184 L 0,608.184 L 0,642.573 z"
         id="path4856" />
    </clipPath>
    <clipPath
       id="clipPath4806">
      <path
         d="M 0,642.573 L 595.135,642.573 L 595.135,608.184 L 0,608.184 L 0,642.573 z"
         id="path4808" />
    </clipPath>
    <clipPath
       id="clipPath4758">
      <path
         d="M 0,642.573 L 595.135,642.573 L 595.135,608.184 L 0,608.184 L 0,642.573 z"
         id="path4760" />
    </clipPath>
    <clipPath
       id="clipPath4710">
      <path
         d="M 0,642.573 L 595.135,642.573 L 595.135,608.184 L 0,608.184 L 0,642.573 z"
         id="path4712" />
    </clipPath>
    <clipPath
       id="clipPath4662">
      <path
         d="M 0,642.573 L 595.135,642.573 L 595.135,608.184 L 0,608.184 L 0,642.573 z"
         id="path4664" />
    </clipPath>
    <clipPath
       id="clipPath4614">
      <path
         d="M 0,642.573 L 595.135,642.573 L 595.135,608.184 L 0,608.184 L 0,642.573 z"
         id="path4616" />
    </clipPath>
    <clipPath
       id="clipPath4566">
      <path
         d="M 0,642.573 L 595.135,642.573 L 595.135,608.184 L 0,608.184 L 0,642.573 z"
         id="path4568" />
    </clipPath>
    <clipPath
       id="clipPath4518">
      <path
         d="M 0,642.573 L 595.135,642.573 L 595.135,608.184 L 0,608.184 L 0,642.573 z"
         id="path4520" />
    </clipPath>
    <clipPath
       id="clipPath4470">
      <path
         d="M 0,642.573 L 595.135,642.573 L 595.135,608.184 L 0,608.184 L 0,642.573 z"
         id="path4472" />
    </clipPath>
    <clipPath
       id="clipPath4422">
      <path
         d="M 0,642.573 L 595.135,642.573 L 595.135,608.184 L 0,608.184 L 0,642.573 z"
         id="path4424" />
    </clipPath>
    <clipPath
       id="clipPath4374">
      <path
         d="M 0,642.573 L 595.135,642.573 L 595.135,608.184 L 0,608.184 L 0,642.573 z"
         id="path4376" />
    </clipPath>
    <clipPath
       id="clipPath4326">
      <path
         d="M 0,642.573 L 595.135,642.573 L 595.135,608.184 L 0,608.184 L 0,642.573 z"
         id="path4328" />
    </clipPath>
    <clipPath
       id="clipPath4278">
      <path
         d="M 0,642.573 L 595.135,642.573 L 595.135,608.184 L 0,608.184 L 0,642.573 z"
         id="path4280" />
    </clipPath>
    <clipPath
       id="clipPath4230">
      <path
         d="M 0,642.573 L 595.135,642.573 L 595.135,608.184 L 0,608.184 L 0,642.573 z"
         id="path4232" />
    </clipPath>
    <clipPath
       id="clipPath4182">
      <path
         d="M 0,642.573 L 595.135,642.573 L 595.135,608.184 L 0,608.184 L 0,642.573 z"
         id="path4184" />
    </clipPath>
    <clipPath
       id="clipPath4134">
      <path
         d="M 0,642.573 L 595.135,642.573 L 595.135,608.184 L 0,608.184 L 0,642.573 z"
         id="path4136" />
    </clipPath>
    <clipPath
       id="clipPath4086">
      <path
         d="M 0,642.573 L 595.135,642.573 L 595.135,608.184 L 0,608.184 L 0,642.573 z"
         id="path4088" />
    </clipPath>
    <clipPath
       id="clipPath4038">
      <path
         d="M 0,642.573 L 595.135,642.573 L 595.135,608.184 L 0,608.184 L 0,642.573 z"
         id="path4040" />
    </clipPath>
    <clipPath
       id="clipPath3990">
      <path
         d="M 0,642.573 L 595.135,642.573 L 595.135,608.184 L 0,608.184 L 0,642.573 z"
         id="path3992" />
    </clipPath>
    <clipPath
       id="clipPath3934">
      <path
         d="M 0,642.573 L 595.135,642.573 L 595.135,608.184 L 0,608.184 L 0,642.573 z"
         id="path3936" />
    </clipPath>
    <clipPath
       id="clipPath3924">
      <path
         d="M 0,841.421 L 595.135,841.421 L 595.135,0 L 0,0 L 0,841.421 z"
         id="path3926" />
    </clipPath>
    <clipPath
       id="clipPath3908">
      <path
         d="M 0,681.894 L 595.135,681.894 L 595.135,647.505 L 0,647.505 L 0,681.894 z"
         id="path3910" />
    </clipPath>
    <clipPath
       id="clipPath3856">
      <path
         d="M 0,681.894 L 595.135,681.894 L 595.135,647.505 L 0,647.505 L 0,681.894 z"
         id="path3858" />
    </clipPath>
    <clipPath
       id="clipPath3820">
      <path
         d="M 0,681.894 L 595.135,681.894 L 595.135,647.505 L 0,647.505 L 0,681.894 z"
         id="path3822" />
    </clipPath>
    <clipPath
       id="clipPath3760">
      <path
         d="M 0,681.894 L 595.135,681.894 L 595.135,647.505 L 0,647.505 L 0,681.894 z"
         id="path3762" />
    </clipPath>
    <clipPath
       id="clipPath3724">
      <path
         d="M 0,681.894 L 595.135,681.894 L 595.135,647.505 L 0,647.505 L 0,681.894 z"
         id="path3726" />
    </clipPath>
    <clipPath
       id="clipPath3664">
      <path
         d="M 0,681.894 L 595.135,681.894 L 595.135,647.505 L 0,647.505 L 0,681.894 z"
         id="path3666" />
    </clipPath>
    <clipPath
       id="clipPath3628">
      <path
         d="M 0,681.894 L 595.135,681.894 L 595.135,647.505 L 0,647.505 L 0,681.894 z"
         id="path3630" />
    </clipPath>
    <clipPath
       id="clipPath3568">
      <path
         d="M 0,681.894 L 595.135,681.894 L 595.135,647.505 L 0,647.505 L 0,681.894 z"
         id="path3570" />
    </clipPath>
    <clipPath
       id="clipPath3532">
      <path
         d="M 0,681.894 L 595.135,681.894 L 595.135,647.505 L 0,647.505 L 0,681.894 z"
         id="path3534" />
    </clipPath>
    <clipPath
       id="clipPath3472">
      <path
         d="M 0,681.894 L 595.135,681.894 L 595.135,647.505 L 0,647.505 L 0,681.894 z"
         id="path3474" />
    </clipPath>
    <clipPath
       id="clipPath3436">
      <path
         d="M 0,681.894 L 595.135,681.894 L 595.135,647.505 L 0,647.505 L 0,681.894 z"
         id="path3438" />
    </clipPath>
    <clipPath
       id="clipPath3376">
      <path
         d="M 0,681.894 L 595.135,681.894 L 595.135,647.505 L 0,647.505 L 0,681.894 z"
         id="path3378" />
    </clipPath>
    <clipPath
       id="clipPath3340">
      <path
         d="M 0,681.894 L 595.135,681.894 L 595.135,647.505 L 0,647.505 L 0,681.894 z"
         id="path3342" />
    </clipPath>
    <clipPath
       id="clipPath3280">
      <path
         d="M 0,681.894 L 595.135,681.894 L 595.135,647.505 L 0,647.505 L 0,681.894 z"
         id="path3282" />
    </clipPath>
    <clipPath
       id="clipPath3244">
      <path
         d="M 0,681.894 L 595.135,681.894 L 595.135,647.505 L 0,647.505 L 0,681.894 z"
         id="path3246" />
    </clipPath>
    <clipPath
       id="clipPath3184">
      <path
         d="M 0,681.894 L 595.135,681.894 L 595.135,647.505 L 0,647.505 L 0,681.894 z"
         id="path3186" />
    </clipPath>
    <clipPath
       id="clipPath3148">
      <path
         d="M 0,681.894 L 595.135,681.894 L 595.135,647.505 L 0,647.505 L 0,681.894 z"
         id="path3150" />
    </clipPath>
    <clipPath
       id="clipPath3088">
      <path
         d="M 0,681.894 L 595.135,681.894 L 595.135,647.505 L 0,647.505 L 0,681.894 z"
         id="path3090" />
    </clipPath>
    <clipPath
       id="clipPath3052">
      <path
         d="M 0,681.894 L 595.135,681.894 L 595.135,647.505 L 0,647.505 L 0,681.894 z"
         id="path3054" />
    </clipPath>
    <clipPath
       id="clipPath2992">
      <path
         d="M 0,681.894 L 595.135,681.894 L 595.135,647.505 L 0,647.505 L 0,681.894 z"
         id="path2994" />
    </clipPath>
    <clipPath
       id="clipPath2956">
      <path
         d="M 0,681.894 L 595.135,681.894 L 595.135,647.505 L 0,647.505 L 0,681.894 z"
         id="path2958" />
    </clipPath>
    <clipPath
       id="clipPath2896">
      <path
         d="M 0,681.894 L 595.135,681.894 L 595.135,647.505 L 0,647.505 L 0,681.894 z"
         id="path2898" />
    </clipPath>
    <clipPath
       id="clipPath2860">
      <path
         d="M 0,681.894 L 595.135,681.894 L 595.135,647.505 L 0,647.505 L 0,681.894 z"
         id="path2862" />
    </clipPath>
    <clipPath
       id="clipPath2800">
      <path
         d="M 0,681.894 L 595.135,681.894 L 595.135,647.505 L 0,647.505 L 0,681.894 z"
         id="path2802" />
    </clipPath>
    <clipPath
       id="clipPath2764">
      <path
         d="M 0,681.894 L 595.135,681.894 L 595.135,647.505 L 0,647.505 L 0,681.894 z"
         id="path2766" />
    </clipPath>
    <clipPath
       id="clipPath2704">
      <path
         d="M 0,681.894 L 595.135,681.894 L 595.135,647.505 L 0,647.505 L 0,681.894 z"
         id="path2706" />
    </clipPath>
    <clipPath
       id="clipPath2668">
      <path
         d="M 0,681.894 L 595.135,681.894 L 595.135,647.505 L 0,647.505 L 0,681.894 z"
         id="path2670" />
    </clipPath>
    <clipPath
       id="clipPath2608">
      <path
         d="M 0,681.894 L 595.135,681.894 L 595.135,647.505 L 0,647.505 L 0,681.894 z"
         id="path2610" />
    </clipPath>
    <clipPath
       id="clipPath2572">
      <path
         d="M 0,681.894 L 595.135,681.894 L 595.135,647.505 L 0,647.505 L 0,681.894 z"
         id="path2574" />
    </clipPath>
    <clipPath
       id="clipPath2512">
      <path
         d="M 0,681.894 L 595.135,681.894 L 595.135,647.505 L 0,647.505 L 0,681.894 z"
         id="path2514" />
    </clipPath>
    <clipPath
       id="clipPath2468">
      <path
         d="M 0,681.894 L 595.135,681.894 L 595.135,647.505 L 0,647.505 L 0,681.894 z"
         id="path2470" />
    </clipPath>
    <clipPath
       id="clipPath2458">
      <path
         d="M 0,841.421 L 595.135,841.421 L 595.135,0 L 0,0 L 0,841.421 z"
         id="path2460" />
    </clipPath>
  </defs>
  <g
     transform="translate(-2.4901894,-4.4623573)"
     id="layer1">
    <g
       transform="matrix(11.540389,0,0,11.540389,-378.94595,-1454.8538)"
       id="g11595">
      <path
         d="M 114.9925,146.642 C 113.5925,146.642 112.46875,147.7745 112.46875,149.1758 C 112.46875,150.5745 113.5925,151.7095 114.9925,151.7095 C 116.39375,151.7095 117.53,150.5745 117.53,149.1758 C 117.53,147.7745 116.39375,146.642 114.9925,146.642 z M 59.25625,146.642 C 57.85625,146.642 56.7175,147.7745 56.7175,149.1758 C 56.7175,150.5745 57.85625,151.7095 59.25625,151.7095 C 60.65625,151.7095 61.7925,150.5745 61.7925,149.1758 C 61.7925,147.7745 60.65625,146.642 59.25625,146.642 z M 114.9925,157.727 C 110.28125,157.727 106.44375,153.8983 106.44375,149.1758 C 106.44375,144.452 110.28125,140.6233 114.9925,140.6233 C 119.71875,140.6233 123.5425,144.452 123.5425,149.1758 C 123.5425,153.8983 119.71875,157.727 114.9925,157.727 z M 81.905,146.642 L 81.2675,146.642 C 79.86875,146.642 78.73,147.7745 78.73,149.1758 L 78.73,157.4107 L 72.69375,157.4107 L 72.69375,149.1758 C 72.69375,144.4508 76.5175,140.6233 81.21875,140.6233 L 81.905,140.6233 L 81.905,146.642 z M 59.25625,157.727 C 54.53,157.727 50.705,153.8983 50.705,149.1758 C 50.705,144.452 54.53,140.6233 59.25625,140.6233 C 63.98,140.6233 67.805,144.452 67.805,149.1758 C 67.805,153.8983 63.98,157.727 59.25625,157.727 z M 114.9925,138.0895 C 109.305,138.0895 104.63,142.3783 103.9925,147.8983 C 103.355,142.3783 98.6675,138.0895 92.98125,138.0895 L 92.98125,129.8545 L 90.455,129.8545 L 90.455,149.1758 C 90.455,150.5745 91.58,151.7095 92.98125,151.7095 C 94.38125,151.7095 95.5175,150.5745 95.5175,149.1758 C 95.5175,147.7745 94.38125,146.642 92.98125,146.642 L 92.98125,140.6233 C 97.705,140.6233 101.53,144.4508 101.53,149.1758 C 101.53,153.8983 97.705,157.7258 92.98125,157.7258 C 88.255,157.7258 84.43,153.8983 84.43,149.1758 L 84.43,129.8545 L 81.905,129.8545 L 81.905,138.0895 L 81.21875,138.0895 C 75.58,138.0895 70.9175,142.3408 70.2425,147.827 C 69.58,142.342 64.9175,138.0895 59.25625,138.0895 C 58.15625,138.0895 57.0925,138.2608 56.08,138.5595 L 56.08,138.4058 C 56.0675,132.2908 51.1175,127.3195 44.99375,127.3195 C 38.88125,127.3195 33.91875,132.2908 33.91875,138.4045 L 33.91875,159.9445 L 36.44375,159.9445 L 36.44375,138.4045 C 36.455,133.6908 40.28,129.8545 44.99375,129.8545 C 49.71875,129.8545 53.54375,133.6908 53.55625,138.4058 L 47.53125,138.4058 C 47.53125,137.007 46.3925,135.8707 44.99375,135.8707 C 43.60625,135.8707 42.4675,137.0057 42.4675,138.4045 L 42.4675,140.9395 L 51.85625,140.9395 C 50.205,142.4283 48.9925,144.4033 48.46875,146.642 L 42.48125,146.642 L 42.4675,159.9445 L 45.01875,159.9445 L 45.01875,149.1758 L 48.16875,149.1758 C 48.16875,155.2995 53.13125,160.262 59.25625,160.262 C 64.71875,160.262 69.24375,156.312 70.15625,151.1158 L 70.15625,159.9445 L 81.2675,159.9445 L 81.2675,149.1758 L 81.905,149.1758 C 81.905,155.2995 86.8675,160.262 92.98125,160.262 C 98.6675,160.262 103.355,155.9745 103.9925,150.4532 C 104.63,155.9745 109.305,160.262 114.9925,160.262 C 121.11875,160.262 126.08125,155.2995 126.08125,149.1758 C 126.08125,143.0533 121.11875,138.0895 114.9925,138.0895"
         id="path7122"
         style="fill:#0076bf;fill-opacity:1;fill-rule:nonzero;stroke:none" />
    </g>
  </g>
</svg>
