<svg width="254" height="158" viewBox="0 0 254 158" fill="none" xmlns="http://www.w3.org/2000/svg">
<g clip-path="url(#clip0_672_8724)">
<path d="M23.332 127.807V108.614L13.9107 127.807H12.228L2.7559 108.604V127.807H0V102.971H2.96757L13.0789 123.321L23.169 102.971H26.107V127.807H23.332Z" fill="#333333"/>
<path d="M23.7239 103.598H23.5609L13.0791 124.739L2.57412 103.598H0.901956H0.628906V127.174H1.82906H2.12327V105.894L12.6198 127.174H13.3162H13.5152L23.963 105.894V127.174H24.2488H25.1865H25.4743V103.598H23.7239Z" fill="#333333"/>
<path d="M103.535 128.196C100.049 128.196 96.8061 126.914 94.408 124.586C91.9801 122.188 90.6445 118.917 90.6445 115.369C90.6445 111.826 91.9801 108.563 94.4058 106.182C96.8146 103.841 100.055 102.553 103.535 102.553C107 102.553 110.234 103.839 112.643 106.18C115.09 108.547 116.438 111.811 116.438 115.369C116.438 118.931 115.09 122.205 112.645 124.586C110.241 126.914 107.006 128.196 103.535 128.196ZM103.535 105.24C97.7586 105.24 93.4047 109.595 93.4047 115.369C93.4047 121.159 97.7608 125.533 103.537 125.543C109.303 125.533 113.661 121.159 113.674 115.369C113.659 109.597 109.301 105.24 103.535 105.24Z" fill="#333333"/>
<path d="M112.201 106.632C109.974 104.472 106.92 103.184 103.533 103.184C100.138 103.184 97.071 104.47 94.8464 106.632C92.6408 108.796 91.2734 111.856 91.2734 115.372C91.2734 118.919 92.6408 121.96 94.8464 124.137C97.0689 126.296 100.138 127.568 103.533 127.568C106.922 127.568 109.974 126.296 112.201 124.137C114.438 121.96 115.806 118.917 115.806 115.372C115.803 111.854 114.438 108.796 112.201 106.632ZM103.533 126.172C97.5726 126.164 92.772 121.602 92.772 115.37C92.772 109.167 97.5726 104.609 103.533 104.609C109.5 104.609 114.29 109.165 114.303 115.37C114.288 121.602 109.5 126.164 103.533 126.172Z" fill="#333333"/>
<path d="M141.744 127.807L127.014 107.535V127.807H124.258V102.971H127.048L141.534 122.909V102.971H144.315V127.807H141.744Z" fill="#333333"/>
<path d="M142.461 103.598H142.167V124.85L126.728 103.598H125.185H124.891V127.174H126.106H126.383V105.591L142.065 127.174H142.216H143.405H143.687V103.598H142.461Z" fill="#333333"/>
<path d="M171.152 127.805V102.971H177.424C180.161 102.971 181.979 103.215 183.747 104.51C185.389 105.725 186.449 108.043 186.449 110.416C186.449 112.792 185.387 115.106 183.747 116.308L183.579 116.431H183.558C181.82 117.628 179.981 117.869 177.424 117.869H173.891V127.805H171.152ZM177.452 115.182C179.924 115.171 181.022 114.916 182.151 114.085C183.016 113.476 183.685 111.879 183.685 110.445C183.685 108.998 183.071 107.457 182.244 106.794L182.153 106.731C181.014 105.9 179.913 105.647 177.452 105.647H173.891V115.182H177.452Z" fill="#333333"/>
<path d="M183.374 105.017C181.782 103.851 180.176 103.598 177.424 103.598H171.785V127.172H172.985H173.258V117.237H177.424C180.121 117.237 181.767 116.96 183.359 115.8H183.374C184.832 114.729 185.819 112.584 185.819 110.414C185.819 108.24 184.832 106.099 183.374 105.017ZM177.451 115.811H173.26V105.017H177.451C180.049 105.017 181.278 105.314 182.525 106.223H182.531C183.543 106.951 184.316 108.723 184.316 110.446C184.316 112.093 183.543 113.875 182.525 114.592C181.278 115.509 180.049 115.8 177.451 115.811Z" fill="#333333"/>
<path d="M198.406 102.971H195.629V127.805H198.406V102.971Z" fill="#333333"/>
<path d="M196.556 103.6H196.262V103.872V127.176H197.47H197.773V103.6H196.556Z" fill="#333333"/>
<path d="M226.201 127.807L211.46 107.533V127.807H208.711V102.971H211.492L225.987 122.895V102.971H228.754V127.807H226.201Z" fill="#333333"/>
<path d="M226.902 103.598H226.616V124.836L211.169 103.598H209.604H209.34V127.174H210.555H210.828V105.591L226.523 127.174H226.667H227.856H228.121V103.598H226.902Z" fill="#333333"/>
<path d="M239.469 127.807V102.971H254.002V105.649H242.256V113.976H254.002V116.656H242.256V125.124H254.002V127.807H239.469Z" fill="#333333"/>
<path d="M240.102 103.598V127.174H240.4H253.369V126.046V125.753H241.626V116.026H253.369V114.887V114.605H241.626V105.017H253.369V103.87V103.598H240.102Z" fill="#333333"/>
<path d="M54.3846 128.355L52.1113 122.749H40.0654L37.7963 128.355H34.8711L44.9147 103.531H47.2748L57.3205 128.357H54.3846V128.355ZM51.0445 120.093L50.9112 119.754L50.5514 118.965L46.081 107.785L41.6762 118.936L41.2677 119.794L41.1449 120.093H51.0445Z" fill="#333333"/>
<path d="M46.8491 104.162H46.6523H45.5304H45.3421L35.8086 127.728H37.176H37.3728L39.6419 122.123H52.5387L54.812 127.728H55.9487H56.3868L46.8491 104.162ZM51.9715 120.724H40.2049L40.6939 119.524L41.0854 118.706L46.0744 106.077L51.1227 118.706L51.4973 119.524L51.9715 120.724Z" fill="#333333"/>
<path d="M74.0233 128.616C72.5839 128.616 71.0472 128.299 69.6989 127.724L69.6968 127.722C68.2003 127.076 66.9663 126.119 66.1281 124.948C65.4952 124.02 65.1227 123.027 65.0105 121.989L64.8242 120.635L67.5907 120.323L67.7579 121.618C67.8193 122.211 67.9865 122.717 68.2871 123.21L68.4353 123.421C68.7676 123.906 69.2735 124.368 69.8936 124.756C72.0484 126.096 75.3779 126.207 77.592 125.125C78.7074 124.602 79.5541 123.883 80.0494 123.037C80.3881 122.417 80.5574 121.764 80.5574 121.055C80.5574 120.711 80.5087 120.329 80.4558 119.971C80.3055 119.34 80.0134 118.838 79.5456 118.442L79.5245 118.423H79.5224L79.4377 118.353C79.0059 118.007 78.4238 117.737 77.6597 117.527C76.6289 117.252 75.4118 117.13 74.1227 117.004C73.3713 116.93 72.6093 116.854 71.8664 116.746C70.1392 116.487 68.92 116.095 67.9103 115.477L67.9357 115.434L67.9082 115.474C67.1695 115.021 66.5916 114.458 66.1387 113.751C65.6095 112.882 65.3026 111.872 65.1946 110.649L65.1777 110.018C65.1777 108.54 65.6455 107.148 66.5303 105.994C67.3812 104.94 68.5474 104.088 69.9148 103.518C71.2038 102.993 72.6559 102.715 74.1206 102.715C76.0912 102.715 77.9264 103.202 79.4313 104.128C80.9384 105.054 81.9989 106.465 82.4476 108.125L82.492 108.139L82.6063 108.715L82.7651 110.021L80.079 110.56L79.8885 109.164C79.7213 108.375 79.408 107.747 78.9085 107.207C77.8735 106.1 76.068 105.435 74.0783 105.435L74.0042 105.446C72.8887 105.463 71.8833 105.659 71.0409 106.018C70.0291 106.416 69.2608 106.965 68.7422 107.646C68.1728 108.35 67.9082 109.124 67.9082 110.046C67.9082 110.174 67.9061 110.271 67.923 110.383C67.9971 111.256 68.1749 111.843 68.4839 112.302L68.5834 112.45C68.8438 112.792 69.193 113.07 69.6735 113.313C70.7742 113.884 72.4231 114.091 74.019 114.253C75.1557 114.348 76.3749 114.462 77.5666 114.69C78.9022 114.962 80.5849 115.439 81.8083 116.75C82.4582 117.44 82.9154 118.353 83.1651 119.458C83.2794 119.986 83.3387 120.526 83.3387 121.068C83.3387 122.257 83.0445 123.362 82.4645 124.349C81.9544 125.254 81.2093 126.058 80.2568 126.726C78.572 127.926 76.2987 128.616 74.0233 128.616ZM70.1963 126.568C71.3922 127.076 72.7511 127.359 74.0233 127.359C76.0426 127.359 78.0449 126.754 79.5245 125.701C80.3246 125.136 80.9426 124.472 81.3681 123.723C81.8401 122.921 82.0751 122.034 82.0751 121.07C82.0751 120.618 82.0264 120.169 81.9311 119.733C81.7343 118.853 81.3808 118.138 80.8855 117.613C80.1193 116.79 79.0207 116.272 77.3189 115.928C76.1971 115.709 75.016 115.601 73.9026 115.51C72.1733 115.333 70.3889 115.107 69.0957 114.435C68.3612 114.059 67.8172 113.593 67.4298 113.003L67.3261 112.834C66.9599 112.227 66.7504 111.497 66.6678 110.563C66.6446 110.404 66.6424 110.248 66.6424 110.046C66.6424 108.846 67.0086 107.783 67.7304 106.889C68.3929 106.02 69.3433 105.334 70.5583 104.851C71.5362 104.436 72.7067 104.206 73.9322 104.191L74.0148 104.181C74.019 104.181 74.0233 104.181 74.0275 104.181C76.4193 104.181 78.5656 104.993 79.8335 106.349C80.4981 107.066 80.9109 107.884 81.1289 108.928L81.1522 109.057L81.3702 109.012L81.2982 108.751C80.9786 107.253 80.1044 106.026 78.7667 105.201C77.4607 104.4 75.8542 103.978 74.1185 103.978C72.8167 103.978 71.5298 104.221 70.3953 104.685C69.2269 105.17 68.2321 105.893 67.523 106.773C66.8181 107.694 66.4392 108.823 66.4392 110.021L66.4519 110.575C66.5408 111.566 66.7885 112.4 67.2055 113.085C67.5463 113.619 67.995 114.053 68.5686 114.407L68.4056 114.669L68.5813 114.416C69.4237 114.93 70.4969 115.27 72.0463 115.502C72.7681 115.607 73.511 115.679 74.2434 115.753C75.5854 115.886 76.8511 116.01 77.9878 116.314C78.9826 116.588 79.7488 116.963 80.3288 117.459C81.0188 118.031 81.4633 118.777 81.6898 119.737C81.7597 120.197 81.8147 120.631 81.8147 121.055C81.8147 121.979 81.5946 122.833 81.1437 123.655C80.5108 124.739 79.4715 125.634 78.1338 126.26C75.5663 127.521 71.7288 127.382 69.2205 125.823C68.9771 125.674 68.7506 125.516 68.539 125.347V125.619C69.0343 125.986 69.5888 126.306 70.1963 126.568ZM66.2509 121.736L66.2657 121.837C66.3567 122.685 66.6594 123.485 67.1653 124.231C67.4658 124.651 67.8341 125.043 68.2596 125.397L67.3917 124.149C66.8816 123.409 66.5916 122.637 66.507 121.789L66.4943 121.711L66.2509 121.736Z" fill="#333333"/>
<path d="M82.5489 119.598C82.3267 118.598 81.9203 117.788 81.3467 117.181C80.3285 116.089 78.9019 115.606 77.4478 115.308C76.3005 115.087 75.0983 114.975 73.9574 114.88C72.2238 114.703 70.5622 114.484 69.3896 113.874C68.8012 113.573 68.3122 113.191 67.963 112.657V112.651C67.5947 112.105 67.383 111.428 67.3026 110.506V110.481V110.476C67.2793 110.335 67.2793 110.207 67.2793 110.042C67.2793 109.015 67.5756 108.087 68.2276 107.279L68.2424 107.262C68.8626 106.442 69.76 105.843 70.7972 105.432C71.7666 105.02 72.8779 104.829 73.9447 104.816L74.0801 104.801C76.0359 104.801 78.123 105.432 79.3739 106.775C79.9835 107.431 80.3285 108.171 80.5148 109.051L80.5952 109.511L80.6312 109.804L81.8208 109.559L82.0727 109.513L81.9838 108.791L81.9647 108.629L81.9203 108.616C81.5456 106.86 80.4936 105.518 79.103 104.662C77.6552 103.772 75.9068 103.344 74.1225 103.344C72.7551 103.344 71.3856 103.597 70.1601 104.097C68.9303 104.607 67.8381 105.375 67.0338 106.374C66.2188 107.437 65.8103 108.709 65.8103 110.017C65.8103 110.194 65.823 110.382 65.823 110.571V110.584V110.592C65.9246 111.738 66.2104 112.657 66.6697 113.41C67.0846 114.06 67.6137 114.553 68.2403 114.941L68.2254 114.931L68.2403 114.941C69.3282 115.606 70.6321 115.924 71.9571 116.122C73.9722 116.418 76.1206 116.464 77.8288 116.92C78.6648 117.149 79.3718 117.466 79.9264 117.938V117.919V117.938C80.4725 118.39 80.8725 118.999 81.08 119.879C81.1413 120.302 81.1879 120.691 81.1879 121.053C81.1879 121.924 80.9657 122.679 80.5931 123.354C80.0068 124.356 79.031 125.147 77.869 125.689C76.7217 126.252 75.3692 126.524 74.0653 126.524C72.5583 126.524 70.884 126.113 69.5589 125.288C68.9112 124.887 68.3249 124.377 67.9101 123.776V123.789C67.4952 123.188 67.2137 122.527 67.1332 121.724L67.0909 121.481L67.0613 121.296L67.0295 121.017L65.8209 121.15L65.5352 121.184L65.6368 121.924C65.7447 122.928 66.1215 123.822 66.6401 124.586C67.4613 125.733 68.6403 126.585 69.9442 127.148H69.959H69.9442C71.2565 127.707 72.6937 127.99 74.0209 127.99C76.1121 127.99 78.25 127.382 79.8883 126.212C80.7244 125.626 81.4271 124.896 81.916 124.031C82.424 123.169 82.7034 122.173 82.7034 121.07C82.7056 120.6 82.6569 120.098 82.5489 119.598Z" fill="#333333"/>
<path d="M88.2963 157.836V151.911H83.7116V157.836H81.0234V145.211H83.7116V149.262H88.2963V145.211H91.0268V157.836H88.2963Z" fill="#333333"/>
<path d="M88.9252 151.281H83.079V157.205H81.6523V145.84H83.079V149.893H88.9252V145.84H90.3942V157.205H88.9252V151.281Z" fill="#333333"/>
<path d="M108.893 158C105.254 158 102.293 155.056 102.293 151.441C102.293 147.803 105.254 144.844 108.893 144.844C112.544 144.844 115.514 147.803 115.514 151.441C115.514 155.058 112.544 158 108.893 158ZM108.893 147.52C106.74 147.52 104.99 149.277 104.99 151.439C104.99 153.581 106.74 155.326 108.893 155.326C111.041 155.326 112.79 153.581 112.79 151.439C112.79 149.277 111.041 147.52 108.893 147.52Z" fill="#333333"/>
<path d="M114.885 151.439C114.885 154.712 112.173 157.37 108.895 157.37C105.605 157.37 102.926 154.712 102.926 151.439C102.926 148.145 105.605 145.473 108.895 145.473C112.173 145.473 114.885 148.145 114.885 151.439ZM113.422 151.439C113.422 148.95 111.409 146.89 108.893 146.89C106.387 146.89 104.359 148.953 104.359 151.439C104.359 153.913 106.387 155.955 108.893 155.955C111.409 155.952 113.422 153.913 113.422 151.439Z" fill="#333333"/>
<path d="M127.925 157.833V147.877H124.922V145.211H133.659V147.877H130.631V157.833H127.925Z" fill="#333333"/>
<path d="M128.554 147.247H125.551V145.84H133.027V147.247H129.996V157.203H128.554V147.247Z" fill="#333333"/>
<path d="M145.887 157.836V145.211H154.372V147.837H148.59V149.246H153.617V151.932H148.59V155.17H154.216V157.836H145.887Z" fill="#333333"/>
<path d="M146.52 145.84H153.744V147.206H147.959V149.874H152.986V151.302H147.959V155.801H153.587V157.205H146.52V145.84Z" fill="#333333"/>
<path d="M164.008 157.834V145.209H166.723V155.187H172.97V157.834H164.008Z" fill="#333333"/>
<path d="M164.641 145.84H166.091V155.82H172.339V157.205H164.641V145.84Z" fill="#333333"/>
<path d="M156.473 43.2435C154.746 41.5226 152.428 40.5608 149.985 40.5608C145.341 40.5608 141.826 44.6228 138.443 47.4827L129.627 40.0399L136.934 33.8837C139.601 36.1762 142.456 39.5443 146.252 39.5443C148.317 39.5443 150.277 38.7323 151.742 37.2771C153.133 35.8851 154.001 33.949 154.001 31.8189V31.8126C154.001 29.6846 153.133 27.7443 151.742 26.3502C150.335 24.9625 148.387 24.0957 146.264 24.0957C144.66 24.0957 143.157 24.5723 141.917 25.4138C140.172 26.7214 138.638 28.0142 136.964 29.4273L129.646 23.0918L133.257 19.9535L135.05 21.5458C135.831 22.1891 136.466 22.7332 137.395 23.1993C138.054 23.4988 138.788 23.7392 139.658 23.7392C141.305 23.7392 142.825 23.0707 143.906 21.9951C144.99 20.9237 145.653 19.4073 145.653 17.7622C145.653 16.1277 144.99 14.6114 143.906 13.5379C142.825 12.4559 141.305 11.7895 139.658 11.7895C136.809 11.7895 135.251 13.7382 133.3 15.4423L129.286 11.8675L130.959 10.3131C132.042 9.22911 132.72 7.71061 132.72 6.0508C132.72 4.38467 132.028 2.87039 130.959 1.77158C129.85 0.681216 128.334 0 126.666 0H126.636C124.979 0 123.449 0.681216 122.363 1.77158C121.26 2.87039 120.572 4.38467 120.572 6.0508C120.572 7.39215 121.031 8.63015 121.777 9.62982C122.606 10.6253 123.349 11.1061 124.281 11.9434L120.665 15.3369C118.724 13.656 117.126 11.7895 114.336 11.7895C112.69 11.7895 111.172 12.4538 110.088 13.5379C109.015 14.6114 108.325 16.1277 108.325 17.7622C108.325 19.4073 109.013 20.9237 110.088 21.9951C111.172 23.0686 112.69 23.7392 114.336 23.7392C115.697 23.7392 117.037 23.2921 118.085 22.4211L120.763 19.8987L124.469 23.0896L117.086 29.4842C114.33 27.1622 111.678 24.0788 107.756 24.0788C105.688 24.0788 103.719 24.8908 102.259 26.3481C100.855 27.7379 99.9812 29.6846 99.9812 31.8105C99.9812 33.9469 100.855 35.8978 102.259 37.2961C103.726 38.7534 105.694 39.5506 107.762 39.5506C111.589 39.5506 114.438 36.2816 117.124 33.9469L124.355 40.0378L115.556 47.4215C112.163 44.6081 108.742 40.5587 104.009 40.5587C101.567 40.5587 99.234 41.5247 97.5047 43.2414C95.858 44.897 94.8398 47.1874 94.8398 49.6993C94.8398 52.2174 95.8558 54.5142 97.5047 56.1655C99.1727 57.8148 101.48 58.8314 104.009 58.8314C108.66 58.8314 112.154 54.7166 115.568 51.842L124.456 59.2426L119.438 63.4628C117.046 61.2356 115.056 58.5487 111.506 58.5487C109.578 58.5487 107.823 59.327 106.575 60.584C105.305 61.8473 104.526 63.5914 104.526 65.5106C104.526 67.4277 105.307 69.1804 106.575 70.4458C107.823 71.6922 109.578 72.4831 111.498 72.4831C112.199 72.4831 112.893 72.3713 113.562 72.1689C114.669 71.7892 115.001 71.5045 115.941 70.8507L127.108 61.4465C129.623 63.5387 138.473 71.5825 140.846 72.3755C141.5 72.5738 142.196 72.6813 142.903 72.6813C144.825 72.6813 146.58 71.8905 147.839 70.6335C149.096 69.3786 149.899 67.6365 149.899 65.7237V65.7026C149.899 63.7897 149.096 62.0329 147.839 60.797C146.531 59.4851 144.757 58.7554 142.903 58.7554C141.614 58.7554 139.832 59.2215 138.839 60.0672L135.033 63.6273L129.737 59.2194L138.439 51.9137C140.477 53.6284 142.518 55.3451 144.56 57.0598C146.097 58.1733 147.96 58.8335 149.998 58.8335C152.517 58.8335 154.818 57.8169 156.471 56.1676C158.13 54.5163 159.161 52.2195 159.161 49.7014C159.163 47.1895 158.132 44.8991 156.473 43.2435ZM146.264 27.4785C147.462 27.4785 148.531 27.9678 149.336 28.7439C150.129 29.5306 150.61 30.6147 150.61 31.8126C150.61 33.0232 150.129 34.0924 149.336 34.8791C148.531 35.67 147.462 36.1509 146.264 36.1509C143.921 36.1509 141.347 33.2024 139.565 31.6692C141.381 30.1401 143.803 27.4785 146.264 27.4785ZM139.658 15.166C140.38 15.166 141.034 15.4634 141.491 15.9358C141.978 16.4104 142.266 17.0494 142.266 17.7622C142.266 18.4772 141.978 19.1289 141.491 19.5992C141.034 20.0737 140.38 20.3648 139.658 20.3648C138.519 20.3648 136.659 18.4392 135.838 17.7095C136.86 16.8258 138.297 15.166 139.658 15.166ZM114.339 20.3648C113.615 20.3648 112.978 20.0737 112.491 19.5992C112.017 19.1289 111.737 18.4835 111.737 17.7622C111.737 17.0515 112.017 16.4104 112.491 15.9358C112.978 15.4613 113.615 15.166 114.339 15.166C115.74 15.166 117.156 16.771 118.195 17.6652C117.137 18.6586 115.827 20.3648 114.339 20.3648ZM107.76 36.1719C106.53 36.1719 105.468 35.6869 104.665 34.8854C103.878 34.1009 103.389 33.0211 103.389 31.8105C103.389 30.6126 103.872 29.5285 104.665 28.7376C105.466 27.9467 106.53 27.4617 107.76 27.4617C110.165 27.4617 112.747 30.2477 114.506 31.7261C112.702 33.2973 110.2 36.1719 107.76 36.1719ZM104.013 55.4506C102.407 55.4506 100.97 54.8158 99.9283 53.757C98.8763 52.7257 98.2329 51.2958 98.2329 49.7014C98.2329 48.1069 98.8763 46.6833 99.9283 45.6394C100.97 44.587 102.407 43.9564 104.013 43.9564C107.004 43.9564 110.59 47.702 112.931 49.6423C110.541 51.6522 107.108 55.4506 104.013 55.4506ZM111.511 69.0854C110.514 69.0854 109.633 68.6889 108.975 68.0457C108.321 67.3961 107.919 66.4998 107.919 65.5064C107.919 64.5131 108.321 63.6378 108.975 62.9861C109.633 62.326 110.514 61.9337 111.511 61.9337C113.532 61.9337 115.393 64.3233 116.832 65.6751C115.496 66.8014 113.289 69.0854 111.511 69.0854ZM142.905 62.1446C143.908 62.1446 144.789 62.5432 145.435 63.197C146.097 63.8487 146.487 64.7282 146.487 65.7152C146.487 66.7022 146.097 67.5965 145.435 68.2608C144.787 68.902 143.906 69.2921 142.905 69.3027C141.4 69.3027 138.888 66.7845 137.658 65.8143C139.099 64.4646 140.888 62.1446 142.905 62.1446ZM123.98 6.0508C123.98 4.64408 125.28 3.38921 126.645 3.38921C128.122 3.38921 129.333 4.57659 129.333 6.0508C129.333 7.5925 127.809 8.60695 126.755 9.6003C125.639 8.60273 123.98 7.6157 123.98 6.0508ZM123.47 17.7517L123.25 17.564L126.816 14.2043L130.709 17.6779L127.047 20.8414L123.47 17.7517ZM119.958 31.8969L119.719 31.6987L127.053 25.34L134.337 31.6354L126.981 37.8254L119.958 31.8969ZM127.096 57.0239L118.21 49.6318L126.973 42.2586L135.804 49.6908L127.096 57.0239ZM154.071 53.757C153.023 54.8158 151.598 55.4506 150 55.4506C146.961 55.4506 143.263 51.5404 141.07 49.6908C143.259 47.8433 146.982 43.9564 150 43.9564C151.598 43.9564 153.023 44.587 154.071 45.6394C155.129 46.6855 155.755 48.1048 155.764 49.7014C155.755 51.2979 155.129 52.7257 154.071 53.757Z" fill="#333333"/>
<path d="M133.535 77.7756C133.857 78.054 134.252 78.1911 134.655 78.1911C135.127 78.1911 135.599 77.9886 135.927 77.6006C136.208 77.2695 136.331 76.8793 136.331 76.4828C136.331 76.0083 136.136 75.5443 135.757 75.2132L127.121 67.7852L118.5 75.2132L118.441 75.2659C118.113 75.5991 117.941 76.0251 117.941 76.4596C117.941 76.9025 118.113 77.3348 118.441 77.6617C118.767 77.9865 119.203 78.1595 119.62 78.1595C120.033 78.1595 120.441 78.0055 120.763 77.7313L120.987 77.5268L120.994 77.5373L127.119 72.2584L133.535 77.7756Z" fill="#333333"/>
</g>
<defs>
<clipPath id="clip0_672_8724">
<rect width="254" height="158" fill="white"/>
</clipPath>
</defs>
</svg>
