<svg version="1.2" xmlns="http://www.w3.org/2000/svg" viewBox="0 0 749.9999999999999 500" width="750" height="500">
	<title>2683803</title>
	<defs>
		<clipPath clipPathUnits="userSpaceOnUse" id="cp1">
			<path d="m749.52-1.53v501.53h-790.22v-501.53z"/>
		</clipPath>
	</defs>
	<style>
		tspan { white-space:pre } 
		.s0 { fill: #ebfbff } 
		.s1 { fill: #4ebdf5 } 
		.s2 { opacity: .45;fill: #4ebdf5 } 
		.s3 { fill: #22344a } 
		.s4 { fill: #ffffff } 
		.s5 { fill: #425d72 } 
		.s6 { fill: #ffc82e } 
		.s7 { fill: #0a2035 } 
		.t8 { font-size: 18px;line-height: 16px;fill: #4ebdf5;font-weight: 800;font-family: "Montserrat-ExtraBold", "Montserrat" } 
		.s9 { opacity: .89;fill: #ffc82e } 
		.s10 { opacity: .89;fill: #4ebdf5 } 
		.t11 { font-size: 3px;fill: #777777;font-weight: 700;font-family: "BebasNeueBold", "Bebas Neue" } 
		.s12 { opacity: .83;fill: #4ebdf5 } 
		.s13 { opacity: .8;fill: #ffffff } 
	</style>
	<g id="OBJECTS">
		<g id="&lt;Clip Group&gt;" clip-path="url(#cp1)">
			<path id="&lt;Path&gt;" class="s0" d="m514-294.3l-451.6 580.7c-34.5 44.3-26.5 108.1 17.8 142.6l339 263.7c44.3 34.4 108.2 26.5 142.6-17.8l451.7-580.7c34.4-44.3 26.4-108.1-17.9-142.6l-339-263.7c-44.3-34.4-108.1-26.5-142.6 17.8z"/>
			<g id="&lt;Group&gt;">
				<g id="&lt;Group&gt;">
					<path id="&lt;Path&gt;" class="s1" d="m499 146.4c1.6 0 3.1 0.3 4.5 0.8 1.2 0.4 2.6 0 3.3-1v-0.1c1.1-1.5 0.4-3.6-1.3-4.2-2.1-0.7-4.2-1.2-6.5-1.2-2.3 0-4.5 0.5-6.5 1.2-1.8 0.6-2.4 2.7-1.4 4.2v0.1c0.8 1 2.1 1.4 3.3 1 1.4-0.5 3-0.8 4.6-0.8z"/>
					<path id="&lt;Path&gt;" class="s1" d="m499 133.9c4.1 0 8.1 1 11.6 2.7 1.2 0.6 2.7 0.2 3.5-0.9 1-1.4 0.5-3.4-1-4.2-4.3-2.1-9.1-3.3-14.1-3.3-5.1 0-9.9 1.2-14.1 3.3-1.6 0.8-2.1 2.8-1.1 4.2 0.8 1.1 2.3 1.5 3.5 0.9 3.5-1.7 7.5-2.7 11.7-2.7z"/>
					<path id="&lt;Path&gt;" class="s1" d="m499 121.5c6.7 0 13 1.8 18.5 4.8 1.3 0.7 2.9 0.4 3.7-0.8 1-1.4 0.6-3.3-0.9-4.1-6.3-3.5-13.6-5.5-21.3-5.5-7.8 0-15.1 2-21.4 5.5-1.4 0.8-1.8 2.7-0.9 4.1 0.9 1.2 2.5 1.5 3.7 0.8 5.5-3 11.9-4.8 18.6-4.8z"/>
				</g>
				<path id="&lt;Path&gt;" class="s2" d="m634.7 341.7h-12.7v-12.7c0-1.3-1.1-2.4-2.4-2.4-1.4 0-2.5 1.1-2.5 2.4v12.7h-12.7c-1.3 0-2.4 1.1-2.4 2.5 0 1.3 1.1 2.4 2.4 2.4h12.7v12.7c0 1.4 1.1 2.4 2.5 2.4 1.3 0 2.4-1 2.4-2.4v-12.7h12.7c1.4 0 2.4-1.1 2.4-2.4 0-1.4-1-2.5-2.4-2.5z"/>
				<path id="&lt;Path&gt;" class="s2" d="m491.3 193.7h-6.7v-6.7c0-0.7-0.6-1.3-1.3-1.3-0.7 0-1.3 0.6-1.3 1.3v6.7h-6.6c-0.7 0-1.3 0.5-1.3 1.2 0 0.7 0.6 1.3 1.3 1.3h6.6v6.7c0 0.7 0.6 1.3 1.3 1.3 0.7 0 1.3-0.6 1.3-1.3v-6.7h6.7c0.7 0 1.2-0.6 1.2-1.3 0-0.7-0.5-1.2-1.2-1.2z"/>
				<path id="&lt;Path&gt;" class="s2" d="m627.6 143.2h-4.5v-4.5c0-0.5-0.3-0.8-0.8-0.8-0.5 0-0.9 0.3-0.9 0.8v4.5h-4.4c-0.5 0-0.9 0.4-0.9 0.8 0 0.5 0.4 0.9 0.9 0.9h4.4v4.4c0 0.5 0.4 0.9 0.9 0.9 0.5 0 0.8-0.4 0.8-0.9v-4.4h4.5c0.5 0 0.8-0.4 0.8-0.9 0-0.4-0.3-0.8-0.8-0.8z"/>
				<g id="&lt;Group&gt;" style="opacity: .45">
					<g id="&lt;Group&gt;">
						<path id="&lt;Compound Path&gt;" class="s1" d="m416 253.3c-8.7 0-15.8-7.1-15.8-15.8 0-8.8 7.1-15.9 15.8-15.9 8.8 0 15.9 7.1 15.9 15.9 0 8.7-7.1 15.8-15.9 15.8zm0-29.9c-7.8 0-14.1 6.3-14.1 14.1 0 7.8 6.3 14.1 14.1 14.1 7.8 0 14.1-6.3 14.1-14.1 0-7.8-6.3-14.1-14.1-14.1z"/>
					</g>
					<g id="&lt;Group&gt;">
						<path id="&lt;Path&gt;" class="s1" d="m416 238.6c-0.5 0-0.8-0.3-0.8-0.8v-11.2c0-0.4 0.3-0.8 0.8-0.8 0.5 0 0.9 0.4 0.9 0.8v11.2c0 0.5-0.4 0.8-0.9 0.8z"/>
						<path id="&lt;Path&gt;" class="s1" d="m416.6 237.6v0.2c0 0.4-0.3 0.8-0.7 0.8h-8.9c-0.4 0-0.7-0.4-0.7-0.8v-0.2c0-0.4 0.3-0.7 0.7-0.7h8.9c0.4 0 0.7 0.3 0.7 0.7z"/>
					</g>
				</g>
				<g id="&lt;Group&gt;">
					<g id="&lt;Group&gt;">
						<g id="&lt;Group&gt;">
							<g id="&lt;Group&gt;">
								<g id="&lt;Group&gt;">
									<path id="&lt;Path&gt;" class="s3" d="m472.3 202.5h-90.4v-53.5c0-2 1.7-3.7 3.7-3.7h83c2.1 0 3.7 1.7 3.7 3.7z"/>
									<path id="&lt;Path&gt;" class="s4" d="m468 198.5h-81.8v-49.2h81.8z"/>
								</g>
								<g id="&lt;Group&gt;">
									<path id="&lt;Path&gt;" class="s3" d="m381.9 202.5l-6.1 11.9c-0.5 1.1 0.3 2.3 1.5 2.3h99.7c1.2 0 2-1.2 1.4-2.3l-6.1-11.9z"/>
									<path id="&lt;Path&gt;" class="s5" d="m391.2 203.5l-5.9 9.3h83.6l-5.8-9.3z"/>
								</g>
							</g>
							<g id="&lt;Group&gt;">
								<path id="&lt;Path&gt;" class="s1" d="m468 149.3h-81.8v3.6h81.8z"/>
								<g id="&lt;Group&gt;">
									<path id="&lt;Path&gt;" class="s4" d="m389.9 151.1c0 0.5-0.4 1-1 1-0.5 0-1-0.5-1-1 0-0.6 0.5-1 1-1 0.6 0 1 0.4 1 1z"/>
									<path id="&lt;Path&gt;" class="s4" d="m394.1 151.1c0 0.5-0.4 1-1 1-0.5 0-1-0.5-1-1 0-0.6 0.5-1 1-1 0.6 0 1 0.4 1 1z"/>
									<path id="&lt;Path&gt;" class="s4" d="m398.4 151.1c0 0.5-0.5 1-1 1-0.6 0-1-0.5-1-1 0-0.6 0.4-1 1-1 0.5 0 1 0.4 1 1z"/>
								</g>
							</g>
						</g>
						<g id="&lt;Group&gt;">
							<g id="&lt;Group&gt;">
								<path id="&lt;Path&gt;" class="s1" d="m435.8 166.2h-39.6v-2.5h39.6z"/>
								<path id="&lt;Path&gt;" class="s1" d="m435.8 171.4h-39.6v-2.5h39.6z"/>
								<path id="&lt;Path&gt;" class="s1" d="m435.8 176.6h-39.6v-2.5h39.6z"/>
								<path id="&lt;Path&gt;" class="s1" d="m435.8 181.7h-39.6v-2.4h39.6z"/>
								<path id="&lt;Path&gt;" class="s1" d="m413.3 186.9h-17.1v-2.5h17.1z"/>
							</g>
							<path id="&lt;Compound Path&gt;" class="s6" d="m450.6 163.3c-3.5 0-6.3 2.9-6.3 6.4 0 3.5 6.3 16.3 6.3 16.3 0 0 6.4-12.8 6.4-16.3 0-3.5-2.9-6.4-6.4-6.4zm0 10.7c-2.2 0-4-1.8-4-4 0-2.2 1.8-4 4-4 2.2 0 4.1 1.8 4.1 4 0 2.2-1.9 4-4.1 4z"/>
						</g>
					</g>
					<g id="&lt;Group&gt;">
						<g id="&lt;Group&gt;">
							<g id="&lt;Group&gt;">
								<g id="&lt;Group&gt;">
									<path id="&lt;Path&gt;" class="s3" d="m616 203.2h-90.4v-53.5c0-2 1.7-3.7 3.7-3.7h83c2.1 0 3.7 1.7 3.7 3.7z"/>
									<path id="&lt;Path&gt;" class="s4" d="m611.7 199.2h-81.8v-49.2h81.8z"/>
								</g>
								<g id="&lt;Group&gt;">
									<path id="&lt;Path&gt;" class="s3" d="m525.6 203.2l-6.1 11.9c-0.5 1.1 0.3 2.3 1.5 2.3h99.7c1.2 0 2-1.2 1.4-2.3l-6.1-11.9z"/>
									<path id="&lt;Path&gt;" class="s5" d="m534.9 204.2l-5.8 9.3h83.5l-5.8-9.3z"/>
								</g>
							</g>
							<g id="&lt;Group&gt;">
								<path id="&lt;Path&gt;" class="s1" d="m611.7 150h-81.8v3.6h81.8z"/>
								<g id="&lt;Group&gt;">
									<path id="&lt;Path&gt;" class="s4" d="m533.6 151.8c0 0.5-0.4 1-1 1-0.5 0-1-0.5-1-1 0-0.6 0.5-1 1-1 0.6 0 1 0.4 1 1z"/>
									<path id="&lt;Path&gt;" class="s4" d="m537.9 151.8c0 0.5-0.5 1-1 1-0.6 0-1.1-0.5-1.1-1 0-0.6 0.5-1 1.1-1 0.5 0 1 0.4 1 1z"/>
									<path id="&lt;Path&gt;" class="s4" d="m542.1 151.8c0 0.5-0.5 1-1 1-0.6 0-1-0.5-1-1 0-0.6 0.4-1 1-1 0.5 0 1 0.4 1 1z"/>
								</g>
							</g>
						</g>
						<g id="&lt;Group&gt;">
							<g id="&lt;Group&gt;">
								<path id="&lt;Path&gt;" class="s1" d="m562.4 180.6h-13.6v-6.7c0-2.2 1.8-3.9 3.9-3.9h5.8c2.1 0 3.9 1.7 3.9 3.9z"/>
								<path id="&lt;Path&gt;" class="s1" d="m559.8 166.2c0 2.3-1.9 4.1-4.2 4.1-2.3 0-4.2-1.8-4.2-4.1 0-2.3 1.9-4.2 4.2-4.2 2.3 0 4.2 1.9 4.2 4.2z"/>
							</g>
							<g id="&lt;Group&gt;">
								<path id="&lt;Path&gt;" class="s1" d="m592.8 180.6h-13.5v-6.7c0-2.2 1.7-3.9 3.9-3.9h5.7c2.2 0 3.9 1.7 3.9 3.9z"/>
								<path id="&lt;Path&gt;" class="s1" d="m590.2 166.2c0 2.3-1.8 4.1-4.2 4.1-2.3 0-4.1-1.8-4.1-4.1 0-2.3 1.8-4.2 4.1-4.2 2.4 0 4.2 1.9 4.2 4.2z"/>
							</g>
							<g id="&lt;Group&gt;">
								<path id="&lt;Path&gt;" class="s6" d="m581.1 191h-20.8v-10.4c0-3.3 2.6-6 5.9-6h8.9c3.3 0 6 2.7 6 6z"/>
								<path id="&lt;Path&gt;" class="s6" d="m577.1 168.8c0 3.6-2.9 6.4-6.4 6.4-3.6 0-6.5-2.8-6.5-6.4 0-3.5 2.9-6.4 6.5-6.4 3.5 0 6.4 2.9 6.4 6.4z"/>
							</g>
						</g>
					</g>
					<g id="&lt;Group&gt;">
						<g id="&lt;Group&gt;">
							<g id="&lt;Group&gt;">
								<path id="&lt;Path&gt;" class="s5" d="m403.5 367.5l2.3 5.7h189l2.2-4.4z"/>
								<g id="&lt;Group&gt;">
									<g id="&lt;Group&gt;">
										<g id="&lt;Group&gt;">
											<path id="&lt;Path&gt;" class="s3" d="m585.5 343.7h-170.2v-100.8c0-3.9 3.1-7 6.9-7h156.4c3.8 0 6.9 3.1 6.9 7z"/>
											<path id="&lt;Path&gt;" class="s4" d="m577.4 336.2h-154v-92.8h154z"/>
										</g>
										<g id="&lt;Group&gt;">
											<path id="&lt;Path&gt;" class="s7" d="m415.3 343.7l-11.5 22.3c-1 2 0.4 4.4 2.7 4.4h187.8c2.3 0 3.7-2.4 2.7-4.4l-11.5-22.3z"/>
										</g>
									</g>
									<g id="&lt;Group&gt;">
										<path id="&lt;Path&gt;" class="s1" d="m577.4 243.4h-154v6.7h154z"/>
										<g id="&lt;Group&gt;">
											<path id="&lt;Path&gt;" class="s4" d="m430.3 246.8c0 1-0.8 1.9-1.8 1.9-1.1 0-1.9-0.9-1.9-1.9 0-1.1 0.8-1.9 1.9-1.9 1 0 1.8 0.8 1.8 1.9z"/>
											<path id="&lt;Path&gt;" class="s4" d="m438.3 246.8c0 1-0.8 1.9-1.9 1.9-1 0-1.9-0.9-1.9-1.9 0-1.1 0.9-1.9 1.9-1.9 1.1 0 1.9 0.8 1.9 1.9z"/>
											<path id="&lt;Path&gt;" class="s4" d="m446.3 246.8c0 1-0.9 1.9-1.9 1.9-1.1 0-1.9-0.9-1.9-1.9 0-1.1 0.8-1.9 1.9-1.9 1 0 1.9 0.8 1.9 1.9z"/>
										</g>
									</g>
								</g>
							</g>
							<g id="&lt;Group&gt;">
								<path id="&lt;Path&gt;" class="s5" d="m572 348.9h-145.6v-2h145.6z"/>
							</g>
							<g id="&lt;Group&gt;">
								<path id="&lt;Path&gt;" class="s5" d="m572 354.2h-145.6v-2h145.6z"/>
							</g>
							<g id="&lt;Group&gt;">
								<path id="&lt;Path&gt;" class="s5" d="m572 359.5h-145.6v-2h145.6z"/>
							</g>
							<path id="&lt;Path&gt;" class="s5" d="m514.1 362.5h-26.1v5h26.1z"/>
						</g>
						<g id="&lt;Group&gt;">
							<g id="&lt;Group&gt;">
								<g id="&lt;Group&gt;">
									<path id="&lt;Path&gt;" class="s1" d="m460 288.3h-23.6v-11.8c0-3.7 3-6.8 6.8-6.8h10c3.8 0 6.8 3.1 6.8 6.8z"/>
									<path id="&lt;Path&gt;" class="s1" d="m455.5 263.1c0 4-3.3 7.3-7.3 7.3-4 0-7.3-3.3-7.3-7.3 0-4 3.3-7.3 7.3-7.3 4 0 7.3 3.3 7.3 7.3z"/>
								</g>
								<g id="&lt;Group&gt;">
									<path id="&lt;Path&gt;" class="s1" d="m510.5 262.6h-43.2v-2.7h43.2z"/>
									<path id="&lt;Path&gt;" class="s1" d="m510.5 268.2h-43.2v-2.7h43.2z"/>
									<path id="&lt;Path&gt;" class="s1" d="m486 273.9h-18.7v-2.7h18.7z"/>
									<path id="&lt;Path&gt;" class="s1" d="m486 279.5h-18.7v-2.7h18.7z"/>
									<path id="&lt;Path&gt;" class="s1" d="m486 285.1h-18.7v-2.7h18.7z"/>
								</g>
							</g>
							<text id="%
" style="transform: matrix(1,0,0,1,491.072,284.199)" >
								<tspan x="0" y="0" class="t8">%
</tspan>
							</text>
						</g>
						<g id="&lt;Group&gt;">
							<path id="&lt;Path&gt;" class="s9" d="m485.8 325h-107.4v-28.1h107.4z"/>
							<g id="&lt;Group&gt;">
								<path id="&lt;Path&gt;" class="s10" d="m407.4 321.3h-20.9v-20.8h20.9z"/>
								<g id="&lt;Group&gt;">
									<path id="&lt;Path&gt;" class="s10" d="m478.3 306.5h-66.5v-2.9h66.5z"/>
									<path id="&lt;Path&gt;" class="s10" d="m478.3 312h-66.5v-2.9h66.5z"/>
									<path id="&lt;Path&gt;" class="s10" d="m478.3 317.5h-66.5v-2.9h66.5z"/>
								</g>
							</g>
						</g>
						<g id="&lt;Group&gt;">
							<g id="&lt;Group&gt;">
								<path id="&lt;Path&gt;" class="s9" d="m619.6 296h-101.2v-65h101.2z"/>
								<g id="&lt;Group&gt;">
									<g id="&lt;Group&gt;">
										<path id="&lt;Path&gt;" class="s1" d="m535.3 288h23.5l-11.8-30.9z"/>
										<path id="&lt;Path&gt;" class="s1" d="m558.2 288h28.9l-14.5-38z"/>
										<path id="&lt;Path&gt;" class="s3" d="m550.3 288h15.7l-7.8-20.7z"/>
										<path id="&lt;Path&gt;" class="s3" d="m579.2 288h23.5l-11.7-30.9z"/>
									</g>
									<g id="&lt;Group&gt;">
										<path id="&lt;Path&gt;" class="s4" d="m593.7 247c0 1.6-2.4 6.8-2.4 6.8 0 0-3.1-5.2-3.1-6.8 0-1.5 1.2-2.7 2.8-2.7 1.5 0 2.7 1.2 2.7 2.7z"/>
										<text id="04
" style="transform: matrix(1,0,0,1,590.959,248.198)" >
											<tspan x="-1.8" y="0" class="t11" dx="0 1 1" >04
</tspan>
										</text>
									</g>
									<g id="&lt;Group&gt;">
										<path id="&lt;Path&gt;" class="s4" d="m575.4 240.2c0 1.6-2.5 6.8-2.5 6.8 0 0-3-5.2-3-6.8 0-1.5 1.2-2.7 2.7-2.7 1.6 0 2.8 1.2 2.8 2.7z"/>
										<text id="03
" style="transform: matrix(1,0,0,1,572.63,241.41)" >
											<tspan x="-1.8" y="0" class="t11" dx="0 1 1" >03
</tspan>
										</text>
									</g>
									<g id="&lt;Group&gt;">
										<path id="&lt;Path&gt;" class="s4" d="m549.8 246.5c0 1.6-2.5 6.8-2.5 6.8 0 0-3.1-5.2-3.1-6.8 0-1.5 1.3-2.7 2.8-2.7 1.6 0 2.8 1.2 2.8 2.7z"/>
										<text id="01
" style="transform: matrix(1,0,0,1,547.02,247.713)" >
											<tspan x="-1.8" y="0" class="t11" dx="0 1 1" >01
</tspan>
										</text>
									</g>
									<g id="&lt;Group&gt;">
										<path id="&lt;Path&gt;" class="s4" d="m561 257.7c0 1.5-2.5 6.7-2.5 6.7 0 0-3.1-5.2-3.1-6.7 0-1.5 1.3-2.8 2.8-2.8 1.5 0 2.8 1.3 2.8 2.8z"/>
										<text id="02
" style="transform: matrix(1,0,0,1,558.185,258.879)" >
											<tspan x="-1.8" y="0" class="t11" dx="0 1 1" >02
</tspan>
										</text>
									</g>
								</g>
							</g>
							<path id="&lt;Path&gt;" class="s1" d="m518.4 225.5h101.2v5.5h-101.2z"/>
							<path id="&lt;Path&gt;" class="s4" d="m616.2 228.2c0 1-0.8 1.8-1.8 1.8-0.9 0-1.7-0.8-1.7-1.8 0-0.9 0.8-1.7 1.7-1.7 1 0 1.8 0.8 1.8 1.7z"/>
						</g>
						<g id="&lt;Group&gt;">
							<path id="&lt;Path&gt;" class="s12" d="m599.1 328.7h-97.5v-22.8h97.5z"/>
							<path id="&lt;Path&gt;" class="s13" d="m512.1 325h-3.1v-15.9h3.1z"/>
							<path id="&lt;Path&gt;" class="s13" d="m520 325h-3.1v-15.9h3.1z"/>
							<path id="&lt;Path&gt;" class="s13" d="m527.9 325h-3.1v-15.9h3.1z"/>
							<path id="&lt;Path&gt;" class="s13" d="m535.7 325h-3v-15.9h3z"/>
							<path id="&lt;Path&gt;" class="s13" d="m543.6 325h-3.1v-15.9h3.1z"/>
							<path id="&lt;Path&gt;" class="s13" d="m551.5 325h-3.1v-15.9h3.1z"/>
							<path id="&lt;Path&gt;" class="s13" d="m559.4 325h-3.1v-15.9h3.1z"/>
							<path id="&lt;Path&gt;" class="s13" d="m567.3 325h-3.1v-15.9h3.1z"/>
							<path id="&lt;Path&gt;" class="s9" d="m593.7 325h-21.1v-15.9h21.1z"/>
						</g>
					</g>
				</g>
				<path id="&lt;Path&gt;" class="s2" d="m420.5 272.4h-7.6v-7.6c0-0.8-0.6-1.4-1.4-1.4-0.8 0-1.5 0.6-1.5 1.4v7.6h-7.6c-0.8 0-1.4 0.7-1.4 1.5 0 0.8 0.6 1.4 1.4 1.4h7.6v7.6c0 0.8 0.7 1.5 1.5 1.5 0.8 0 1.4-0.7 1.4-1.5v-7.6h7.6c0.8 0 1.4-0.6 1.4-1.4 0-0.8-0.6-1.5-1.4-1.5z"/>
			</g>
		</g>
	</g>
</svg>