<?xml version="1.0" encoding="UTF-8"?>
<svg id="Layer_1" xmlns="http://www.w3.org/2000/svg" version="1.1" viewBox="0 0 750 500">
  <!-- Generator: Adobe Illustrator 29.0.0, SVG Export Plug-In . SVG Version: 2.1.0 Build 186)  -->
  <defs>
    <style>
      .st0 {
        fill: #5b049f;
      }

      .st1 {
        fill: #ff3e49;
      }

      .st2 {
        fill: #d4e6ff;
      }

      .st3 {
        fill: #00c2ff;
      }

      .st4 {
        fill: #00dade;
      }
    </style>
  </defs>
  <g id="OBJECTS">
    <g>
      <path class="st3" d="M190.5,187.3c0,.2,0,.4,0,.5,0,.8.2,1.6.6,2.2.4.7,1.1,1.2,1.8,1.3.2,0,.4,0,.6,0,.2,0,.3-.2.5-.4.5-.6.9-1.3,1.1-2.1s0-1.7-.4-2.3c-.2-.2-.4-.4-.7-.5-1-.2-.8.8-1.6.8-.1,0-.3,0-.4,0-.6-.2-1.3,0-1.6.5Z"/>
      <path class="st3" d="M199.5,194.8c.5.4,1.1.5,1.5.9.5.5.6,1.3.6,2,0,.8,0,1.6.1,2.4,0,.7,1.1.7,1.5,1.2.2.2.3.6.5.8.2.4.6.6,1,.8.6.3,1.4.5,2.1.6.5.1,1,.2,1.5.3.6.1,1.1.2,1.7.4.7.2,1.4.3,2.1.3.5,0,1,0,1.4-.2.4-.2.8-.6.9-1.1.1-.8-.7-1.5-1.4-2-.6-.4-1.2-.8-1.8-1.3-.5-.4-1.1-.8-1.7-.8-.7,0-1.4.2-2.1.4-.7.1-1.6,0-1.9-.6-.3-.6,0-1.3.2-2,.3-1.4-.7-3-2-3.4-1.3-.4-2.6-.3-3.9-.8-.2,0-.4-.1-.6-.1-.8,0-.1,1.8.3,2.1Z"/>
      <path class="st3" d="M219.1,203.7c-.4-1.5-2.6-1.7-2.9,0,0,.6.1,1.3.5,1.8.3.4.7.7,1.2.7.5,0,1-.4,1.2-.9.2-.5.1-1,0-1.5Z"/>
      <path class="st3" d="M216.8,201.1c1.3,0,.6-1.3,0-1.6-1.1-.5-1,1.5,0,1.6Z"/>
      <path class="st3" d="M160.1,233c-1.5-2.8.3-6.8-4.1-6.2-.6,0-1.6,0-2.2.1-.6.3-.7,1-.7,1.7,0,1.1,0,2.4.5,3.3.5.9,1.5,1.5,2,2.5.4.8.4,1.7.9,2.5.3.4.7.7,1.1.9.8.5,1.7.8,2.7,1,.5.1,1,.2,1.4,0,.7-.3,1.1-1.2.9-2s-.6-1.4-1.1-2c-.5-.6-1.1-1.2-1.4-1.8Z"/>
      <path class="st3" d="M169.9,244.7c0,.2.2.5.1.7s-.2.5-.5.5c-.1,0-.3,0-.4-.1-.5-.2-1.1-.5-1.6-.7-.8-.4-1.7-.8-2.1-1.6-.8-1.7,1-3.1,2.5-2.2,1.1.6,1.6,2.3,1.9,3.4Z"/>
      <path class="st3" d="M171.8,250.2c.1.4,0,.8.1,1.2,0,.4.2.8.6,1,.4.2.8,0,1.2.2.5.2.7.7.8,1.1,0,.5,0,1,.2,1.4.2.6.6,1,1.1,1.4.5.5,1,1,1.6,1.5,0,0,.2.2.3.2.3.1.6-.2.7-.5,0-.3,0-.6,0-.9.5.2,1.1-.5.9-1.1s-.7-.9-1.1-1.3c-.7-.5-1.3-1.1-1.9-1.7-.9-.9-.7-2.2-1.5-3.1-.3-.4-.7-.6-1.1-1-.3-.3-.6-.7-1-.9s-1-.2-1.3.1c-.6.8.5,1.6.6,2.3Z"/>
      <path class="st3" d="M141.5,199.1c-2-1.1-1.2-2.9-2.4-4.4-1.2-1.5-2.7,0-4,.3-.6.2-1.3,0-1.8.2-.3,0-.4.4-.4.7,0,.7.4,1.4,1,1.9.6.5,1.2.8,1.7,1.4,1,1,1.4,2.6,2.7,3.2.3.1.6.2.9.4,1.3.8.8,3.1,2,4,.5.4,1.1.4,1.7.1.5-.3.9-.9.8-1.4,0-.5-.3-1-.1-1.5,0-.3.3-.5.5-.8.6-1,.4-2.4-.5-3.1-.6-.5-1.3-.6-2-1Z"/>
      <path class="st3" d="M152.7,213.5c.4.2.9,0,1.3,0,.5,0,.9,0,1.4,0,.3,0,.6.2,1,.2.4,0,.7-.4.8-.8.4-1.6-1.2-2-2.5-1.9-.9,0-4.2,1.3-2,2.4Z"/>
      <path class="st3" d="M151.6,216.8c-.4-.7-.9-2.2-1.7-2.5-.7-.3-1.4-.1-1.3.8,0,.5,1,1.2,1.3,1.7.7,1.4-1.1,3.2-.4,4.6.3.5.9.9,1.5.8.7,0,1.3-.6,1.5-1.3s.2-1.4,0-2.1c-.2-.7-.5-1.4-.9-2.1Z"/>
      <path class="st3" d="M116.7,180c1.1.4,2.5,0,3.4.9.5.4.7,1.1,1.1,1.7.4.6,1.1,1,1.9,1.3.8.3,1.9.3,2.4-.4.3-.5.1-1.3-.3-1.7-.4-.5-1-.8-1.6-1.1-1-.6-2-1.2-2.7-2.1-.7-.9-1.1-2-2-2.8-.5-.4-1-.7-1.6-.8-1-.3-2.1.1-2.7,1-.5.8.2,1.6.5,2.3.3.9.6,1.5,1.6,1.8Z"/>
      <path class="st3" d="M134.2,186c-.5-.2-1.6,0-2-.5-.5-.7,0-1.2.6-1.4.6-.1,1.4-.2,2-.1.7,0,1.3.3,1.7.9.2.3.4.7.5,1,.1.4.3.8.1,1.1-.3.5-1.1.5-1.6.1-.5-.3-.9-.9-1.4-1.1Z"/>
      <path class="st3" d="M224,204.8c.9-.3.3-1.7-.2-2.1-.7-.4-2.4-.3-3,.2-.3.3-.4.8-.2,1.1.2.3.6.4,1,.3.4,0,.7,0,1.1,0,.4.1.8.5,1.3.4Z"/>
      <path class="st3" d="M226.3,202.6c0,.3.2.6.4.8.2.3.4.6.6,1,.3.5.6,1.1,1.2,1.4.2.1.6.2.8,0,.1-.1.2-.3.2-.5.1-.7.2-1.4,0-2-.2-.5-.7-.9-.8-1.4-.2-.5,0-1.1,0-1.6-.1-.6-.6-1.2-1.2-1.4-2-.6-1.2,2.8-1,3.8Z"/>
      <path class="st3" d="M234.8,201.9c.8-2-4-1.9-3.6,0,0,.4.3.7.6.9.2.2.4.3.5.5,0,.1,0,.3,0,.4,0,.3.4.6.7.7.3,0,.7-.1.9-.4.3-.5.1-1.1.4-1.5.1-.2.3-.3.4-.5Z"/>
      <path class="st3" d="M222.6,201.4c1.5.9,1.6-.8.5-1-.6-.1-1.2.6-.5,1Z"/>
      <path class="st3" d="M230.1,214.5c-.9-.7-.3-1.6.6-1.5.4,0,1.4.6,1.7.8.7.5,1.4,1.1,2.3,1.4.9.3,1.9.5,2.4,1.3.1.2.2.5.5.7.1,0,.3,0,.5.1.6.2.7,1,.4,1.5s-1.1.6-1.7.6c-.6,0-1.2-.4-1.7-.8-.2-.1-.3-.3-.5-.4-.1,0-.2,0-.3,0-.4,0-.9.1-1.3.2-.4,0-.9,0-1.2-.3-.5-.5-.4-1.3-.1-1.9,0-.2.2-.4.1-.6,0-.3-.3-.6-.6-.7-.3-.1-.6-.2-.9-.4Z"/>
      <path class="st3" d="M232.6,222.2c.6-.7.8-1.3.3-2.1-.4-.6-1-2-1.8-1.7-.5.2-.5,1.2-1.2,1.2-.3,0-.6-.1-.9,0-.3,0-.4.3-.5.6-.3.8,0,1.8.7,2.3.2.1.4.2.5.3.2.1.3.3.5.5.4.3,1,.3,1.4,0,.4-.2.8-.6,1.1-1Z"/>
      <path class="st3" d="M232.6,212.5c.7.6,1.4,1.1,2.2,1.6.3-.4.3-.9,0-1.4-.2-.4-.5-.8-.9-1.1-.2-.2-.4-.4-.6-.6-.3-.3-.6-.5-.9-.6-1.6-.4-.2,1.9.2,2.2Z"/>
      <path class="st3" d="M229.4,210.7c-.2-.3-.2-.6-.5-.8,0,0-.2-.1-.2-.2,0-.1,0-.3.1-.3,0,0,0,0,.1,0,.1,0,.2.1.3.2.2,0,.3.1.5.2.3,0,.6.3.8.5.1.2.2.2.2.4,0,.2,0,.4-.2.5-.4.1-.9-.1-1.2-.5Z"/>
      <path class="st3" d="M252.5,235.9c-.5-1.6-4.9-2.4-4.5-.3,0,.5.5.9.8,1.3.3.4.4,1.1,0,1.4-.5-.2-1-.5-1.5-.7.2-1.2-.3-2.4-1.2-3.2-.8.3-1.4.6-1.6,1.5,0,0-1.4.5-1.6.9-.3.7.6,1.1,0,1.8-.6.7-1.5.8-2.3,1.2s-1.4,1.5-.8,2.1c.5.6,1.6.3,2.2.8.2.2.4.5.6.6.6.4,1.4,0,2.1-.4.6-.4,1.5-.7,2.1-.2.2.2.4.5.6.7.4.2.9,0,1.4.2.6.3.6,1.2.4,1.9s-.2,1.6.4,1.8c.2,0,.4,0,.6.1.5.2.6.9.6,1.4,0,.8,0,1.5.1,2.3,0,.6.1,1.4.6,1.7.2.2.5.2.8.3,1.8.4,3.5,1,5,2,.5.3,1.1.7,1.6.5.4-.1.6-.4.9-.6.6-.3,1.3-.1,1.7.4.4,0,.6-.5.4-.9-.1-.4-.5-.6-.7-.9-.7-.9-.5-2.4.4-3.1.3-.3.7-.4,1.1-.7.3-.3.5-.8.2-1.1-.2-.3-.6-.3-.9-.4-1.4-.1-2.8-.2-4-.7-1.3-.5-2.5-1.3-3-2.6-.8-2.1.3-4.8-1.2-6.4-.4-.4-.9-.7-1.2-1.3-.2-.4-.2-.9-.3-1.4Z"/>
      <path class="st3" d="M281.1,249.7c-1.7-1.2-3.5-1.5-5.6-1.4-2.1.2-2.3,1.5-2.4,3.4,0,.6-.1,1.1-.2,1.7-.2,1.3-.4,2.6-.6,3.9,0,.2,0,.5,0,.7.1.2.4.3.6.4,1.1.2,2.3-.2,3-1.1.4-.5.9-1.3,1.5-1.1.5.1.7.7.8,1.2.2.5.6,1,1.1.8.5-.2.5-1,.9-1.2.3-.2.6,0,.9-.2.4-.2.5-.7.5-1.2s0-.9.2-1.3c.1-.2.4-.4.5-.6.5-.6.6-1.5.3-2.3-.3-.7-.9-1.3-1.6-1.7Z"/>
      <path class="st3" d="M270.9,253.6c.7-.2,1.4-1.4.8-2-.3-.2-.7-.3-1-.1-.6.2-1.6,1-1.2,1.7.2.3.6.4.9.4.2,0,.4,0,.5,0Z"/>
      <path class="st3" d="M265.4,253.5c.8.2,2.6-.4,1.4-1.4-.7-.6-1.5,0-1.9.7,0,0-.1.2-.1.3,0,.2.3.4.5.4Z"/>
      <path class="st1" d="M479.4,269.9c0,.3.2.5.3.7.3.4.7.6,1.2.8.5.2,1,.4,1.4.2.2,0,.3-.2.5-.4.6-.6,1.3-1.2,1-2.2-.3-.9-1.3-1.1-2.2-1.3-1.8-.5-2.8.4-2.2,2.3Z"/>
      <path class="st1" d="M476,279.3c.2-2.1-1.5-2.2-3.2-2.1-1.5,0-2.8.8-2.7,2.5,0,.6.5,1.2.5,1.8,0,.6-.2,1.1-.4,1.6s-.3,1.2,0,1.6c.1.2.3.4.4.6.2.4.1,1,.5,1,.1,0,.2,0,.4,0,.3,0,.6-.2.9-.3.1,0,.3,0,.4-.2.1-.1.1-.3.2-.4.3-1.2,1-2.4,1.9-3.3.2-.2.5-.4.6-.7.5-.7.6-1.5.7-2.3Z"/>
      <path class="st1" d="M481.6,278.2c.1-1.4,0-4.9-2.4-4.3-1.4.3-1.7,2.4-1.8,3.5,0,1.6-.3,3.3-.9,4.8-.4,1-.9,2-1.4,3-.4.7-.8,1.5-1.2,2.2-.2.3-.4.5-.4.8,0,.3,0,.6.2.9.5,1.1,1.9,1.7,3,1.3,1.6-.5,1.2-1.5,1.6-2.8.1-.5.5-1,1-1.1.6-.2,1.2.2,1.8,0,.2-.1.4-.3.5-.6.7-1.3.1-3-1.1-3.7-.3-.1-.5-.2-.7-.5-.4-.5-.3-1.2,0-1.8,0-.1,0-.3.2-.4.3-.3.9,0,1.3-.2.4-.1.5-.7.6-1.1Z"/>
      <path class="st1" d="M467.1,286.4c.4-1.8-2.6-6.3-3.7-3.4-.2.4,0,.8-.2,1.2,0,.3-.3.6-.4.9-.1.3-.2.6,0,.9,0,.2.3.3.4.4.6.4,1.1.8,1.7,1.2.2.1.3.2.5.2,0,0,.2,0,.3,0,.6-.2,1.3-.6,1.4-1.2Z"/>
      <path class="st1" d="M446.6,295.1c.2-.9.3-2.9-1-3.1-1.2-.2-1.6,1.6-1.3,2.4,0,.2.2.4.2.6.2.6.2,1.4.2,2,0,1.2,0,2.6.6,3.6.5-.8.4-1.8.6-2.7.1-1,.5-1.9.6-2.8Z"/>
      <path class="st1" d="M482.1,232c-.6-1,.2-1.7-1.2-2.1-.8-.2-1.9,0-2.6.2-.4.1-.8.3-1.2.5-.9.6-1.3,1.8-1,2.8.1.4.3.7.4,1.1,0,.3,0,.6,0,.8.2.5,1,.6,1.5.3.5-.3.7-.9,1-1.4.2-.5.5-1.1,1-1.4.3-.2.7-.2.9.1,0,0,0,.2,0,.3,0,.6-.1,1.1-.5,1.6-.2.2-.4.4-.4.7,0,.2,0,.3.2.5.3.4,1,.6,1.5.4s.9-.7.9-1.3c0-.3-.1-.7,0-1,.4,0,.9.1,1.2.5.2.2.2.5.4.7.2.2.5.3.7.5.3.3.3.7.3,1.1,0,.4.2.8.5.9.2,0,.3,0,.5,0,.7-.3,1.1-1.2.7-1.8-.3-.6-1-1-1.1-1.6,0-.5.3-1,.4-1.5.2-.7-.1-1.5-.7-1.9-.6-.4-1.4-.4-2,0-.5.4-.9,1.1-1.6,1Z"/>
      <path class="st1" d="M480,238.2c-.7.7-1.3,3.4.4,2.2.6-.4,1.5-2.4.3-2.6-.3,0-.6.1-.8.3Z"/>
      <path class="st1" d="M490.9,241.9c1.3-2.3-1.9-3.3-3.4-2.6-.1,0-.3.1-.3.3,0,.1,0,.3,0,.5.5,1.1,2.5.7,3.1,1.7,0,.1.2.3.3.4.1,0,.3-.1.3-.2Z"/>
      <path class="st1" d="M465.2,221.6c.4-.5.3-.9.9-1.1.3-.1.8.2,1.1,0,.6-.4.4-1.1,0-1.6-.5-.6-3.5-.5-3.9.3,0,.1-.1.3-.2.4-.2.2-.5,0-.7,0-.4,0-.8.2-1,.6s-.4.7-.5,1.1c-.2.5-.4,1-.5,1.4.4.2.9,0,1.2-.3.3-.3.7-.6,1.1-.7.5-.1.9,0,1.4.2s1,.1,1.3-.3Z"/>
      <path class="st2" d="M504.7,236.8c-1.1-.5-2.2-1-3.4-1-1.3,0-3.6.4-4.5,1.4-.9.9-.6,2.6-.4,3.8,0,.2,0,.4.2.5.1.2.3.3.5.4,1.3.7,2.9.5,4.1-.3.5-.4.9-.9,1.5-1,.9-.2,1.7.6,2.6.6,1.5,0,2.8-1.8,4.2-1.2.4.2.7.5,1.1.8,1.4.9,3.2-.2,4.9-.3.3,0,.6,0,.8.2.1.1.2.3.2.5.3,1.3.6,2.6.9,4,.2.7.3,1.4.7,1.9.4.6,1.1.9,1.8.7.7-.2,1.1-1.1,1-1.9s-.5-1.4-.9-2.1c-.5-.7-1-1.7-.5-2.4.4-.5,1-.6,1.6-.6,1.3,0,2.8-.1,3.7-1.1.1-.2.3-.3.3-.6,0-.4-.5-.6-.9-.7-2.4-.6-5-.7-7.5-.5-1.3.1-2.5.3-3.8.2-.8,0-1.9.5-2.4-.4-.2-.4-.1-.9-.5-1.1-.5-.3-.9.5-1.4.6-.5.1-.9-.4-1.4,0-.2.1-.3.3-.5.4-.2,0-.5,0-.7,0-.4-.2-.9-.4-1.3-.6Z"/>
      <path class="st2" d="M543.1,231.8c-.5-1.3-1.3-1.3-2.7-1.6-.6-.1-2.2-.4-1.6.7.2.4.8.4,1.1.8.4.5-.1,1.2-.7,1.4-.6.2-1.2.3-1.6.8-.3.3-.4.8-.4,1.3,0,.9,0,1.9.7,2.5.9.7,2.2,0,3.4.1.6,0,1.2.4,1.9.3.7,0,1.3-.4,2-.3.4,0,.8.4,1.2.5.7.2,1.6,0,2-.7s.5-1.5,0-2.1c-.7-1-2.1-1.1-3.2-1.6-.9-.4-1.6-1.2-2-2Z"/>
      <path class="st2" d="M544,190.3c-.2-1.5,2.3-1.4,2.5-2.8,0-.2,0-.5,0-.7,0-.5.3-.9.4-1.3.1-.5,0-1-.5-1.2-.3,0-.7,0-.9.3-1.8,1.1-3,2.5-3.8,4.5-.2.5-.3,1-.6,1.4-.2.4-.6.7-.8,1.1-.5.6-.8,1.4-.9,2.2,0,.8,0,1.7-.4,2.4-.3.4-.7.7-1,1.1-1,1.2-.8,3.2.4,4.2.3.2.6.4.8.6.6.6.7,1.6.5,2.5-.2.9-.6,1.7-.6,2.6-.1,1.3.5,2.6,1.6,3.4.2.2.5.3.6.6.1.2.1.4.2.6,0,1.3-.3,2.6-.4,3.9s0,2.7.8,3.7c.6.7,1.5,1.2,2.1,2,.3.4.4.8.6,1.2,1,2,3.2,3,4.7,4.6.6.7,1.4,1.6,2.3,1.3.8-.3.8-1.6.2-2.2-.5-.7-1.4-1-2-1.6-.7-.6-1.2-1.4-1.6-2.1-.7-1.1-1.3-2.2-2-3.3-.6-.9-1.1-1.9-1.3-3-.2-1.6.6-3.1.4-4.7-.1-.9-.5-2,.2-2.6.6-.5,1.4-.2,2.1.1.8.4,1.7.8,2.5,1.2.5.2,1,.4,1.4.3.3,0,.7-.3,1-.2.3,0,.5.2.7.4,1.4,1,3.1,1.6,4.9,1.6,0,0,.2,0,.3,0,.4-.1.4-.7.2-1-.2-.3-.6-.5-1-.6-.6-.2-1.2-.3-1.8-.6s-1-.9-1-1.5c0-.4.1-.8,0-1.1-.1-.5-.6-.8-1-.9-.5-.1-1,0-1.5-.1-.7,0-1.3-.2-2-.4-.5-.2-1-.5-1.3-.9s-.3-1.1,0-1.5c.7-.7,2.1-.1,2.8-.8.2-.2.3-.6.5-.8.8-1.1,2.8-.7,3.4-1.9.2-.3.2-.7.2-1.1,0-1.4,0-2.8,0-4.2,0-.3,0-.5,0-.8-.2-.7-1-1.1-1.7-1.1-.7,0-1.4.2-2.1.5-1.3.5-2.6,1.2-3.7,2-1,.8-1.8,2.1-1.1,3.2,0,.1.2.2.2.4.1.3-.2.7-.5.8-.3.2-.7.2-1,.3-.6.2-1.1.7-1.3,1.4-.1.5,0,.9-.2,1.4-.3.8-1.2,1.2-2,1-.8-.2-1.3-1.1-1.1-1.9.2-.9,1.2-1.4,1.9-2,.9-.7,1.7-1.6,2.3-2.6.5-.8,1-1.7,1.1-2.7,0-1-.3-2.1-1.1-2.6-.6-.4-1.5-.6-1.6-1.4Z"/>
      <path class="st2" d="M555.3,181.1c-.6-3.3-4.6-.7-5.6.9-.2.3-.3.5-.6.7-.3.2-.8,0-1.1.3-.4.3-.4.8-.2,1.2.1.4.4.8.5,1.2.2.8-.2,1.7.3,2.4.4.5,1.2.5,1.8.3.6-.2,1.2-.6,1.8-.7.4,0,.8,0,1.1-.2.5-.3.8-.9,1-1.5.2-.7.5-1.5.7-2.2.3-.8.5-1.6.3-2.4Z"/>
      <path class="st2" d="M542,223.4c-2.3-.3-.3-2.3-.8-3.6-.5-1.6-2-1.1-3.1-.7-.5.2-.7,0-1.2,0-.4,0-.7.4-.8.8s0,.8.2,1.2c.6.2,1.1.8,1.5,1.3.2.3.4.6.4,1,0,.5-.6,1-.4,1.5.1.5.9.6,1.4.6.6,0,1.2-.2,1.6.2.2.2.3.5.5.8.3.4.9.4,1.4.2.6-.2,1.2-.7,1.3-1.4.2-.6-.1-1.4-.7-1.7-.4-.2-.9-.2-1.3-.3Z"/>
      <path class="st2" d="M535.6,220.1c1.2-2.5-2-2.8-2.4-.9-.2.7.3,1.4.5,2.1,0,.1,0,.3.2.3,0,0,.1,0,.2,0,.4,0,.8-.2,1-.5.2-.3.4-.7.5-1.1Z"/>
      <path class="st2" d="M535.7,223.2c-.9-.5-1.4,1.1-.9,1.7.9,1.1,2-1.1.9-1.7Z"/>
      <path class="st2" d="M538,203.4c-.3-1.3-2.5-.5-1.9.5.1.2.4.3.5.5.3.2.4.6.3,1,0,.2,0,.3,0,.5,0,.3.4.6.7.6.3,0,.6-.3.7-.7s0-.7-.3-.9c-.1-.1-.2-.2-.3-.4-.2-.3,0-.7.3-1Z"/>
      <path class="st2" d="M536.6,209.4c-.3,1,1.2,2,1.6.8.3-.9-1.2-2-1.6-.8Z"/>
      <path class="st2" d="M539.7,213.1c.5-2.2-3.8-1.1-1.4,1.8.2.2.5.5.8.4,0-.8.5-1.4.7-2.2Z"/>
      <path class="st2" d="M541.6,184.5c.6.7,2.4,1.1,1.6-.3-.3-.6-1.2-.5-1.6,0,0,0-.1.1,0,.2,0,0,0,.1,0,.2Z"/>
      <path class="st2" d="M536.7,260.1c-.5-1.6-5.8-.4-3.3-2.1,1.7-1.2-3.1-2.7-3.7-2.9-1.9-.4-3.9-.2-5.7.5-1,.5-2.2,1.1-3.2.6-.2-.1-.5-.3-.7-.4-.8-.3-1.6.5-1.7,1.3,0,.8.3,1.6.7,2.3.4.7.9,1.4,1,2.2,0,.5,0,.9.3,1.3.2.3.5.5.8.6,1.6.8,3.5,1,4.9,2.1.4.3.8.7,1.3.9.9.3,1.9,0,2.7-.6s1.5-1.2,2.4-1.5c.9-.3,2-.2,2.8-.8.8-.5,1.1-1.5,1.4-2.5.1-.4.2-.8.1-1.2Z"/>
      <path class="st2" d="M558.2,251.8c-2.9.6-5.7.3-8.6.6-1.3.1-2.5.6-3.6,1.3,0,0-.2.1-.3.1-.2,0-.3-.1-.4-.2-.5-.4-1.2-.5-1.7-.1-.5.4-.6,1.2-.1,1.6.1.1.3.2.5.3,1,.8-.6,1.9-.3,2.8,0,.4.4.6.5,1,.3.6.3,1.4-.1,2,1.4.2,2.2-1.5,2.5-2.9,0-.5.2-1.1.6-1.4.5-.3,1.1,0,1.5.3.4.4.6.9.9,1.4,1.2,1.8,3.8,2.6,5.7,1.7.4-.2.8-.4,1-.8.3-.6.3-1.5,1-1.6.6,0,.8.7,1.3,1.1.2.2.5.2.7.3,1.6.5,3.3,1,4.9,1.4.7.2,1.4.4,2,0,.4-.2.6-.7.9-1,1.2-1.3,3.6-.9,4.4.6.1.3.2.5.4.8.1.1.3.2.5.3,1.1.6,2.3,1.1,3.5,1.6,1.6.6,3.3,1.2,4.8,2.1,1,.6,2.4,1.4,3.2.5.7-.8,0-2.1.5-3.1.2-.5.7-1,.6-1.5,0-.3-.3-.5-.6-.7-.8-.6-1.8-1-2.8-1.2-.2-2.8-2.8-5.3-5.7-5.3-1.2,0-2.5.4-3.7.2-1.4-.2-2.5-1.1-3.7-1.9-1.2-.7-2.6-1.3-3.9-.8-.8.4-1.4,1.1-2.1,1.6-.8.5-2,.4-2.3-.4,0-.2,0-.4-.2-.6-.3-.6-1.1-.5-1.7-.3Z"/>
      <path class="st2" d="M548,265.2c1.6,0,2.7-4.2.7-4.1-.7,0-1.3.5-1.8,1.1-.1.1-.3.3-.4.4-.3.2-.6.2-.8.3-1,.3-1.7,1.4-1.5,2.4.2.4.8.3,1.1,0s.7-.5,1.1-.6c.6,0,1.1.4,1.6.4Z"/>
      <path class="st2" d="M542.6,256c2.2,1.1-1.7,3.1-2.2,3.4-.3.2-.5.4-.9.4-.4,0-.7,0-1-.4-.2-.3-.3-.7,0-1,.5-.7,1.7-.3,2.4-.9.3-.2.4-.6.5-.9s.4-.6.8-.6c.2-.4,0-.2.3,0Z"/>
      <path class="st2" d="M534.6,267.2c1.1.3,1.4-1.1,1-1.8-.4-.7-1.3-.3-1.6.2-.3.6,0,1.4.7,1.6Z"/>
      <path class="st2" d="M616,288.8c.4-1.2.5-3.3-.9-4-1.1-.5-2.8.4-2.7,1.6,0,.3.1.6.2.9,0,1.4-1.3,2.4-1.7,3.7,0,.3-.1.7-.2,1,0,.8-.2,1.6-.2,2.4,0,.3,0,.7.2.9.4.3.9-.2,1.1-.6.6-1.2,1.1-2.5,2.1-3.2.3-.2.7-.4.9-.6.6-.5.9-1.3,1.2-2Z"/>
      <path class="st2" d="M608.8,293.3c.3-1.1,1.2-3.3.9-4.4,0-.3-.2-.6-.4-.8-.5-.4-1.2.2-1.5.6-.2.4-.2.8-.2,1.3,0,.6,0,1.2,0,1.8,0,.7,0,1.6.7,1.9,0,0,.2,0,.2,0,.2,0,.3-.2.3-.4Z"/>
      <path class="st2" d="M596.5,311.5c.8.2,1.2,1.2,2,.8.5-.3.7-1.2.6-1.7-.5-1.9-3.4-2.6-5-1.8-1.6.7-2.2,2.7-3.7,3.6-.4.2-.8.4-1.1.7-.5.5-.5,1.4-.9,2-.4.8-1.4,1.3-1.6,2.2-.2.8.4,1.7.2,2.5,0,.4-.4.7-.4,1.1,0,.7.7,1.2,1.4,1.2.7,0,1.3-.3,1.9-.7,1.3-.7,2.6-1.5,3.7-2.5,1-1.1,1.7-2.6,1.4-4.1-.2-1-.8-2.2-.2-3,.4-.5,1.1-.6,1.7-.4Z"/>
      <path class="st2" d="M587.4,324.7c.1,0,.3-.1.4-.2.4-.2.9-.6.7-1,0-.2-.3-.3-.6-.4-3-1.2-4.5-.4-6.2,2.4-.1.2-.3.5-.1.7.1.2.3.2.5.2,1.2,0,2.3-1.1,3.5-1.1.7,0,1.2-.2,1.7-.5Z"/>
      <path class="st2" d="M636,291.7c-.4-.6-1.2-.9-1.2-1.7,0-.2,0-.4.1-.6.4-1.3-.9-3.2-2.4-2.6-1.1.4-1,1.9-1.6,2.8-.3.4-.7.7-1.2.8-.7.1-1.4,0-1.9.3-.6.5-.3,1.6.4,1.7.5.1,1,0,1.4.1,1.1.6.2,2.4-1,2.3-.4,0-.9-.3-1.2,0,0,.1-.1.3-.1.4-.2,2.2-.5,4.3-.7,6.5-.2,1.5-.3,3.1.3,4.5.3.6.7,1.1,1.3,1.2,1,.2,1.7-.7,2.3-1.5.7-1,1.4-2.1,2.1-3.2.8-1.2,1.6-2.4,2.4-3.6.7-1,1.4-2.3.8-3.3-.3-.6-1.1-1.2-.8-1.8.1-.4.6-.6.8-1,.4-.6.3-1,.1-1.4Z"/>
      <path class="st2" d="M636.4,300.5c.8,1.4,1.9-.9,1.7-1.7-.1-.4-.6-.8-1-.7-.9,0-1,1.9-.7,2.5Z"/>
      <path class="st2" d="M636.1,300.7c1.3.6.2,3.7-.4,4.5-.4.5-1.1.9-1.6.5-.3-.3-.3-.8-.3-1.2,0-.2,0-.4.2-.6.1-.1.3-.2.5-.3.4-.3.4-1,.3-1.5,0-.3-.1-.6-.2-.9-.2-.8.7-1,1.5-.6Z"/>
      <path class="st2" d="M568.9,322.9c2.9.5,2-4.9-.9-5.1-.7,0-1.4.4-1.7,1s-.2,1.5.3,2c.2.3.6.4.8.7.5.5.8,1.3,1.5,1.4Z"/>
      <path class="st2" d="M553.3,311.1c2.2.8,2.8-1.8.9-2.8-.5-.3-1.3,0-1.8.2-.2,0-.5.2-.7.4-.3.4-.2,1,.2,1.4.3.4.8.6,1.3.8Z"/>
      <path class="st2" d="M545.1,325.3c-.8,0-5.8,1.3-5.9-.4,0-2.5,2.8-2.8,4.5-2.8.4,0,.7,0,1.1,0,1.1,0,2.1.6,3,1.2.9.6,1.8,1.1,2.5,1.8,0,.7-.7,1.2-1.4,1.3s-1.4-.2-2-.4c-.6-.3-1.3-.6-2-.6Z"/>
      <path class="st2" d="M522.8,316.5c-1.9.9-3.4-.5-5.2.3-1.4.7-2.2,2.3-2.2,3.8,0,.4,0,.8.4,1,.2.1.4.1.6.1,1.4,0,2.6-1.2,4-1.3.6,0,1.1,0,1.7.2.7.2,1.4.3,2.1.5.2,0,.4,0,.6,0,.5,0,.8-.5,1-.9.5-.8,1.1-1.6,2-1.8.7-.2,1.5,0,2.3,0,.8,0,1.6-.6,1.5-1.4,0-.5-.6-.9-1-1-.5-.2-1-.2-1.5-.5-.5-.3-.9-.8-1.5-1-.8-.3-1.7,0-2.4.5-.7.5-1.3,1.1-2.1,1.5Z"/>
      <path class="st2" d="M590.7,270.8c.2.1.5.3.7.1,0,0,.1-.2.1-.3.2-.9-.6-2.8-1.5-3.1-2.6-.7,0,2.7.7,3.2Z"/>
      <path class="st2" d="M591.5,267.9c1.5,2,1.4-2.9-.4-1.6-.6.4.1,1.2.4,1.6Z"/>
      <path class="st2" d="M595.3,274.9c.5-.4-.2-2-.6-2.3-.3-.3-1-.1-1,.3,0,.5.8,2.7,1.6,2Z"/>
      <path class="st2" d="M538.9,316.3c1.4-.6,1.1-2.3-.5-2.5-1-.1-2,.9-1.7,1.9,0,.3.3.5.3.8,0,.3,0,.5-.1.8,0,.3.1.6.4.6.4-.6.9-1.1,1.6-1.4Z"/>
      <path class="st2" d="M560.4,324.7c.2.7-4.4.7-3.9-1.1.5-1.9,3.5,0,3.9,1.1Z"/>
      <path class="st0" d="M577.3,215.4c-.8.4-1.5,1.2-2.5,1.3-.5,0-1,0-1.2.4-.1.3.1.7.4.8s.7,0,1,0c1,0,2.1.2,3,.6.3.2.7.4.7.8,0,.4-.5.6-.8,1-.4.6.2,1.5,1,1.5s1.4-.3,2-.7,1.3-.8,2-.7c.4,0,.8.2,1.2,0,.2-.1.4-.3.5-.5.5-.6,1.4-.8,2.2-.7s1.6.5,2.3.9c1-.4,1.4-1.6,1.2-2.6-.2-1-1-1.8-1.9-2.3s-2-.6-3-.6c-.8,0-1.6-.2-2.4,0-.4,0-.7.2-1,.5-.4.7.4,1,.3,1.7,0,.2-.3.4-.5.3-.9-.1-1.1-1.3-1.8-1.8-.9-.6-2-.4-2.8,0Z"/>
      <path class="st0" d="M578.2,239.5c0,.2-.1.5-.2.7-.7,1.5-2,2.3-3.7,1.9-.8-.2-1.5-.5-2.2-.7-1.1-.3-2.3-.2-3.4-.7-.1,0-.3-.1-.4-.2-.2-.2-.1-.6,0-.8.2-.2.5-.4.7-.5.8-.4,1.7-.8,2.5-1.2.4-.2.8-.4,1.3-.5.7-.1,1.4,0,2-.2.4-.1.7-.4,1-.7.3-.2.8-.4,1.1-.2,1,.5,1.4,1.9,1.2,3Z"/>
      <path class="st0" d="M568.6,230.7c.7.2,2.3.7,3,.1.2-.2.3-.6,0-.8-.7-.7-2.4-.5-3.2,0-.1,0-.2.2-.2.3,0,.2.2.3.4.4Z"/>
      <path class="st2" d="M565.8,215.3c-1-.4-1.9-1.9-2.9-1.9-1.3,0-.8,1-.1,1.5.4.3.7.5,1.1.8.3.2.6.4.8.6.5.5.7,1.3,1.3,1.7.2.1.5.2.7,0,0,0,.1-.2.2-.3.3-.7.4-1.6-.2-2.1-.2-.2-.5-.3-.8-.4Z"/>
      <path class="st0" d="M639.2,229.5c.3-.6.3-1.6-.3-2.2-.5-.4-1-.8-1.6-1-.6.4-1.2.7-1.1,1.6.2.7.8,1.3,1.3,1.8.7.6,1.3.3,1.6-.2Z"/>
      <path class="st0" d="M648.3,223.7c-.7-.3-4.5-2.1-4.4,0,0,.8,1.4,1.1,1.9,1.5.3.3.6.7.9,1,.3.3.7.6,1.2.5s.8-.6.6-1c.4-.3.9,0,1.1.5.4.8.3,1.8.5,2.8s.9,1.9,1.8,1.8c.4,0,.7-.3,1.1-.2.6.1.8,1,1.4,1,.4,0,.7-.3,1-.6.7-.7,1.5-1.1,2.5-1.2.3,0,.7,0,.9-.3.3-.4-.1-1-.6-1.1-.5-.1-1,0-1.5,0-1-.1-1.8-.9-2.4-1.7s-1-1.8-1.8-2.5-1.9-1.1-2.8-.6c-.2,0-.3.2-.5.3-.3,0-.6,0-.8-.2Z"/>
      <path class="st0" d="M651.3,238.5c-1-.4-6.6-.8-6.7-1.8,0-.5.7-.9,1.1-1,1.3-.6,3.2-.3,4.6-.3,1.8,0,3.8.2,5.4.9.6.3,1.2.7,1.9.8,1.1.3,2.3,0,3.4,0,1.1-.1,2.4,0,3.3.7.3.3.6.8.3,1.2-.1.2-.3.2-.5.3-.9.3-1.7.6-2.6.8-1,.3-2.1.7-3.2.7-2.5,0-4.7-1.4-7-2.3Z"/>
      <path class="st2" d="M496.7,340.5c0,.1-.2.3-.3.4-.2.2-.4.5-.7.6-.3.1-.7,0-.8-.2-.2-.3,0-.6-.1-.9-.3-2.4-4.8.2-5.7.7-.5.3-1,.6-1.3,1.2-.2.4-.2.8-.2,1.2-.2.9-.8,1.5-1.3,2.3s-.7,1.8-.2,2.4c.8,0,1.6,0,2.5,0,.1,0,.2,0,.4,0,.5.2.3,1-.2,1.2s-1,.1-1.5,0c-.9,0-1.9,0-2.8.5-.6.3-1.2.9-1.1,1.5.1.7,1,1,1.7,1.1,2.4.5,5.3.9,7.2-.7.7-.6,1.4-1.6,2.4-1.6.9,0,1.7.9,2.5.6.4,0,.7-.4.9-.7,2.5-2.5,4.9-4.9,7.4-7.4.2-.2.4-.4.6-.7.3-.8-.3-1.6-.7-2.4-.4-.8-.4-2,.4-2.2.3,0,.6,0,.9,0,.7,0,1.4-.7,1.3-1.4,0-.7-.8-1.3-1.5-1.2-.5,0-1,.4-1.4.1-.4-.2-.3-.8-.7-1.1-.4-.4-1.1-.1-1.6.2-1.2.7-2.4,1.4-3.7,2.1-.5.3-1,.6-1.3,1.1-.6.9-.6,2-1.1,2.9Z"/>
      <path class="st2" d="M485.3,356.8c.4-.7-1-2.5-1.7-2.5-.8,0-1.7,1.2-2.2,1.7-.8.8-1.8,1.6-2.9,1.5-.6,0-1.4-.3-1.8.1-.2.2-.3.5-.4.8-.1.4-.2.9-.2,1.4,0,.5.4.9.8,1,.5.1,1-.1,1.3-.5.4-.3.7-.7,1.1-1,.7-.4,1.5-.4,2.3-.5.8,0,1.6-.3,2-1,0-.1.1-.2.2-.3.4-.4,1.2-.2,1.5-.7Z"/>
      <path class="st2" d="M505,327c1.6,0,3.8-1.2,2.5-3.1-1.6-2.5-4.7-.1-6.7-.4-.7-.1-1.5-.6-2.1-.3-.4.2-.6.6-.9.9-.2.4-.5.7-.7,1.1-.3.6-.7,1.2-.8,1.8,0,.5.1,1.2.6,1.3.5,0,.9-.4,1.3-.6.8-.5,1.9-.4,2.8-.5.5,0,.9-.2,1.3-.2.9,0,1.8,0,2.6.1Z"/>
      <path class="st2" d="M493.9,328.7c.4-.8,3.3-4.4,1.6-4.8-.9-.2-1.7,1.7-2.5,1.8-.2,0-.4,0-.6,0-.6,0-1.2.4-1.4,1s0,1.3.6,1.7c.3.2.6.3.8.5.1.2.2.4.4.5.2.2.5.1.7,0,.2-.2.3-.4.5-.6Z"/>
      <path class="st2" d="M486.9,328.2c.6-1.3,2.1-2.1,3.3-2.9.2-.1.4-.2.5-.4.2-.4,0-1-.5-1.2-1.1-.5-2.5,0-3.4.6-.2.2-.4.4-.7.4-.3,0-.7,0-1-.2-.7-.3-1.4-.6-2.1-.6-1.1,0-2.2.6-3.1,1.1-.2.1-.5.3-.6.6-.2.4,0,1,.4,1.2s.9.3,1.4.3c.3,0,.6,0,.8,0,.3,0,.5.3.5.6,0,.2-.1.3-.2.4,0,.3.1.6.4.8.3.2.6.2.9.3.6,0,1.2,0,1.8,0,.4,0,.8,0,1.1-.3.2-.2.4-.6.5-.9Z"/>
      <path class="st2" d="M471.7,328.9c-.7.2-1.4.3-2.1.3-.9,0-1,0-1.6-.5-.3-.3-.9-.2-1.3-.4,0,0,0,0-.1,0,0,0,0-.1,0-.2,0-.5-.3-1.1-.8-1.3-1-.3-1.8,1.1-2.8,1.1-.7,0-1.4-.6-2-.2-.4.3-.5.9-.8,1.3-.6.7-1.7.4-2.5,0-.2,0-.5-.2-.7-.4-.3-.3-.5-.7-.9-1-.7-.5-1.8,0-2.6-.5-.5-.3-.8-1-1.3-1.4-.8-.5-1.9.2-2.9,0-.5-.1-1-.5-1.5-.7-.4-.2-.8-.2-1.2-.3-1-.1-1.9-.2-2.9-.3-.9,0-1.8,0-2.5.6-.4.4-.6.9-1.1,1.2-.7.5-1.6.4-2.4.6-.9.3-1.6,1.1-1.8,2.1,0,.4-.2.9-.6.9-.1,0-.2,0-.3-.1-.6-.3-1.4,0-1.6.6-.3.6,0,1.3.5,1.7,0,0,.2,0,.2,0,.4,0,.5-.5.8-.7.4-.2.7.4,1,.7.5.7,1.5,1,2.3.8.5-.2.9-.5,1.3-.8.5-.3,1-.4,1.5-.2.6.3.8,1.1,1.4,1.2.5.1,1-.3,1.5-.6.8-.4,1.9-.4,2.6.2.3.2.5.5.9.7.4.2.9.3,1.4.1.3-.1.6-.5.9-.6.7-.1,1.1,1,1.6,1.3.5.4,1.3.3,1.8,0,.2-.2.3-.4.5-.5.5-.3,1.1,0,1.7.1s1.3.3,1.7-.2c.2-.3.2-.8.4-1.1.3-.6,1.2-.7,1.9-.4s1.2.8,1.8,1.2c1.1.7,2.6.7,3.8.1.8-.4,1.4-1,2.2-1.3,1.7-.6,3.8.4,5.4-.5.6-.3,1-.9,1.6-1.1.3-.1.6-.1.9-.2.6,0,1.1,0,1.7,0,.3,0,.6,0,.9,0,.4-.1.8-.4,1.2-.6.4-.2.9-.2,1.4-.2.5,0,.9-.3,1.1-.7-.7-.6-1.8-.9-2.7-.5-.3,0-.5.2-.8.3s-.6,0-.8-.3c-.2-.4.1-.8.5-1,.4-.2.9-.2,1.2-.5.3-.2.5-.6.6-1,.3-1.1.1-2.3-.7-3.1-1.5-1.5-3.5-.3-3.5,1.6,0,.1,0,.3,0,.4.2.3.6.2,1,.1s.8-.2,1,0c.2.2.2.5,0,.8s-.4.4-.7.5c-.8.3-1.7.4-2.5.7s-1.6.9-1.7,1.8c0,.2,0,.4-.1.5,0,.1-.2.2-.4.2Z"/>
      <path class="st2" d="M433.6,328.6c.4-.8-.1-1.3-.9-1-.2,0-.4,0-.5,0-.2-.1-.2-.4-.3-.7-.1-.2-.4-.3-.6-.3-.4,0-.8.1-.8.5,0,.4.2.8.2,1.2,0,.4-.3.6-.4,1-.2.4,0,.9,0,1.3,0,.2,0,.5.2.7.2.3.6.4.9.3s.6-.4.7-.8c0-.2,0-.5.1-.7.1-.3.4-.5.7-.6.3-.2.7-.5.9-.9Z"/>
      <path class="st2" d="M412.7,322.4c-1.4-.5-3.7-.3-4.5,1.2-.6,1,.5,2,1.2,2.6.4.3.8.7,1.2,1,.2.1.4.3.6.3.2,0,.4,0,.6-.1,1.1-.2,1.7,1.2,2.7,1.5.2,0,.3,0,.5.2.3.3,0,.9-.5,1s-.9,0-1.4.2c-.4.2-.7.6-1.1.8-.6.4-1.4.2-1.8-.3-.2-.2-.3-.5-.4-.7-.8-1.2-2.9-1.2-3.2-2.6-.3-1.2.9-2.3.9-3.5,0-.1,0-.3-.1-.4,0,0-.2,0-.3-.1-.4-.1-.9-.2-1.3-.2s-.9.3-1,.7c-.3.8.6,1.8.1,2.5-.4.6-1.2.4-1.8,0-.8-.5-1.6-1.2-2.4-1-.8.2-1.1,1.2-1.9,1.6-.4.2-.8.2-1.2.3-.9.2-1.7.7-2.1,1.4s-.4,1.8.2,2.5c.2.2.4.3.4.6,0,.4-.5.6-.9.9-.6.5-.5,1.6,0,2.2s1.4.9,2.1,1.1c.5.1.9.3,1.4.4.4.1.7.2,1.1.1,1-.2,1.4-1.8,2.4-1.8.5,0,1,.4,1.5.6,1.5.4,2.6-1.7,4.2-1.7.8,0,1.6.6,2.5.5.7,0,1.2-.5,1.8-.8.7-.3,1.4-.4,2.1-.6.7-.2,1.4-.6,1.6-1.3,0-.3,0-.6.2-.8.1-.3.4-.5.7-.4.3,0,.4.4.3.7s-.1.5-.1.8c0,.6.7,1,1.3,1,.6,0,1.2-.3,1.7-.5.6-.2,1.2-.3,1.7,0,.5.2.8.8,1.3,1.1.5.3,1.3.1,1.3-.4,0-.5-.7-.8-.5-1.3,0-.4.6-.4,1-.3.4.1.6.4,1,.5.9.3,1.7-.6,2.2-1.4.2-.3.4-.6.4-1,0-.4-.3-.8-.7-.7-.3,0-.5.4-.7.4-.4.1-.8-.3-.8-.8s.1-.8.2-1.3c0-.8-.3-1.6-.9-2.1-.6-.5-1.5-.6-2.3-.3-.6.2-1.1.7-1.7.7-1,0-1.5-1.3-2.5-1.4-.7,0-1.2.5-1.8.9-.5.4-1.2.8-1.8.5-.5-.3-.6-.9-.8-1.4-.4-.8-1.1-1.4-2-1.7Z"/>
      <path class="st2" d="M427.4,324.4c.5-.6,0-1.3-.6-1.4-.4-.1-.7.1-.9.5-.1.4,0,.8.4,1,.3.2.8.1,1.1-.1Z"/>
      <path class="st2" d="M394.3,325.1c-.7-.4-1.1-.5-1.9-.4-1.5.2-2.8-1.3-4.1-.2-.6.5-.7,1.4-1.3,1.8-.6.4-1.6.5-1.7,1.2,0,.2,0,.4,0,.6.2.4.5.8.7,1.3.2.4.2,1,0,1.4-.3.3-.8.4-1.2.3-.4,0-.9-.2-1.3,0-.4.1-.8.6-.7,1,.1.3.4.4.7.6,2.4,1.1,5.1,1.7,7.8,1.6.5,0,1.1,0,1.5-.4.4-.3.7-.9.4-1.4-.1-.2-.4-.3-.5-.5-.2-.4,0-.8.3-1.1.6-.8,1.2-1.6,1.8-2.5.3-.4.5-.7.6-1.2.2-.8-.3-1.6-1-2Z"/>
      <path class="st2" d="M365.9,326.5c-.8-.9-2-2.2-1.9-3.6,0-1.7,1.8-.5,2.6-.2.6.2,1.3.3,1.9.4,1.3.1,2.5,0,3.7-.4.3,0,.5-.2.8-.4.3-.2.5-.5.8-.7.6-.3,1.2-.1,1.9,0,.8.3,1.7.5,2.5.8.5.1.9.3,1.3.6.5.3.7.9,1.2,1.2.6.6,1.6.9,1.7,1.8,0,.5-.2,1-.6,1.3-.4.3-.9.5-1.3.7-.9.4-1.9.8-2.7,1.4-.8.6-1.4,1.5-1.6,2.5,0,.4-.1.8-.4,1.1-.3.4-.7.5-1.2.6-.5.1-1.1.2-1.6.4-.2,0-.4,0-.6,0-.3-.1-.4-.6-.3-.9.2-.3.5-.6.8-.8.3-.2.6-.5.7-.8,0-.3,0-.6-.2-.9-.8-1.6-2.6-2.6-4.3-2.8-.7,0-1.5,0-2.1-.4-.4-.2-.7-.6-1-.9Z"/>
      <path class="st2" d="M380.6,331.9c.3-1.2-1.5-2.8-2.4-1.6,0,.1-.1.2-.1.4,0,.3.3.6.5.7s.6.2.8.5c.2.2.3.4.5.4.3.1.6-.2.7-.5Z"/>
      <path class="st3" d="M240.8,303.6c-.4-.4-.5-.6-1-.7-.3-.1-.6.1-.7-.4,0-.6.8-1,1.2-1.2.3-.2.7-.4,1.1-.3.3,0,.5.4.5.6,0,.3,0,.6,0,.9-.1.5-.4.9-.7,1.2,0,0-.1.1-.2.1,0,0-.2,0-.2,0Z"/>
      <path class="st3" d="M203.6,285.9c-.8-.6-1.7-.9-2.7-1-.6,0-1,.3-1.3.8-.1.2-.2.5,0,.7.1.2.4.3.6.4.5.2.9.4,1.4.6.2,0,.3.1.5.2.2.1.3.4.4.5.1.2.3.4.6.3.2,0,.3-.1.4-.2.3-.2.6-.5.8-.9.2-.5-.2-1.1-.7-1.5Z"/>
      <g>
        <path class="st3" d="M175.5,183c0,.6.2,1.1.4,1.7.2.8.5,1.7.5,2.6,0,.3,0,.6,0,.9,0,.5-.1,1.1,0,1.5.1.5.5.9.8,1.4.6.8,1.2,1.7.8,2.7-.4.9-1.5,1.1-2.4,1.3-.8.1-1.5.3-1.8.8-.4.6,0,1.4.5,2.2,0,.1.1.3.2.4,1,2,.9,4.5-.3,6.4.5.4.8,1,1.1,1.5.3.7.7,1.3,1.2,1.5.3,0,.5,0,.9,0,.2,0,.5,0,.8,0,.5,0,.9.3,1.3.5,1.6.8,3.1,1.6,3.9,3.1.5.9.5,2.1,0,3.1-.3.6-.8,1.1-1.3,1.3.1,1.4,1.1,2.8,2.5,3.3,0,0,.2,0,.3,0,.3.1.6.2.9.4.5.4.8,1,1,1.6,0,.2.1.3.2.5.8,1.7,2.6,2.7,4,3.3.3.1.7.3,1,.4,1.4.6,2.8,1.2,4,2.2,0,0,.1.1.2.2l.7-.6c1.4-1.2,3.1-2.4,4.8-1.7.9.3,1.5,1,2.1,1.7.2.2.3.4.5.5.7.7,1.6,1.3,2.4.9.6-.3.8-1,1.1-1.8.3-.9.6-2,1.7-2.3.5-.2,1,0,1.5,0h0c2.3.4,4.6.4,6.8,0,0,0,0-.1-.1-.2-.5-.9-.3-2.2.6-2.7.3-.1.6-.2.9-.3.3-.1.5-.3.7-.5.6-.6.7-1.2,1.5-1.4.4,0,.8,0,1-.4.2-.3.1-.6,0-.9s-.5-.4-.8-.5c-.6-.2-1.3-.3-2-.2-.3,0-.6.1-.9,0-.4-.2-.5-.8-.3-1.2s.7-.7,1.2-.8c.6-.2,1.3-.3,2-.2.3,0,.6,0,.9,0,.5-.1.7-.6.8-1.1,0-.5,0-.9-.2-1.4-.3-.9-.6-1.8-1.4-2.3-.7-.5-1.6-.6-2.3-1.1-.7-.5-1-1.5-1.8-1.7-.1,0-.2.2-.2.3-1.3-.3-2.1.7-3.2,1.4-.9.6-2.2,1.3-3.3,1.3-1.4,0,.6-1.3.9-1.5.1,0,.2-.2.4-.2,1.3-1,.8-2.6-.4-3.4-.6-.3-1.2-.6-1.8-.6-.6,0-1.3,0-1.9,0-1.8,0-3.4-1.2-4.9-2.2-.6-.4-1.3-.9-1.6-1.6-.7-1.4-.3-3.1-1-4.5-.7-1.3-2.2-1.9-3.3-3-.4-.4-.7-.9-1.2-1.1-1.3-.7-3,.2-4.3-.5-.8-.4-1.2-1.3-1.4-2.2-.2-.9-.4-1.8-1-2.5-.5-.6-1.3-1-1.8-1.6-.5-.6-.7-1.3-1.2-1.8-.4-.4-.9-.6-1.5-.7-.5-.2-1.1-.3-1.6,0-.9.4-1,1.6-.7,2.6s.9,1.8.9,2.8c-1.1-1.7-3.3-2.2-4.8-3.5-1.3-1.1-1.8-2.7-2.4-4.3-.4.6-.6,1.4-.5,2.3Z"/>
        <path class="st3" d="M222,227.6c-.8-.5-1.5-.9-2.3-1.4-.5-.3-1.1-.7-1.6-1.1-2.5.6-5.1.7-7.6.2h0c-.4,0-.8-.2-1.1,0-.6.2-.9.9-1.1,1.8-.3.9-.6,1.8-1.4,2.3-.3.2-.6.2-.9.2-.9,0-1.8-.6-2.4-1.3-.2-.2-.3-.4-.5-.6-.5-.6-1-1.2-1.7-1.5-1.3-.5-2.8.5-4,1.6l-.7.6c.3.5.5.9.5,1.4,0,.5-.1,1.1-.5,1.5-.3.3-.7.6-1.1.6-.2,0-.4,0-.6,0-.3,0-.5,0-.6,0-.1.1,0,.4,0,.6h0c.1,1.6-.5,3.2-1.7,4.2-1.2,1-2.8,1.4-4.3,1.1h-.2c-.4-.2-.9-.3-1.1,0-.3.2-.3.8,0,1.2.3.7.8,1.2,1.3,1.8.3.3.5.6.8.9.5.6.9,1.5.9,2.4.2,0,.5-.2.7-.2.7,0,1.4.2,1.8.7.3.4.5.8.6,1.2,0,0,0,.2,0,.3.8,2.2,2.8,3.9,5.1,4.3h.2c.3,0,.7.1,1,.3,0,0,0,0,0,0,0,0,.2,0,.2,0,.1,0,.3.1.4.2,0,0,.2,0,.2,0,0,0,.1-.2.2-.3,0-.2.2-.5.5-.7.5-.4,1.3-.4,1.8-.4.5,0,.9.3,1.4.4.5.2.9.4,1.4.4h0c.4,0,.8-.2,1.2-.3,1.2-.5,2.5-1.2,2.6-2.5,0-.1,0-.3,0-.5,0-.4,0-.9.2-1.4.5-.8,1.6-.8,2.9,0,.5.3,1.2.4,1.5.3.1,0,.2-.1.3-.2,0-.2,0-.5,0-.8,0,0,0-.2,0-.3-.1-.6,0-1.3.6-1.6.5-.2,1,.1,1.3.5.3.3.4.7.6,1,.1.2.2.4.3.6.2.3.6.6.9.6.2-.5.2-1,0-1.4,0-.1,0-.2,0-.3,0,0,.2-.2.3-.2.4,0,.8-.5.8-.9,0-.1,0-.3,0-.4,0-.1,0-.3,0-.4-.2-1.6,1.3-2.6,2.4-3.3.7-.4,1.5-.9,2.3-.9.9,0,1.7.2,2.4.5.3.1.6.2.9.3,1,.3,2.1.1,2.5-.7,0-.1,0-.2.1-.4.1-.4.3-1,.9-1.1.5-.1.9.1,1.2.3.1,0,.3.2.4.2.1,0,.3,0,.5,0,0-.2,0-.4-.2-.6-.9-.9-.6-2.3-.7-3.6,0-.3,0-.6-.2-.8-.1-.2-.3-.3-.4-.4-.8-.9.2-2.5-.6-3.5-.4-.5-1.1-.5-1.8-.5-.6,0-1.3.2-1.9,0-.8-.2-1.4-1-2.1-.9-.7.1-1.2.9-1.8.8-.2,0-.4-.1-.6-.3Z"/>
        <path class="st3" d="M236.5,246.3c-.3.3-.8.6-1.2.4-.4-.2-.4-.7-.3-1.1s.5-.6.8-.9c.5-.5,1-1,1.2-1.6.2-.6,0-1.4-.5-1.8-.8-.5-2.1-.1-2.6-.9-.2-.2-.2-.6-.4-.8-.3-.3-.7-.3-1-.5-.3-.3-.2-.7-.2-1.1-.2,0-.4,0-.6,0-.2,0-.4-.2-.6-.3-.2-.2-.4-.3-.5-.2-.1,0-.2.3-.3.6,0,.1-.1.3-.2.4-.6,1.2-2.2,1.4-3.4,1.1-.3,0-.7-.2-1-.3-.7-.2-1.4-.5-2.1-.4-.7,0-1.4.5-2,.8-1.5.9-2.2,1.7-2.1,2.5,0,.1,0,.2,0,.4,0,.2,0,.4.1.6,0,.7-.4,1.4-1.1,1.6.1.6,0,1.3-.3,1.8,0,0-.1.2-.2.2-.8.3-1.6-.3-2-.9-.1-.2-.3-.5-.4-.7-.1-.3-.3-.6-.5-.9-.2-.2-.4-.3-.5-.3-.2,0-.2.4-.1.7,0,0,0,.2,0,.2,0,.4.2.8,0,1.3-.1.3-.4.6-.7.7-.7.2-1.6,0-2.1-.4-.2-.1-1.5-.8-1.9-.2-.1.2-.1.5,0,.9,0,.2,0,.4,0,.6,0,1.3-1.1,2.4-3.1,3.2-.5.2-1,.4-1.5.4h0c-.6,0-1.2-.2-1.7-.4-.4-.2-.8-.3-1.2-.4-.4,0-.9,0-1.2.2,0,0-.1.2-.2.3,0,.2-.2.4-.4.6,0,0-.2.1-.3.2.7.9,1.6,2.1,1.8,3.4.3.1.7,0,1.1,0,.6,0,1.2-.2,1.7.2.8.5.9,1.5,1,2.3v.2c0,.5.4,1.4.9,1.4.3,0,.6-.3.9-.6.4-.4.9-.9,1.6-.7.5.1.8.5,1.1.9.2.2.3.5.5.6.1,0,.3,0,.4.1.1,0,.3,0,.4,0,.7.2,1.3,1,1.3,1.7,0,.8-.6,1.5-1.3,1.7-.1,0-.3,0-.4,0-.2,0-.3,0-.4.1-.2.1-.3.4-.4.6-.1.3-.3.6-.5.8-.4.4-.8.5-1.3.6-.1,0-.3,0-.4.1-.4.1-.7.4-.7.7,0,0,.1.2.2.3.9.9,2.1,1.3,3.3,1.2.2,0,.3,0,.5,0,.8-.1,1.6-.2,2.3.3.5.4.6,1,.8,1.5,0,.3.1.5.3.8.4.8,1.4,1.2,2.4,1.5.6.2,1.2.4,1.8.7,1.9,1.1,2.6,3.4,3.1,5.6,0,0,0,.1,0,.2.2,0,.4,0,.6,0,.5.2.8.5,1,.9,0,.2,0,.3.1.5,0,.2,0,.4.2.5.1,0,.4,0,.6,0l5.3-.7s0,0,0,0c0-.2-.2-.5-.4-.8-.5-.5-1.1-1.1-.8-1.8,0-.2.1-.3.2-.4,0-.1.1-.2.1-.3,0,0,0-.2-.1-.3,0,0,0-.2-.1-.2-.2-.4-.1-.9,0-1.3.3-.6,1-1.1,1.7-1.3.4,0,.7-.1,1.1-.2.6,0,1.2-.2,1.6-.4.1,0,.2-.2.4-.2.2-.1.3-.2.5-.3.4-.2.8-.3,1.2-.4h.1c1.2-.3,2.3-.7,3.4-1.3.2-.1.5-.2.6-.4.1-.2.1-.5.2-.8,0-.4,0-.8.3-1.1.2-.4.6-.6,1-.8.4-.2.6-.4.7-.6,0-.1,0-.3,0-.5,0-.3,0-.8.3-1.2.4-.4,1-.2,1.3-.1,1.4.4,2.7.9,3.2,2.2.2.5.2,1,.2,1.5,0,.6,0,1.1.3,1.5.5.8,1.8.7,2.7.3.1,0,.2-.1.4-.2.2-.4.5-.7.7-1,.8-1.1,1.4-2.6.6-3.6-.3-.4-.7-.6-.8-1.1,0-.3,0-.6,0-.8.3-1.5,1.1-3,2.1-4.2.5-.5,1-1,1.1-1.7,0-.9-.6-1.6-1.4-2.1-.7-.5-1.5-1-1.8-1.8-.2-.8,0-1.7-.5-2.3-.6-.7-1.6-.7-2.3-1.2-.7-.6-.8-1.8-.8-2.7,0-.2,0-.4,0-.6-.2-.4-.7-.5-1.2-.4-.4,0-.9.3-1.3.3-.9,0-1.6-.8-2.5-.7-.6,0-1.1.6-1.8.6-1,0-1.8-1.2-2.8-.9-.4.1-.7.5-1,.9Z"/>
        <path class="st3" d="M140.2,180c0,.6,0,1.2,0,1.8.2,1.4,1.3,2.6,2.7,2.9.7.2,1.4.1,2,.3.3,0,.6.2.8.4,1.2-1.9,1.4-4.5.4-6.5-.3-.7-.8-1.2-1.2-1.9-.4-.5-.7-1-1-1.5-.9-1.5-1.1-3.1-.5-4.2,0-.2.2-.3.3-.5.1-.2.2-.4.3-.6.4-1-.3-2.1-1-3.2-.8-1.3-1.7-2.7-.8-4,.3-.5.8-.8,1.2-1.1.3-.2.6-.4.8-.6.4-.4.6-1,.8-1.6.2-.7.5-1.3,1-1.9.8-.9,2-1,3.2-1,0-.5,0-1-.1-1.4-.3-.9-1.3-1.5-2.3-1.7-.3,0-.5-.1-.7-.3-.2-.2-.3-.4-.4-.7-.4-1.1-1-2-1.2-3.1,0-.3-.1-.7-.4-1-.3-.3-.7-.5-1.1-.6-1-.4-1.8-1.2-2.3-2-.5-.9-1-1.3-2.1-1.2-.9,0-1.7.8-2.5,1-1.8.5-3.4-1.6-5.3-1.5-.9,0-1.8.5-2.7.7-.8.2-1.7.1-2.5,0-1.2-.1-2.4-.2-3.6-.3-.8,0-1.7-.1-2.5-.5-1.4-.7-2.2-2.4-3.4-3.4-1.8-1.5-4.3-1.6-6.6-1.1-.6.1-1.4.4-1.5,1.1,0,.2,0,.4,0,.6.4,1.6.8,3.1,1.2,4.7.3,1.3.7,2.6,1.3,3.8.8,1.5,2.1,2.7,3.3,3.9,1,.9,2,1.9,2.9,2.8.7.6,1.3,1.3,2.1,1.8.6.4,1.2.8,1.8,1.3,1.1,1,1.7,2.3,2.5,3.5.4.5.8,1,1.4,1.2.8.3,1.6.1,2.5.2,2.2.1,4,2,5,4.1.4.8.9,1.8,1.8,2.1.2,0,.5,0,.7.1.6.2,1,.9,1.2,1.5s.2,1.3.6,1.9c.6,1.2,1.9,1.5,2.8,2.3.9.8.9,2.5.9,3.6Z"/>
        <path class="st3" d="M249.5,272.3c-.1-.5,0-1,0-1.4-1.2.4-2.5.2-3.2-.8-.4-.6-.4-1.2-.4-1.9,0-.5,0-.9-.2-1.3-.4-1-1.6-1.4-2.7-1.7-.3,0-.5,0-.5,0,0,0,0,.2,0,.5,0,.2,0,.5,0,.7-.1.6-.6.9-1.1,1.1-.3.2-.6.3-.7.5-.1.2-.1.5-.1.8,0,.4,0,.8-.3,1.2-.2.3-.6.5-.9.7-1.1.6-2.4,1-3.6,1.3h-.1c-.3.1-.7.2-1,.3-.1,0-.3.2-.4.3-.1,0-.3.2-.4.3-.6.4-1.3.4-1.9.5-.4,0-.7,0-1,.2-.5.1-1,.5-1.2.9-.1.2-.1.4,0,.6,0,0,0,.1,0,.2,0,.2.2.4.2.7,0,.3-.2.5-.3.7,0,0-.1.2-.1.2,0,.3.3.7.6,1,.3.3.7.9.6,1.4,0,.3-.1.5-.4.7,0,0-.1,0-.2,0l-5.5.7c-.1,0-.2,0-.4,0-.3,0-.6,0-.8-.3-.3-.3-.4-.6-.4-.9,0-.1,0-.2,0-.3,0-.2-.2-.3-.5-.4-.1,0-.3,0-.4,0-.2.3-.5.5-.7.7h0c-.6.4-1.1.8-1.6,1.4.5.4,1.1.7,1.6,1.1,2.1,1.6,4.1,3.4,5.8,5.4.4.5.8.9,1,1.5.3.5.4,1.1.8,1.6.8.9,2.1,1,2.9,1.8.4.4.6,1.1,1,1.5.4.5,1.1.8,1.6.4.3-.3.3-.9.1-1.3-.2-.4-.6-.7-.9-1.1-.9-1-1.5-2.4-1.5-3.7,1.3-.4,2.4.9,3.3,1.8,1.1,1.1,2.5,2,4,2.4.3,0,.5.1.8,0,.9-.2,1-1.5.8-2.5s-.3-2.2.6-2.6c.8-.3,1.5.4,2.1,1.1.6.8,1.2,1.6,1.8,2.4.5.7,1.1,1.4,1.9,1.7s1.9.2,2.3-.6c.3-.6.2-1.3,0-2-.4-2.4-.1-4.8.2-7.2.3-2,.5-4,.8-6,.1-.8.2-1.7-.1-2.5-.3-.7-.9-1.3-1.1-2Z"/>
        <path class="st3" d="M218.6,279.9c.1.2.3.3.4.5.5-.7,1.1-1.2,1.8-1.6h0c.1-.1.2-.2.3-.3,0-.1,0-.2.1-.3,0,0,0-.2,0-.3-.5-2.1-1.1-4.2-2.7-5.1-.5-.3-1-.5-1.6-.7-1.1-.4-2.3-.8-2.8-1.9-.1-.3-.2-.6-.3-.9-.1-.5-.2-.9-.5-1.1-.4-.3-1-.2-1.7-.2-.2,0-.4,0-.5,0-1.5.1-2.9-.4-4-1.4-.2-.2-.3-.4-.4-.6-.2-.8.4-1.4,1.2-1.6.1,0,.3,0,.5-.1.4,0,.7-.2.9-.4.1-.1.2-.3.4-.6.2-.4.4-.7.8-1,.2-.1.5-.2.7-.2.1,0,.2,0,.3,0,.4-.1.7-.5.7-1,0-.4-.3-.9-.7-1-.1,0-.2,0-.3,0-.2,0-.4,0-.6-.2-.4-.2-.6-.5-.8-.8-.2-.3-.4-.5-.6-.6-.3,0-.5.2-.9.5-.4.4-.8.8-1.4.8-1,0-1.6-1-1.7-2.1v-.2c0-.7-.2-1.4-.6-1.7-.3-.2-.8-.1-1.2,0-.6,0-1.2.2-1.8-.2,0,0-.2-.2-.2-.3-.1-1.3-1.1-2.5-1.9-3.4,0-.1-.2-.2-.3-.3,0,0-.1,0-.1-.1,0,0,0,0-.1,0-.2-.1-.5-.2-.7-.2h-.2c-2.6-.5-4.8-2.4-5.7-4.8,0,0,0-.2-.1-.3-.1-.4-.2-.7-.5-1-.2-.3-.7-.5-1.1-.4-.5,0-.9.3-1.1.6,0,0,0,0-.1.1,0,0,0,0,0,0-.4.5-.9.8-1.4,1.1h-.2c-.7.5-1.3,1.1-1.9,1.6.4.4.7.7,1.2,1,.4.3.8.5,1.1.8.6.5,1.1,1.3,1.5,2,.5.9,1,2,1.6,2.8.7.9,1.5,1.8,2.4,2.6,1.7,1.6,3.5,3.1,5.6,4.2.5.3.9.5,1.3.9.8.8,1.1,1.9,1.2,3,.1.7.2,1.5.6,2.2.3.6.9,1.1,1.4,1.5.7.6,1.5,1.1,2.2,1.6,1.3.9,2.5,1.8,3.8,2.7,1.2.8,2.3,1.7,3.6,2.3.9.5,1.9.9,2.8,1.5,1,.7,1.9,1.6,2.6,2.5Z"/>
        <path class="st3" d="M158.2,203.4c.5,1.5,1.7,2.8,1.7,4.3,0,.6-.1,1.3-.1,1.9,0,.4,0,.8.2,1.2,1.2-2,3-4.2,5.5-4,.5,0,1,.2,1.5.3.5.1.9.3,1.4.3.5,0,1.1-.2,1.4-.5.2-.2.2-.4.2-.6,0-.4-.4-.7-.9-1-.2-.1-.4-.3-.6-.5-.5-.5-.7-1.3-.5-1.9.2-.4.5-.6.9-.6.3,0,.6.1.8.2l3.8,2c1-1.7,1.1-4,.3-5.8,0-.1-.1-.3-.2-.4-.5-.9-1-2-.4-3,.5-.8,1.5-1,2.4-1.2.8-.1,1.5-.3,1.8-.8.2-.6-.1-1.1-.7-1.9-.4-.5-.8-1-.9-1.6-.2-.6-.1-1.2,0-1.8,0-.3,0-.6,0-.8,0-.8-.2-1.5-.4-2.3-.2-.6-.3-1.2-.4-1.8-.1-1,.1-2.2.7-2.9,0-.1.2-.2.3-.3-.2-.4-.3-.8-.6-1.2-.1-.2-.3-.4-.5-.6-.6-.3-1.4.3-2,0-.7-.4-.4-1.5-.8-2.2-.1-.3-.4-.5-.6-.6-1.2-1-2.3-2.1-3.5-3.1-.9-.8-1.7-1.6-2.5-2.4-.6-.6-1.4-1-2.1-1.4-1.9-1-3.8-2.1-5.8-3.1-.8-.4-1.6-.9-2.1-1.7-.3-.5-.4-1-.7-1.5-.4-.7-1.2-1.1-1.9-1.5-.7-.4-1.4-.8-2.1-1.1-.4-.2-.9-.5-1.2-.9-.2-.3-.3-.6-.3-.9-1,0-2,.1-2.6.8-.4.4-.6,1-.8,1.6-.2.6-.4,1.3-.9,1.8-.3.3-.6.5-1,.8-.4.3-.8.5-1,.9-.6.9,0,2,.8,3.2.8,1.2,1.6,2.5,1.1,3.9-.1.3-.2.5-.4.7,0,.1-.2.3-.2.4-.6,1.3.1,2.9.5,3.5.3.5.6,1,1,1.4.5.6.9,1.3,1.3,2,1.1,2.3,1,5.1-.4,7.2,1.1.8,2,1.7,3.3,1.8.3,0,.7,0,1,0,.8.2,1.2,1,1.6,1.7.4.7,1,1.5,1.8,1.5.3,0,.6-.1.9,0,.5,0,.8.5.9.9,0,.5-.2.9-.5,1.2-.2.2-.5.3-.6.6-.4.6,0,1.5.5,2.1,1.3,1.9,2.2,3.7,2.5,5.9,0,.6.2,1.2.3,1.7Z"/>
        <path class="st3" d="M182.1,238.2c.8.6,1.2,1.6,1.1,2.6,0,.7-.4,1.4-.4,2.2s.5,1.8,1.1,2.6c.5.7.9,1.4,1.5,2.1.6-.6,1.3-1.1,2-1.6h.2c.4-.4.9-.6,1.1-1,.6-.9,0-2.1-.5-2.9-.2-.3-.5-.6-.7-.9-.6-.6-1.1-1.3-1.5-2.1-.3-.7-.3-1.6.4-2.1.6-.4,1.2-.2,1.8,0h.2c1.3.3,2.6,0,3.6-.8s1.5-2.2,1.4-3.5h0c0-.4,0-.9.3-1.3.4-.4.9-.3,1.3-.3.2,0,.3,0,.5,0,.3,0,.5-.2.6-.3.2-.3.3-.6.3-.9,0-.6-.4-1.1-1-1.7-1.1-.9-2.4-1.5-3.8-2.1-.3-.1-.7-.3-1-.4-1.4-.6-3.5-1.7-4.4-3.7,0-.2-.1-.3-.2-.5-.2-.5-.4-1-.7-1.2-.2-.1-.5-.2-.7-.3-.1,0-.2,0-.3-.1-1.7-.6-3-2.4-3-4.3,0-.2.1-.3.3-.4.6-.1.9-.6,1.1-.9.3-.7.3-1.7,0-2.4-.7-1.3-2-2-3.5-2.7-.4-.2-.7-.4-1.1-.4-.2,0-.4,0-.6,0-.4,0-.7,0-1.1-.1-.9-.3-1.3-1.1-1.7-1.9-.3-.5-.5-1-.9-1.3,0,0-.2,0-.2,0l-4.1-2.2c-.1,0-.3-.1-.4-.2,0,0-.1,0-.2.1-.1.3,0,.8.3,1,.1.1.3.3.5.4.5.4,1.1.8,1.2,1.5,0,.5,0,.9-.4,1.3-.5.5-1.3.9-2,.8-.6,0-1.1-.2-1.6-.3-.5-.1-.9-.3-1.3-.3-2.2-.2-3.8,2-4.9,3.9.4.3.9.4,1.5.5,1.6.3,3.1.9,4.6,1.6.8.4,1.6.9,1.8,1.7.3.9-.1,1.8.2,2.7.2.6.8,1.1,1.3,1.5,1.9,1.5,3.5,3.3,4.8,5.3,1.3,2,2.6,4.4,3.1,6.7.1.7.2,1.5.7,2.1.5.6,1.3.8,1.7,1.4.5.7.3,1.9.9,2.6.3.3.7.5,1,.8Z"/>
      </g>
      <g>
        <path class="st3" d="M316.7,324.4c0-.2,0-.3,0-.5,0-.1-.2-.3-.3-.4-.1-.1-.2-.3-.3-.5-.4-.7-.2-1.4,0-2.1,0-.2,0-.3,0-.5,0-.4,0-1-.3-1.2-.1-.1-.2-.2-.4-.2-.1,0-.2,0-.4,0,0,0-.2,0-.2,0-.6.2-1.2,0-1.8-.3-.6-.3-1-.9-1.1-1.5,0-.3,0-.6,0-1,0-.2,0-.4,0-.6,0-.3-.2-.7-.4-.8-.3,0-.4.4-.7.8-.3.6-.7,1.3-1.5,1.2-.2,0-.4,0-.6-.2,0,0-.1,0-.2,0-.6-.2-1.3.3-1.7.9-.2.4-.4.9-.5,1.3,0,.3-.2.5-.3.8.3.1.5.3.7.5.3.3.5.8.8,1.1.3.3.7.6,1,.8,2.6,1.4,5.5,1.3,8.3,2,0,0,0,0,0,0Z"/>
        <path class="st3" d="M256.9,307.5c0-.2,0-.4,0-.5.2-1.5.2-3.1-.1-4.6h0c0-.6-.2-1.1,0-1.6.4-1.5,2.2-1.9,3.8-1.7.2,0,.4,0,.6,0,1.1.2,2.2.4,3-.2,1.5-1,.7-3.5.5-4.3h0c-.1-.4-.2-.7-.2-1.1,0-.2,0-.4.1-.6,0,0,0,0,0,0-1.2.4-2.1,1.6-3.3,1.8-.5,0-.8-.1-1.3-.1-.7,0-1.3.4-2,.2-.6-.2-1-.7-1.6-.9-.5-.1-1.2.1-1.5.6-.1.2-.2.4-.4.5-.3.2-.7-.2-.9-.5-.1-.4-.1-.8-.4-1.1-.3-.3-.8-.3-1.3-.1s-.7.6-1,.9c-1,1.2-2.1,2.7-1.8,4.2,0,.7.4,1.3.4,2,0,.7-.5,1.4-1.2,1.3-.4,0-.7-.4-1-.7-.3-.3-.9-.4-1.1,0,0,.1,0,.3-.1.4,0,.3,0,.5,0,.8,0,.3.2.6.2.8,0,.6-.5,1-.9,1.4-.1.1-.3.2-.4.3-.6.1-1-.8-1.6-1-.7-.3-1.4.4-1.8.9-.3.3-.5.8-.2,1.1.4.4.9-.2,1.5-.1.7,0,1.1,1,1.7.9.2,0,.4-.2.6-.2.2,0,.3.2.5.2.2,0,.5,0,.8,0,1.1-.2,2.2.5,3.2,0,.4-.2.7-.5,1.1-.6.7-.3,1.5,0,2.2.6.6.5,1.2,1.1,1.9,1.4.9.3,1.5,0,2.2-.3Z"/>
        <path class="st3" d="M288.9,317c-.4-.5-.8-1-.9-1.7,0-.2,0-.5,0-.7,0-.2,0-.3,0-.5-.1-.9-1-1.6-1.9-1.6-.2,0-.4-.1-.4-.3-.1-.5-.5-1.9.5-2.6.3-.2.6-.3.9-.3h.2c.8-.2,1.6-.8,2-1.5.2-.3.4-.9.1-1.5,0-.2-.2-.4-.4-.7-.1-.2-.2-.3-.3-.5-.3,0-.5,0-.8,0-2.7-.3-.8-2.2-1.9-3.8-.3-.4-.8-.6-1.1-1-.2-.3-.3-.7-.5-1-.2-.2-.4-.4-.7-.6-1.1-.7-2.4-1.5-3.7-1.3-.6,0-1.2.4-1.8.7-.9.4-2.2.8-2.9,0-.2-.2-.4-.6-.6-.8-.2-.2-.5-.3-.8-.5-.6-.4-.8-1.1-1.3-1.6-.7-.8-1.9-1.1-3-1-.3,0-.5,0-.8,0-.3-.1-.6-.4-.8-.6-.6-.6-1.5-.9-2.3-1-.1.2-.2.5-.2.7,0,.3,0,.5.2.8h0c.8,2.4.5,4.4-.8,5.2-1.1.7-2.4.5-3.6.3-.2,0-.4,0-.6,0-1-.1-2.6,0-2.9,1.1,0,.4,0,.8,0,1.2h0c.3,1.7.3,3.3.1,4.9,0,0,0,.1,0,.2.2,0,.5.2.6.4.2.3.2.7.2,1.1,0,.4-.2.7-.3,1-.3.6-.8,1-1.2,1.5s-.6,1.2-.3,1.8c.2.4.6.6,1,.7.8.3,1.6.4,2.4.4.6,0,1.3-.2,1.9-.1.6,0,1.1.2,1.7.3.9.2,1.9.3,2.8.2,1.6,0,3.3-.5,4.6.3.3.2.6.4.8.6,1.2,1,2.4,2,3.8,2.6,1.2.5,2.5.8,3.7,1.1,1.5.3,4.5,1.2,5.7-.2,1.1-1.2,2.2-2.4,4-1.5,0-.1-.2-.3-.3-.4Z"/>
        <path class="st3" d="M367.2,330.4c-.2-.2-.5-.3-.7-.4-.9-.5-1.4-1.4-1.9-2.3-.2-.4-.4-.8-.5-1.3-.2-.9.2-1.8,0-2.7-.1-.6-.5-1.2-.3-1.7,0-.3.3-.5.5-.7.3-.4.6-.8.8-1.3.2-1.1-.7-1.9-1.6-2.2-.8-.3-1.7-.4-2.3-.9-.3-.2-.6-.5-.9-.8-.6-.4-1.4-.4-2-.1-.5.3-.9.7-1.3,1.1-.8.6-1.8.8-2.8.6-.8-.2-1.6-.6-2.4-.5-1,.1-1.8,1.1-2.8,1-.6,0-1-.6-1.6-.7-.5,0-1.1.1-1.6,0-.3,0-.5-.3-.8-.5-.6-.4-1.3-.7-1.9-1.1-.6-.4-1.1-1.2-.9-1.9.2-.9,1.4-1.4,1.7-2.3.3-.8-.1-1.8.3-2.5.2-.3.4-.5.7-.6.5-.2,1.1-.3,1.6-.1.3.1.6.4.9.6.7.5,1.5.8,2.2,1.1.3.1.7.2,1,.3.5,0,.9,0,1.4,0,.9,0,1.9-.2,2.8-.2.7,0,1.4-.1,1.9-.5.2-.2.4-.4.7-.6.8-.6,1.8-.7,2.6-1.3.1-.1.3-.3.3-.4.1-.4-.3-.8-.8-1-1.3-.6-2.9-.8-4.4-.5-.4,0-.7.2-1.1.2-.5,0-1,.1-1.5.2-.9,0-1.9.1-2.8.2-1,0-2.1.1-3.1,0-1.3-.1-2.7-.5-3.7.4-.6.5-.9,1.4-1.7,1.5-1.2,0-.8-.9-1-1.6-.2-.7-.9-.8-1.3-.2,0,.1-.2.3-.3.3-.7.3-1-1.2-1.9-.9-.6.2-.8,1.1-1.4,1.4-.5.2-1.1-.3-1.4-.8-.3-.5-.5-1.1-1-1.4-.9-.5-2,.3-2.9,0-.8-.2-1.2-.9-1.8-1.4-.3.6-.5,1.2-.6,1.8-.2.9-.2,1.9-.3,2.8,0,.5,0,.9,0,1.4,0,.4,0,.8-.3,1.2-.5.9-1.7,1.2-3.2.9-.1,0-.3,0-.4,0-.7-.2-1.4-.3-2-.2.4,1,.6,2.2.5,3.3v.3c0,.9-.2,1.9.5,2.3,0,0,.1,0,.2.1.1,0,.3.1.4.2.4.3.6.7.6,1.1,0,.9-1.3,1.7-2.4,2.4-.4.3-1,.6-1.1.8-.2.4-.1.9,0,1.4l.4,2.1c.5.2,1.1.3,1.6.2.4,0,.8-.3,1.2-.3.8-.1,1.6.2,2.4.4,1,.3,2,.4,3.1.3,1,0,1.9-.5,2.8-.5,1.7,0,3.9.4,5.3,1.4.4.3.7.6,1.1.6.3,0,.6-.1.9-.1.5,0,.9.5,1.4.6.2,0,.5,0,.7-.2.8-.3,1.6-.6,2.3-1.2.3-.3.6-.6.9-.9.9-.8,2.2-.8,3.4-.8.5,0,1,0,1.4.2.4.1.7.4,1,.7,2.1,1.7,4.5,3.2,7.2,3.5.9,0,1.7,0,2.6.3.7.2,1.3.5,2,.4.3,0,.7-.2,1-.1.6.1.7.8,1.1,1.3.7.8,2,.6,3.1.3.2,0,.5-.1.6-.3.1-.2,0-.5-.2-.7Z"/>
        <path class="st3" d="M319.2,323.7c-.1-.5-.3-1.3,0-1.9.2-.3.6-.6,1.4-1.1.8-.5,2-1.2,2.1-1.7,0-.1,0-.3-.3-.4,0,0-.2,0-.3-.1,0,0-.2,0-.3-.1-1-.6-.9-2-.9-3v-.3c0-1.1-.1-2.3-.6-3.3,0-.2,0-.4.2-.5.9-.4,1.9-.2,2.8,0,.1,0,.3,0,.4,0,.9.2,1.9.2,2.3-.5.1-.2.2-.6.2-.9,0-.5,0-.9,0-1.4,0-1,.1-1.9.3-2.9.1-.6.4-1.4.7-2.1-.7-.4-1.5-.5-2.2-.3-1.6.3-3.5,1.6-5.1.4-.7-.5-.9-1.5-1.3-2.3s-1.1-1.6-2-1.5c-.6.1-1,.7-1.6.9-.4.1-.9,0-1.2.4-.2.2-.3.5-.3.8-.2.9-.3,1.7-.5,2.6,0,.4-.2.8-.5,1.1-.2.2-.5.3-.7.4-.3.2-.5.5-.7.7-.7.6-1.8.4-2.7.1s-1.8-.8-2.7-.6c-.6.1-1.2.6-1.8.8-1.9.5-3.6-1.6-5.6-1.6-.6,0-1.2.2-1.7.3-.6.2-1.2.4-1.8.5-.4.1-.7.2-1.1.1-.3,0-.5-.3-.7-.5-1.1-.8-2.5-.7-3.8-.6,0,0,0,0,0,.1.2.2.3.5.4.8.3.7.2,1.4-.2,2.1-.5.9-1.5,1.6-2.5,1.9h-.2c-.2,0-.5.1-.6.2-.3.2-.4.7-.2,1.4,1.2,0,2.3,1,2.4,2.2,0,.2,0,.4,0,.6,0,.2,0,.4,0,.6,0,.5.4.9.7,1.3.1.1.2.3.3.5.3.4.5.8.6,1.2.3.2.7.3,1,.2.4,0,.7-.3,1.1-.6,1.3-.8,3.2-.7,4.5.3.2.2.4.3.6.5.6.4,1.3.3,2,.4,1.8,0,3.7.3,5.5.8,0,0,0,0,0,0,0-.2.2-.5.3-.8.2-.5.3-1,.6-1.5.5-.9,1.6-1.6,2.6-1.3,0,0,.2,0,.3.1.1,0,.2,0,.3.1.3,0,.5-.3.7-.8.3-.5.7-1.2,1.4-1.2,0,0,0,0,0,0,.7.2,1,.9,1.1,1.5,0,.2,0,.5,0,.7,0,.3,0,.5,0,.8,0,.4.3.7.7,1,.4.2.8.3,1.2.2,0,0,.1,0,.2,0,.2,0,.4-.1.6-.1.4,0,.7.1,1,.4.4.5.6,1.3.5,1.8,0,.2,0,.4,0,.6-.1.6-.2,1.1,0,1.6,0,.1.2.2.3.4.1.2.3.4.4.6.1.3.1.7.1,1,.4.1.8.2,1.2.4.3,0,.5.2.8.3l-.3-1.6Z"/>
      </g>
      <g>
        <path class="st4" d="M312.7,254.1c.3.5.2,1.2.7,1.4.4.2.8-.2,1.2-.3.1,0,.3,0,.4,0,.4-1,.9-1.9,1.7-2.7.4-.3.8-.6,1.2-.9.4-.3.8-.5,1.1-.8,1.5-1.4,1.8-3.9.6-5.6-.1-.2-.3-.4-.4-.5-.3-.4-.7-.8-.9-1.4-.3-.8-.2-1.6,0-2.3,0-.7.2-1.3,0-1.9-.1-.4-.4-.8-.6-1.1-.2-.2-.3-.5-.5-.8-.4-.8-.5-1.9.2-2.6.6-.5,1.4-.4,2-.3.4,0,.7.1,1,0,.7,0,1.3-.7,1.9-1.3.4-.4.7-.7,1.1-1,.3-.2.6-.3.8-.5.4-.2.9-.5,1.2-.8.2-.2.4-.5.5-.9v-.2c1.6-2.8,4.4-4.8,7.6-5.2.8,0,1.6,0,2.3,0,.5,0,1,0,1.5,0,2.5-.1,5.1-1,7.2-2.4h.2c.7-.6,1.4-1.1,2.3-1.1.3,0,.6,0,.9.1.8.2,1.1.2,1.3,0,0-.2,0-.4,0-.8,0-.3-.2-.5-.2-.8,0-.8.5-1.4,1-2,.4-.4.7-.7.8-1.1.2-.7-.1-1.4-.5-2.1-.4-.8-.8-1.7-.6-2.6,0-.2.2-.3.4-.3,2.2.2,4-1.8,5.5-3.8.6-.8,1.3-1.8,1.6-2.8.2-.9,0-2.1-.8-2.6-.2-.1-.2-.3-.1-.5.5-1,1.5-1.4,2.5-1.7.6-.2,1.3-.4,1.8-.8,1.1-1,1-2.8.8-3.9,0-.2,0-.4-.1-.6-2,.3-4,.9-5.7,1.8-.6.3-1.3.7-2,.9-.7.1-1.3,0-2-.2-2.3-.5-4.6-1-6.9-1.5.9-.5.8-2,0-2.6s-2-.6-3.1-.4c-1.8.2-3.6.7-5.3,1.3-1.1.4-2.3,1-2.7,2.1-.2.5-.1,1.1-.3,1.6-.5,2.2-3.1,3.2-5.4,3.3-1.7,0-3.4,0-5-.5-.7-.2-1.4-.4-2.1-.4-2.8,0-5,3.2-7.8,2.9-1.3-.2-2.4-1.1-3.4-2-2.3-2.1-4.5-4.1-6.8-6.2-1.1-1-2.2-2-2.7-3.3-.3-.8-.4-1.7-.2-2.5.1-.6.7-.8.4-1.5-.4-.7-1.2-.7-1.7-.2-.3.3-.6.7-1,.9-.5.3-1.2.3-1.6.7-.8.7-.5,2.3-1.4,2.9-.3.2-.8.2-1.1.4-.9.6-.1,2-.4,3-.3,1-1.6,1.4-1.9,2.4-.2.7.2,1.5,0,2.2-.2,1.4-2.1,2.1-2.3,3.6-.2,1.1.8,2.1,1,3.2.2,1.2-.4,2.5.2,3.5.4.7,1.1,1,1.8,1.2s1.5.5,2,1.1c.5.6,1,1.8.3,2.1-.4.2-.8.5-.9,1,0,.5,0,1-.1,1.4-.3.6-1.1.9-1.3,1.5-.1.4,0,.8.1,1.2.3.7.7,1.3,1.3,1.8.7.7,1.7,1.3,1.7,2.3,0,.3,0,.6-.1,1-.2,1.5,1.4,2.9,2.9,2.6.5-.1,1.3-.3,1.5.2.2.5-.5.8-.8,1.1-.8.7-.6,2.2.3,2.8.9.6,2.3.3,2.9-.6.3-.3.5-.7.9-.7.3,0,.6.2.8.4.9.9,1.8,1.8,2.2,3,.5,1.2.4,2.6-.6,3.5-.8.7-2.2,1.1-2.1,2.2,0,1.6,3.1,1.3,3.4,2.9.3,1.1-1.2,2.3-.6,3.3.2.3.5.5.7.7.4.5.4,1.1.4,1.7,0,2.5-.5,9.1,3.5,6.7.8-.5,2-.8,2.5,0Z"/>
        <path class="st4" d="M359.7,259.9c0-.1.2-.3.3-.4.3-.3.8-.5,1.2-.7.4-.1.8-.3.9-.5.1-.2.2-.4.3-.7,0-.3.2-.7.5-1.1.2-.3.6-.4.8-.5.2-.1.5-.2.6-.4.2-.2.2-.5.2-.8,0-.1,0-.3,0-.4.2-1.3,1.2-2.3,2.2-3.2.9-.9,1.8-1.7,1.9-2.8,0-.3,0-.7,0-1.1,0-.8,0-1.8.7-2.4.7-.6,1.6-.5,2.4-.4.5,0,1.1.2,1.5,0,.8-.2,1.3-1.1,1.7-1.9.3-.5.5-1,.8-1.4,0-.1.2-.2.2-.3.2-.2.4-.4.5-.7.2-.5,0-1.1-.2-1.7,0-.2-.1-.3-.1-.5-.4-1.4-.1-2.9.6-3.9.8-1.2,2.3-1.9,3.6-1.6.1,0,.2,0,.3,0,.2,0,.5.1.7.1.9,0,1.1-1.6,1-2.5,0-.5,0-.9-.3-1.2-.3-.3-.7-.3-1.2-.4-.2,0-.4,0-.6,0-2.1-.5-3.2-2.6-4-4.7l-1.3-3.3c-.3-.7-.6-1.5-.4-2.4.1-.6.4-1,.7-1.5.1-.2.3-.4.4-.6.3-.5.4-1.3,0-1.6-.2-.1-.3-.2-.5-.1-.5,0-1,.5-1.3,1.1,0,.1-.2.3-.2.4-.4.8-.9,1.7-1.9,2-.2,0-.4,0-.5-.2-.5-1.1-.6-2.3-.3-3.4,0-.2.1-.4.2-.6.2-.4.3-.9.3-1.3,0-.3-.2-.6-.3-1-.2-.4-.3-.8-.3-1.3,0-.9.5-1.6.9-2.2.5-.7.9-1.3.7-1.9,0-.3-.3-.5-.5-.7-.5-.3-1.1-.4-1.7-.2-.6.2-1.2.5-1.8.8-.4.2-.7.4-1.1.6-1.7.8-3.8.8-5.5.1-.1,0-.2,0-.3-.1-.4-.2-.8-.4-1.3-.4-.5,0-.9.3-1.4.6-.6.4-1.3.8-2.1.6-.2.2-.3.5-.5.7-1.5,2.1-3.4,4.2-5.8,4.1,0,.6.3,1.1.6,1.7.4.9.9,1.7.6,2.7-.2.6-.6,1-1,1.4-.4.5-.8.9-.8,1.4,0,.2,0,.4.1.6.1.4.3.9,0,1.4-.4.8-1.4.6-2.1.5-.3,0-.6-.1-.8-.1-.6,0-1.2.4-1.8.8h-.2c-2.3,1.7-4.9,2.5-7.6,2.7-.5,0-1,0-1.5,0-.7,0-1.5,0-2.2,0-2.9.3-5.5,2.2-6.9,4.8v.2c-.3.4-.5.7-.8,1-.4.4-.9.7-1.4,1-.3.1-.5.3-.8.4-.4.3-.7.6-1,.9-.7.7-1.4,1.4-2.4,1.5-.4,0-.8,0-1.2,0-.6,0-1.1-.2-1.4.1-.4.3-.3,1.1,0,1.6.1.2.3.5.4.7.3.4.6.8.7,1.3.2.7.1,1.5,0,2.2,0,.7-.2,1.4,0,2,.1.4.4.8.7,1.1.2.2.3.4.5.6,1.4,2,1.1,5-.7,6.6-.4.3-.8.6-1.2.9-.4.3-.8.5-1.1.8-.7.6-1.1,1.4-1.5,2.3.6.3,1.2.8,1.8.9,2.2.5,4.2-2.9,6.3-2,.5.2.9.6,1.4.7.8,0,1.4-.8,2.1-1,.9-.2,1.6.7,1.8,1.6.1.9-.2,1.7-.5,2.6s-.5,1.8-.2,2.6c.4,1.1,1.6,1.7,2.7,1.6s2.2-.6,3.1-1.4c.8-.6,1.6-1.4,2.5-1.5,1,0,1.8.5,2.8.6,1.1.1,2.1-.3,3.1-.8,1.1-.5,2.3-1.3,2.4-2.5,0-.5-.2-1,0-1.4.3-.7,1.4-.8,2.1-.3s1,1.2,1.5,1.8c.5.6,1.3,1.2,2,1,.4-.1.8-.5,1.3-.4.4,0,.6.4.8.8.4.7.9,1.4,1.5,2s1.5.9,2.3.6c.5-.2,1-.5,1.5-.8.6-.3,1.1-.3,1.6-.2Z"/>
        <path class="st4" d="M424.5,199.7c-.7-.2-.9-1-1.4-1.6-1-1.4-3-1.7-4.1-2.9-.3-.3-.5-.7-.8-1-.6-.6-1.4-1-2.2-1.2-1.3-.4-2.6-.8-3.8-1.6-.9-.6-3-3.2-1.3-4.1.3-.2.8-.1,1.1-.2,2.1-.4,2.2-3.4,1.1-4.7-.5-.6-1.4-.9-1.9-1.6-.7-1-.3-1.8-.6-2.8-.2-.7-.8-1.3-1.5-1.3-2.1-.2-2.8.3-3.6-2-.3-.7-2.1-3.1-1.8-3.7,0-.1.2-.2.3-.4.2-.2.3-.5.3-.8-.2-.5-.5-.9-.9-1.2-.5-.4-1.1-.6-1.5-1.1s-.5-1.3,0-1.6c.6-.4,1.3,0,2,.2,1.1.1,1.5-.5,2.6-.1,1.1.4,1.7,1.1,3,1.1.8,0,1.9-.6,1.7-1.4,0-.2-.2-.5-.4-.6-1.2-1.4-2.8-2.5-4.3-3.6-1.2-.9-2.5-1.8-3.7-2.8-1.6-1.2-3.4-2.4-5.4-2.2-1,.1-1.9.6-2.9.5-.9-.1-1.8-.8-2.7-.5-.7.2-1.2.9-1.9.9-.8,0-1.4-.9-2.2-.9-1.3,0-2.4,2.1-3.3,1.3-.3-.3-.4-.8-.7-1-.4-.3-.9-.1-1.3,0-1.8,1-2.5,3.2-3.1,5.1-.1.4-.2.8-.3,1.2-.4,1.3-.7,2.8-.2,4.1.3.6.8,1.3.5,1.9-.2.5-.8.6-1.1,1-.7.9.4,2.4-.4,3.2-.3.3-.9.4-1.3.4-1.4.2-2.7,1-3.6,2.1-.7.9-1.1,2-.8,3.1.3,1.1,1.3,1.9,2.4,1.8,0,1.7-2.2,2.3-3.9,2.7-1.7.4-3.7,1.9-2.8,3.4.6,1,2.5,1.8,1.7,2.8-.4.5-1.1.3-1.7.7-1.1.7,0,2.7-.8,3.7-.5.7-1.5.6-2.4.5-.9,0-1.8,0-2.7,0,0,.2,0,.4.1.6.3,1.5.3,3.5-1.1,4.6-.6.5-1.3.7-2,1-.8.3-1.5.5-1.9,1,.9.8,1.1,2.2.9,3.2-.1.6-.4,1.1-.7,1.7.3,0,.7-.2,1.2-.5.5-.3,1.1-.6,1.7-.7.6,0,1.1.2,1.6.4.1,0,.2,0,.3.1,1.5.6,3.4.6,4.9,0,.4-.2.7-.4,1-.6.6-.4,1.3-.7,2-.9.8-.2,1.6,0,2.3.3.5.3.8.7.9,1.2.2,1-.3,1.8-.9,2.5-.4.6-.8,1.2-.8,1.8,0,.3.1.7.3,1,.2.4.3.8.3,1.2,0,.6-.1,1.1-.3,1.6,0,.2-.1.4-.2.5-.2.8-.2,1.7.1,2.5.5-.3.8-.9,1.1-1.5,0-.2.2-.3.3-.5.4-.6,1.1-1.3,1.8-1.4.4,0,.8,0,1.2.3.8.6.7,1.8.2,2.6-.1.2-.3.5-.4.7-.3.4-.5.8-.6,1.2-.1.6,0,1.2.4,1.9l1.3,3.3c.7,2,1.7,3.9,3.4,4.2.2,0,.3,0,.5,0,.6,0,1.2.2,1.6.6.5.5.5,1.2.5,1.6,0,1.4-.3,3.2-1.7,3.3,0,0-.2,0-.3,0h0s-.2,0-.3.2c-.2.3-.3,1,0,1.3.2.3.4.6.6.9.3.3.6.7.8,1.1.3.6.3,1.3.4,2,0,.5,0,.9.1,1.3,0,.3.3.7.4,1,.3.6.6,1.3.6,2.1,0,.2,0,.4,0,.6-.1.5-.2.8,0,1,.2.1.4,0,.9-.3.3-.2.6-.4,1-.4.7-.1,1.3.2,1.9.5.4.2.8.4,1.2.5.3,0,.5,0,.8-.2.1,0,.2,0,.4-.1,1.3-.4,2.8,0,3.9.8-.1-.4-.4-.8-.7-1-.6-.4-1.6-.6-1.8-1.3-.2-.7.3-1.3.5-2,.5-1.4-.6-3.1-2-3.2,0-.9,1.2-1.1,2-1.3.9-.1,1.9-.7,1.7-1.6,0-.3-.3-.5-.2-.7,0-.7,1.3-.6,1.8-1.1.4-.4.1-1.2.5-1.6.4-.4,1.1-.2,1.7-.1,2.1.3,3.6-1.9,4.4-3.8.2-.4.3-.8.6-1.1.7-.7,1.9-.5,3-.5,1,0,2.3-.4,2.3-1.5,0-.6-.5-1.2-.6-1.8,0-.6.3-1.1.5-1.6.2-.5.2-1.3-.3-1.5-.4-.2-.9,0-1.3-.3-.9-.4-.3-1.8-.3-2.7,0-.7-.3-1.3-.4-2-.2-1.3.4-2.5.9-3.7.8-1.7,1.5-3.4,2.3-5.1.4-.8.8-1.7,1.6-2,.6-.3,1.4-.3,1.8-.8.7-1-1-2.1-.9-3.4.9,0,1.6.9,2.1,1.6,1.2,1.5,3,2.9,4.9,2.6.4,0,.8-.2,1.1-.2.6,0,1.1.2,1.6.4,3,.9,6.6-1.6,6.8-4.7-.8-.7-2,.4-2.9,0Z"/>
        <path class="st4" d="M393.8,246.8c-.9-.9-2.3-1.4-3.6-1-.1,0-.2,0-.3,0-.3.1-.7.2-1.1.2-.6,0-1.1-.3-1.5-.6-.5-.3-.9-.5-1.3-.4-.2,0-.5.2-.8.3-.5.3-1.2.7-1.8.2-.6-.5-.4-1.2-.3-1.8,0-.2,0-.3,0-.5,0-.5-.2-1.1-.5-1.6-.2-.4-.4-.8-.5-1.2-.1-.5-.2-1-.2-1.5,0-.6,0-1.2-.3-1.7-.2-.3-.4-.6-.6-.9-.3-.3-.5-.6-.7-1-.3-.6-.2-1.5.1-2.1-1-.2-2.2.3-2.8,1.3-.6.9-.8,2.1-.5,3.3,0,.2,0,.3.1.5.2.7.4,1.5.1,2.2-.1.4-.4.6-.6.9,0,0-.2.2-.2.3-.3.4-.5.8-.8,1.3-.5,1-1.1,2-2.2,2.3-.6.2-1.2,0-1.8,0-.7-.1-1.4-.2-1.8.2-.4.4-.4,1-.4,1.8,0,.4,0,.8,0,1.2-.2,1.4-1.2,2.3-2.2,3.3-.9.9-1.8,1.7-1.9,2.8,0,.1,0,.2,0,.3,0,.4,0,.9-.4,1.3-.2.3-.6.4-.9.6-.2,0-.4.2-.6.3-.2.2-.2.4-.3.7,0,.3-.2.6-.4.9-.3.5-.9.6-1.3.8-.4.1-.7.3-.9.5,0,0,0,.1-.1.2,1.1.7,1.9,2,3.1,2.5,1.1.5,2.3.9,2.9,1.9.5.9.1,2.1,0,3.1s0,2.3,1,2.8c.4.2.8.1,1.3,0,2.7-.5,4.4-3.3,7.1-3.9.6-.1,1.2-.1,1.7-.4.5-.2.9-.5,1.3-.8.8-.6,1.7-1.2,2.7-1.5s2.2,0,2.8.9c.8,1.1.4,3.1,1.6,3.8.9.5,2.1,0,2.8-.8,1.7-2.1,1.3-5.1.9-7.7,0-.4-.1-.7-.2-1.1,0-.5-.2-1-.2-1.6-.1-2.4,1.8-3.7,1.8-6.2,0-.7,0-1.6.4-2.1.4-.5,1.1-.6,1.6-.9.5-.3.8-.8.9-1.3,0,0,0-.1-.1-.1Z"/>
      </g>
      <g>
        <path class="st1" d="M430.4,262.8l.3-.5c.2-.4.5-.9.5-1.3,0-.4-.2-.9-.4-1.3-.3-.7-.7-1.5-.3-2.2.3-.6,1-1,1.5-1.2.6-.3,1-.5,1.1-.9,0-.4-.2-.9-.5-1.4-.4-.7-.9-1.4-.4-2.2.5-.7,1.3-.7,2.1-.6.7,0,1.2,0,1.4-.3.2-.2.1-.6,0-1-.2-1.3-.5-2.6-1.3-3.3,0,0-.1-.1-.2-.1-.2-.1-.4-.3-.5-.5-.5-.8-.1-1.9.4-2.5.2-.3.5-.5.7-.7.3-.3.6-.5.8-.8.9-1.2.5-2.9-.1-4.6-.4-1-.8-2.2-1.6-2.9-.2-.2-.4-.3-.7-.5-.8-.6-1.9-1.4-1.6-2.6,0-.3.3-.6.5-.9.2-.3.3-.5.4-.7,0-.3-.2-.5-.5-.8-.2-.3-.5-.6-.7-1,0-.1,0-.3,0-.4-1.6,1.8-3.4,3.9-2.8,6.4.2,1.1.9,2.1,1.2,3.1.4,1.5,0,3.2-1.2,4.3-.6.6-1.4,1-1.5,1.8,0,.6.3,1.2.4,1.8.5,3.2-5.6,3.9-6,7.2,0,.6,0,1.1.2,1.7.6,2.5,1.2,5.1,1.8,7.6.1.5.3,1,.7,1.3.8.6,1.9-.3,2.8-.7,1.2-.5,2.6,0,3.6,1Z"/>
        <path class="st1" d="M443,253.4c1.1-.6,2.3-1.3,3.4-1.9,2.3-1.3,6.2-2.1,6.7,1.3,1.3-.4,2.7-.2,3.7.5.2.1.4.3.6.4.6.4,1.1.8,1.6.7.1,0,.3,0,.4-.1.1-.1.3-.3.5-.3.1-.1.2-.2.4-.4.6-.5,1.1-1.1,1.4-1.8.2-.6.3-1.4-.2-1.9-.3-.3-.6-.4-1-.6-.4-.2-.9-.3-1.2-.7-.4-.3-.6-.7-.8-1.1-.1-.3-.3-.6-.5-.8-.5-.6-1.3-.8-2.2-.9-.6-.1-1.2-.2-1.7-.5-.2-.1-.5-.2-.7-.4-.4-.2-.7-.4-1.1-.5-.4,0-.7,0-1.2,0-.2,0-.4,0-.6,0-1.9.1-3.9-.9-4.8-2.6-.1-.2-.3-.5-.4-.8-.2-.4-.4-.8-.7-1.2-.4-.4-1.1-.7-1.5-.4,0,0,0,0,0,0-.1.1-.3.3-.5.3-.4.1-.8-.1-1-.3h0c-.6-.5-1.6-.6-2.6-.2-.9.4-1.6,1.1-2.3,1.8,0,0-.1,0-.2,0,0,.2-.2.4-.3.6-.3.4-.6.7-1,1-.2.2-.5.4-.7.6-.4.4-.7,1.1-.4,1.5,0,.1.2.2.4.4,0,0,.1.1.2.2,1,.9,1.3,2.3,1.5,3.8,0,.4.2,1.1-.2,1.6-.5.7-1.3.6-2.1.6-.7,0-1.2,0-1.4.3-.2.3,0,.7.4,1.4.4.6.8,1.3.6,2-.2.8-.9,1.1-1.6,1.5-.5.2-1,.5-1.2.9-.2.5,0,1,.3,1.6.2.5.5,1.1.5,1.7,0,.7-.3,1.2-.6,1.7l-.4.8c.6.9,1,2,1.3,3,1.4,4.8,1.8,10.2-.9,14.4-.7,1.1-1.6,2-2,3.2-.6,1.7-.1,3.8,1.3,5.1s3.5,1.6,5.2.8c.5-.2.9-.6,1.5-.8.6-.3,1.2-.4,1.9-.5,1.1-.2,2.3-.4,3.4-.1,1.1.3,2.2,1.1,2.3,2.2,1-.6.9-2.1.4-3.1-.6-1-1.4-1.9-1.7-3-.5-2,1.3-3.9,1.6-5.9.5-2.6-1.1-5.1-.8-7.7.1-1.3.7-2.4,1.1-3.6,1.3-4,.2-8.6-2.6-11.6-.4-.4-.8-.8-.7-1.3,0-.5.6-.8,1-1.1Z"/>
        <path class="st1" d="M468.3,200.8c-.5.6-1.2,1.3-2.1,1.3-.4,0-.8-.1-1.1-.2-.3-.1-.6-.2-.8-.2-.3,0-.6.3-.9.5-.1.1-.3.3-.5.4-1.1.7-2.4.7-3.6.6h0c-1.1,0-2.2-.1-3.1.4-.5.3-.9.8-1,1.3,0,.3,0,.6.2.9,0,.1.2.2.3.3.1.1.3.2.4.3.7.7.8,1.9.2,3.1,2.5-.7,5-2.1,7.5-1.7,1.5.2,2.9,1.1,4.4,1.3,3,.4,5.9-2,8.8-1.3,2.6.6,4.3,3.4,7,3.9.6.1,1.3.1,1.9,0-.5-.3-.9-.6-1.2-1.2-.3-.7-.1-1.4,0-2.1v-.2c.1-.4.2-1.2-.2-1.6-.2-.1-.4-.2-.7-.3-.4,0-.8-.2-1.1-.5-.2-.2-.4-.5-.5-.8,0-.2-.2-.4-.3-.5-.2-.2-.5-.3-.9-.4-.6-.2-1.2-.4-1.4-1.1-.2-.8.3-1.4.8-1.8-.5,0-.9.1-1.3.3-.7.3-1.4.7-2.2.7-.9,0-1.8-.3-2.7-.7-1.7-.7-3.5-1.2-5.4-1.5-.1.1-.3.3-.4.4Z"/>
        <path class="st1" d="M484,222.4c-2-.4-4-.6-6-.7-.8,0-1.6,0-2.1.5-.4.4-.5.9-.9,1.4-.9,1.2-2.7.8-4.1.6-1.7-.2-3.7,0-4.8,1.3-.4.4-.6,1-1.1,1.3-1.7,1.1-3.5-1.5-5.4-1.6-1.2,0-2.3.8-2.9,1.8-.6,1-1,2.2-1.6,3.2-.7,1.3-1.9,2.5-3.3,2.8s-3.2-.2-3.9-1.5c-.7-1.3-.5-3.3-1.9-3.9-1-.4-2.3.2-3.1-.5-.3-.2-.5-.6-.7-1-.8-1.7-1.6-3.5-1.5-5.4,0-.6.2-1.3.2-1.9,0-.6,0-1.3,0-1.9-.1-2.4.5-4.8,1.7-6.8,1-1.6,2.6-3.1,4.5-2.9,1.9.2,3.2,1.9,5,2.5,1.1.4,2.2.4,3.2.2.5-.8,1-2.1.3-2.9,0,0-.2-.2-.3-.3-.1-.1-.3-.2-.4-.4-.4-.4-.5-1-.4-1.6.1-.8.7-1.5,1.4-1.9,1.1-.6,2.4-.5,3.5-.5h0c1.1,0,2.2,0,3.1-.5.1,0,.3-.2.4-.3.4-.3.8-.7,1.3-.7.4,0,.8.1,1.2.2.3.1.5.2.8.2.5,0,1-.5,1.5-1.1,0,0,0,0,0,0-1.3-.1-2.7-.2-4,0-1.1,0-4.5.8-5-.8,0-.2,0-.3,0-.5,0-.7,0-1.5-.6-1.8-.6-.3-1.1.2-1.7.4-.8.2-1.4-.1-2.1-.5-1.3-.5-2.8-1.2-4.1-.4-2.5,1.4-1.3,5.2-3.7,6.7-.7.4-1.8.4-2.2-.3-.3-.5-.2-1.4-.7-1.7-.4-.2-.9-.1-1.2.1-.5.3-.7,1-.7,1.5,0,.2.1.5.1.7,0,.4-.3.9-.8,1-.4,0-.7,0-1.1,0-.8.1-1.3,1.1-1,1.8.1.2.3.4.3.7.1.6-.5,1.1-1.1,1.3-.8.3-2.3.9-2.6,1.9-.3,1.1.9,1.9.9,3,0,.6-.7,2.4-1.5,1.7-.3-.3-.3-.8-.5-1.1-.3-.4-.9-.5-1.3-.3-.4.2-.6.7-.7,1.2,0,.9.6,1.8,1.5,2.1.4.1,1,.1,1.3.4.5.5.3,1.3,0,1.9-.8,1.4-.3,2.7-1,4.1-.5,1-1.2,1.9-1.9,2.7,0,0,0,0,0,0-.2.5-.4,1-.2,1.4,0,.2.3.5.5.7.3.4.7.8.7,1.4,0,.5-.3.8-.5,1.2-.2.2-.3.4-.3.6-.2.6.4,1.1,1.3,1.7.2.2.5.4.7.6,1,.9,1.4,2.2,1.8,3.2.4,1.2.7,2.4.7,3.5.6-.5,1.2-1,1.9-1.3,1.2-.5,2.5-.5,3.3.2h0c.1.1.3.3.4.3,0,0,.1,0,.2-.1,0,0,0,0,.1-.1.8-.6,1.9-.3,2.6.5.4.4.6.9.8,1.4.1.2.2.5.3.7.8,1.4,2.5,2.3,4.1,2.2.2,0,.3,0,.5,0,.5,0,.9-.1,1.4,0,.5,0,.9.3,1.3.6.2.1.4.2.6.3.5.2,1,.3,1.5.4,1,.2,2,.4,2.6,1.2.2.3.4.6.6.9.2.3.3.7.6.9.3.2.6.4,1,.5.5.2.9.4,1.3.7.7.7.7,1.9.4,2.7-.3.7-.8,1.2-1.2,1.7.2,0,.5,0,.7.2.2,0,.4.2.6.2.5.2,1,.4,1.5.4,0,0,.1,0,.2,0,.2,0,.4,0,.7,0,.2,0,.4.2.6.3.1,0,.2.1.3.1.3,0,.6,0,.9-.1.4-.1.9-.3,1.3-.1.7.2,1.1.8,1.4,1.4.1.2.2.4.3.6.5.8,1.6,1.1,2.5.7,0-.1,0-.2,0-.4,0-.8-.8-1.4-1.4-2-2.2-2-4-4.4-5.2-7.1-.4-.8-.8-1.7-1.4-2.4-1.2-1.2-3.1-1.3-4.7-1.9-2-.8-3.5-2.7-3.8-4.8,1-.6,2.2.4,3.1,1.2.9.8,2.2,1.7,3.1.9.8-.7.5-2.2,1.2-3,.5-.6,1.5-.6,2.3-.8,1.8-.3,3.4-1.3,4.9-2.3.9-.6,1.9-1.3,2.5-2.3.5-1,.6-2.1,1.2-3.1.8-1.4,2.4-2.2,3.9-2.9,1.1-.5,2.5-.9,3.3,0,.3.4.5.9.8,1.2.7.7,2,.4,2.6-.4s.8-1.8.9-2.8c0-.7.1-1.4-.4-1.9-.3-.3-.7-.3-1-.4Z"/>
        <path class="st1" d="M477.4,268c-1.2-.5-3,.2-3.8-.8-.5-.5-.5-1.3-.8-1.9-.7-1.4-3.1-1.9-3.2-3.5-.1-1.4,1.5-2.3,2.2-3.4-.1,0-.2,0-.4,0-.9,0-1.8-.4-2.4-1.2-.1-.2-.3-.5-.4-.7-.3-.5-.5-.9-.9-1-.3,0-.6,0-.9.1-.4.1-.9.3-1.4.1-.2,0-.3-.1-.4-.2-.1,0-.2-.1-.3-.2-.1,0-.2,0-.4,0,0,0-.2,0-.2,0-.7,0-1.3-.2-1.8-.5-.2,0-.4-.2-.6-.2-.4-.2-.9-.2-1.3,0-.1.1-.3.2-.4.3,0,0-.2.1-.3.1-.2,0-.3.1-.5.1-.9.1-1.6-.4-2.2-.9-.2-.1-.3-.3-.5-.4-.9-.6-2.1-.7-3.3-.4-.1,2.9-3.7,5.4-3.1,8.1.3,1.2,1.4,1.9,2.5,2.6,1,.6,2.1,1.2,3.1,1.9,1.8,1.1,5,3,3.2,5.4-.4.5-.9,1.1-.8,1.8.1.9,1.3,1.4,1.4,2.3,0,.3,0,.7,0,1,0,.3.1.7.4.9.4.2.9-.1,1.4-.1.7,0,1.1.7,1.5,1.2,3.5,3.6,7.7-4.5,11.5-3.9.4,0,.9.2,1.3.1.4-.1.8-.5,1-.8.8-.9,1.6-1.9,1.9-3,.3-1.2-.1-2.6-1.2-3.1Z"/>
        <path class="st1" d="M506.7,192.7c-1.1-.3-2.1-.6-3,.4-.5.6-.7,1.4-1.4,1.9-.7.5-1.7.5-2.5.9-.8.4-1.1,1.8-.2,2-1.7,1-3.4,2.1-5.1,3.1-.9.6-1.9,1.1-2.9,1.4-3.3.9-6.8-1-10.2-1.1,0,.2-.2.3-.3.4h0c-.4.5-.8.9-.7,1.2,0,.3.4.4.9.6.4.1.9.3,1.2.6.2.2.3.5.4.7,0,.2.2.4.3.5.2.2.5.2.8.3.3,0,.7.2,1,.4.6.5.8,1.3.5,2.4v.3c-.2.6-.3,1.1,0,1.6.2.4.6.7,1.1,1,0,0,.2.1.3.2,0,0,.1,0,.2.1,1.6-.5,3.1-1.3,4.7-1.6,1.6-.3,3.2-.1,4.8-.4s3.2-1.2,3.6-2.8c.2-.7,0-1.5.3-2.2.5-1.3,2.2-1.5,3.3-2.4,1.5-1.2,7.1-8.4,3.1-9.6Z"/>
      </g>
      <g>
        <path class="st0" d="M634.6,267.6c.1,0,.2.2.2.3.2,1-.3,2,0,2.9.2.9,1.2,1.1,2.2,1.3,1.5-2.5,3.2-4.8,5.1-7-4.2-2.3-8.6-4-13.3-5.1-.1,0-.2-.1-.3-.2,0-.1,0-.2,0-.3.5-1.3,1.5-2.3,2.7-3-.1-.6.3-1.4,1.2-2l.3-.2c1.1-.8,2.1-1.5,3-2.3-.3-.2-.5-.4-.7-.9-.3-.8-.1-4.8-.7-5.1-.7-.3-1.5.3-1.7,1-.2.7,0,1.5,0,2.2,0,.7-.2,1.6-.8,1.9-.5-1.7-1.2-3.4-2.2-4.9-.3-.5-.6-.9-.7-1.4-.2-.8.1-1.6,0-2.4-.1-1.6-1.6-3-1.3-4.5.3-1.7,2.4-2.5,2.7-4.2.2-1.2-.7-2.4-1.4-3.4s-1.4-2.4-.7-3.5c.2-.3.4-.5.5-.8.1-.7-.6-1.2-1.2-1.5-1.2-.6-2.6-1.2-3.9-.9-.8.2-1.5.7-2.3.5-.4-.1-.7-.4-1.1-.5-.4,0-.8,0-1.1,0-1.4,0-2.4-1.1-3.4-2.1-3.8-3.6-10-4.3-14.5-1.6-2.8,1.7-5.2,4.7-8.5,4.8-.7,0-1.4-.1-2.1,0-.7,0-1.4.4-1.7,1.1-.3.8.2,1.6.3,2.4.2,1.5-.9,3.1-2.4,3.2-.5-.8-.2-1.8-.1-2.7,0-.9,0-2-.9-2.4-.3-.1-.7-.2-.9-.5-.2-.3,0-.8,0-1.1-.1-.3-.6-.4-.9-.4-1.4,0-3.2-.2-4.6.3-1.4.4-2,2-2.9,3.2,0,0-.1.2,0,.3,0,0,.1.1.2.2,1.5.5,3-1.3,4.4-.8.8.3,1.2,1.3,1.2,2.2,0,.4,0,.9.1,1.2.2.4.5.6.9.8.9.6,1.8,1.1,2.7,1.7-.1.4-.2.8-.3,1.2,2.3.8,5.1-1.1,7.2,0,.3.2.6.4.9.5.6.2,1.2.1,1.8,0,.6-.1,1.2-.2,1.8,0,.5.3.8,1.1.3,1.5.4.4.9.7,1.4.8.4.9-.9,1.8-.7,2.8,0,.2.2.4.4.6,1.3,1.7,2.8,3.5,4.9,4.1.8.2,1.8.2,2.5-.3.4-.2.7-.6,1.2-.5.9,0,1,1.5,1.8,1.8.4.1.9-.1,1.3-.3,3.3-1.6,7.6,0,10.8-1.8.8-.5,1.6-1.5,2.6-1,.5.3.8.9.6,1.4-.1.6-.7,1.2-.4,1.8.1.2.3.3.3.6,0,.2-.2.4-.4.5-1.2.7-2.7,1.4-4,.8-.3-.1-.7-.3-.9-.1-.1,0-.2.2-.3.3-.3.2-.8-.1-1-.4-1.3-1.3-3.7-1.2-5,.2-.7.7-1,1.7-1.5,2.5s-1.6,1.5-2.5,1.1c-.5-.2-.8-.6-1.3-.8-.4-.2-.8-.3-1.2-.3-.5,0-.9-.1-1.4-.2-1.2-.2-2.4-.3-3.5,0-1.1.4-1.9,1.2-2.7,2-.1.1-.3.3-.4.5-.3.7.5,1.5,1.3,1.6s1.5-.3,2.3-.5c2.3-.4,4.7,1.6,4.8,3.9,0,.4,0,.8,0,1.1.3.8,1.6,1.1,2.1.4.2-.2.3-.6.7-.6.4,0,.7.3.8.7.3.6.6,1.3.9,2,.2.4.4.9.1,1.3-.4.6-1.3.3-1.9.7-.4.3-.4.9-.2,1.4.2.5.5.9.7,1.3.3.7.3,1.5.6,2.2s.8,1.4,1.5,1.5c1,0,1.8-1.1,2.9-1,.6,0,1,.5,1.6.5.5,0,1-.3,1.4-.7.9-.8,1.9-1.8,1.6-3-.2-.5-.6-1-.4-1.4.3-.8,1.9-.5,2.2-1.4.2-.6-.4-1.1-.2-1.6.2-.6.9-1.1,1.4-.4.2.4.2.8.2,1.3s0,.9.3,1.2c.6.5,1.6,0,2.1.6.5.5.2,1.6.9,2,.7.4,1.6-.6,2.4-.3.5.2.7.9.8,1.5.2.6.7,1.2,1.2.9.1,0,.2-.2.3-.3.5-.4,1.2-.3,1.7,0,.5.3.9.8,1.3,1.3.4-.4.9-.7,1.3-1.1,0,0,.2-.1.3-.1Z"/>
        <path class="st0" d="M718.5,301.5c.9-.8,1.3-2,1.3-2v-50.5l-1.7.2c-.7,1-2.2.3-3-.6-.8-.9-1.8-2.1-2.9-1.6-.3.1-.6.4-.9.5-1,.2-1.6-1.2-2.6-1.6-1.3-.6-2.8.8-4.1.4-.7-.2-1.2-.9-1.8-1.2-.8-.4-1.8-.2-2.7-.3-1.3-.2-2.5-.9-3.6-1.7-2.4-1.7-4.9-3.4-7.3-5.1-.7-.5-1.3-.9-2.1-1.2-.8-.3-1.7-.3-2.6-.4-1.9-.2-3.7-.8-5.4-1.8-1.2-.7-2.5-1.6-3.8-1.2-.8.2-1.3.9-1.9,1.4-1.4,1.3-3,2.4-4.8,3-.5.2-1,.3-1.2.7-.6,1.2,1.6,2.3,1.2,3.6-.2.9-1.5,1-2.3.8s-1.8-.6-2.6-.2c-.5.3-.8.9-1.4,1.2-1.4.8-3.2-.9-4.6-.2-1.7.8-.7,3.5-1.8,5.1-1.1,1.7-4,1.5-4.8,3.3-.4,1,0,2.3-.8,3-.5.5-1.4.4-2.1.9-.4.3-.7.8-1,1.2-1.3,1.8-3.8,2.7-5.9,2.1-1.4-.4-2.6-1.4-3.3-2.7-.6-1.1-.2-2.8-1-3.7-.3-.4-.7-.5-1-.7-1,.9-2.1,1.7-3.3,2.6l-.3.2c-.5.4-1,1-.8,1.4,0,0,0,.2,0,.3,0,.1,0,.2-.2.2-1,.6-1.9,1.4-2.4,2.4,4.7,1.2,9.2,2.9,13.4,5.3.1,0,.2.2.2.3s0,.2,0,.3c-1.9,2.2-3.6,4.6-5.1,7,.4,0,.8.2,1.1.4.7.4,1.2,1.1,2,1.4.8.3,1.7.3,2.5.3,3.3-.1,6.9-.1,9.6,1.7.5.3.9.7,1.5.9,1,.4,2.1,0,3.1.3,1.9.5,3,2.7,4.9,3.4,1.8.6,3.9.7,5.8,1.1,2.3.5,4.4,1.4,6.2,2.8,1.2,1,2.3,2.1,3.8,2.7.4.2.9.3,1.1.7.4.7-.2,1.5-.1,2.3,0,.5.4.9.7,1.3.9,1,1.8,2,2.7,3,.7.7,1.4,1.6,1.5,2.6,0,.8-.3,1.6-.2,2.4.3,1.9,2.8,2.3,4.1,3.7-.7.7-.7,2.1.2,2.7-.4.7-1.6.1-2.2.7-.5.5-.1,1.4.5,1.7s1.3.3,2,.6c.6.2,1.3.9,1,1.5-.5-.5-1.6-.2-1.7.5s.7,1.4,1.4,1.1c0,.7-1.1.9-1.8.9-3.4,0-6.8,1.3-9.1,3.8-2.2,2.4-3.4,5.6-4.3,8.8-.3.9-.2,2.2.7,2.4.4,0,.8-.2,1.2-.5,1.6-1,3.7-1.2,5.5-.6,1,.4,2.1,1,3,.5.3-.2.6-.5.9-.7,1.5-.9,3.4.7,5.1.7.2,0,.4,0,.6-.1.4-.2.5-.8.6-1.2.3-1.4,1.6-2.6,3-2.8.3,0,.6,0,.8,0,.3.2.4.5.6.8.5.8,1.5,1.3,2.5,1.1.7-.1,1.3-.5,1.9-.9,1-.6,2.1-1,3.2-.9,1.8.1,2.8,2.2,4.1,3.2,2.5,2,2.9,1.7,6,5.5s5.4,5.1,5.4,5.1v-26.2s0-3.5-.8-4.8c-.8-1.3-1.4-1.3-1.2-2.7.3-1.4.3-1,1.2-1.8Z"/>
      </g>
    </g>
  </g>
</svg>