<?xml version="1.0" encoding="UTF-8"?>
<svg id="Layer_1" data-name="Layer 1" xmlns="http://www.w3.org/2000/svg" viewBox="0 0 704.65 767.47">
  <defs>
    <style>
      .cls-1 {
        fill: #fdfdfd;
        stroke-width: 0px;
      }
    </style>
  </defs>
  <path class="cls-1" d="M624.64,373.2c-2.78-18.39-1.72-37.09-6.25-55.43-3.5-14.19-7.24-28.3-12.36-41.86-4.7-12.46-10.29-24.67-17.09-36.33-8.56-14.67-17.78-28.8-28.52-41.95-11.37-13.92-24.39-26.23-37.92-37.96-9.66-8.37-20.19-15.66-31.29-22.06-9.75-5.62-19.31-11.51-29.65-16.18-9.97-4.5-19.98-9.18-30.42-11.91-8.93-2.34-17.79-5.16-26.76-7.38-13.4-3.32-27.03-4.47-40.47-5.48-15.96-1.2-32.14-1.25-48.32.61-14.41,1.66-28.73,3.74-42.68,7.32-7.14,1.83-14.53,3.43-21.41,6.42-9.11,3.96-18.45,7.3-27.5,11.49-8.31,3.84-16.15,8.37-24.1,12.73-11.66,6.4-22.22,14.5-32.75,22.59-10.26,7.88-19.4,17.02-28.17,26.52,0,0-.08.12-.08.12-3.02,1.67-4.91,4.38-6.59,7.27,0,0,0-.03,0-.03-1.92.22-3.87.41-3.15,3.22-.27.57-.54,1.13-.81,1.7-1.25-.29-2.51.03-3.19.97-5.58,7.62-11.37,15.11-16.5,23.02-4.38,6.75-7.88,14.08-11.82,21.1-4.8,8.55-8.76,17.4-12.78,26.31-2.75,6.1-4.04,12.64-6.77,18.66-3.04,6.69-5.09,13.85-6.48,20.81-2.91,14.6-7.39,29.13-6.85,44.22.4,11.12-3.7,21.86-.15,33.46,3.42,11.18,10.24,18.21,20.12,21.49,7.31,2.43,15.51,3.72,23.37,3.89,13.91.3,27.77.41,41.76-1.5,14.16-1.93,28.24-4.14,42.22-6.93,7.62-1.52,15.22-3.68,22.4-6.61,6.58-2.68,13.36-4.84,19.99-7.29,13.1-4.83,25.77-10.57,38.42-16.35,9.62-4.4,18.77-9.83,28.12-14.82,2.06-1.1,4.1-2.27,4.63-4.85,1.08.07,2.21.31,2.93-.85,2.8-.56,5.21-1.79,6.96-4.12,0,0-.13-.32-.13-.32l.15.31c.81-.04,1.8.2,2.39-.17,10.53-6.69,21.04-13.4,31.46-20.25,1.26-.83,2.81-1.78,3.05-3.63,1.77.57,3.19-.19,4.56-1.21,6.5-4.87,13.03-9.7,19.51-14.6,16.15-12.2,31.91-24.89,47.12-38.25,10.47-9.19,20.72-18.61,29.9-29.13.54-.62,1.44-1.12.99-2.04-.43-.89-1.45-.9-2.18-.49-6.88,3.82-14.4,6.7-19.46,13.2-.52.19-1.05.38-1.57.58h0c-1.69-.72-2.76-.18-3.26,1.57-.18.08-.28.21-.29.41-1.43.21-2.58.8-3.08,2.28-.23.05-.39.18-.49.39-7.99,2.31-14.86,7-21.92,11.06-14.86,8.55-30.45,15.47-46.13,22.23-10.18,4.39-20.68,7.98-31.2,11.57-14.63,4.99-29.5,9-44.52,12.12-14.26,2.96-28.63,6.55-43.35,6.06-11.49-.39-22.77,3.21-34.23,1.49-5.47-.82-10.91-1.16-16.41-1.14-14.72.06-29.17-2.24-43.51-5.35-3.42-.74-4.22-2.53-3.95-6.1.46-6.1,3.78-10.97,5.99-16.26,3.24-7.77,6.89-15.41,10.98-22.77,6.29-11.31,14.59-21.24,22.36-31.55,12.47-16.55,27.79-29.78,44.76-41.4,8.8-6.03,18.04-11.14,27.69-15.64,10.81-5.04,21.9-9.18,33.35-12.55,11.21-3.3,22.73-4.75,34.12-6.99,16.06-3.16,32.17-3.31,48.07-.89,17.29,2.63,34.56,5.57,51.2,11.97,9.6,3.69,19.15,7.56,28.17,12.23,10.22,5.29,19.98,11.59,29.31,18.57,15.56,11.64,29.09,25.16,41.11,40.31,7.43,9.37,13.4,19.63,19.39,29.95,4.93,8.5,9.38,17.38,12.58,26.43,5.33,15.1,10.45,30.47,11.55,46.78.55,8.25,3.06,16.42,3.09,24.64.07,19.81-2.7,39.29-7.44,58.64-3.58,14.59-8.78,28.38-14.94,41.96-7.25,15.99-17.7,29.91-28.07,43.9-6.58,8.88-15.06,15.86-23.23,23.15-3.57,3.18-6.84,6.76-10.68,9.57-6.26,4.57-12.78,8.82-19.38,12.9-6.56,4.06-13.26,7.93-20.07,11.55-6.67,3.55-14.29,4.88-20.85,8.8-5.57,3.33-9.52,1.25-11.36-4.99-3.29-11.17-3.03-22.71-4.3-34.11-2.2-19.74-2.43-39.41.04-59.14.53-4.25.9-8.61-.03-12.91.06-.67.11-1.35.17-2.02,1.61-7.21,3.28-14.41,4.79-21.64.43-2.07.85-4.25-.02-6.37.06-.66.12-1.33.18-1.99,1.29-1.02,1.48-2.58,1.85-4,5.28-20.73,11.11-41.29,18.94-61.24,1.93-4.92,4.03-9.78,6.28-14.57,4.08-8.67,8.18-17.33,12.43-25.93,5.59-11.29,11.68-22.26,18.14-33.03,5-8.35,10.27-16.54,15.41-24.81.66-1.06.92-2.23-.08-3.2-1.2-1.17-2.46-.77-3.53.25-3.82,3.65-7.75,7.21-11.37,11.04-20.55,21.76-39.06,45.24-57.31,68.91-6.16,8-11.15,16.89-17.16,25.02-8.11,10.97-14.65,22.91-21.9,34.4-6.78,10.73-12.96,21.89-18.59,33.26-2.12,4.28-5.05,8.08-6.76,12.6-2.34,6.16-4.87,12.29-7.82,18.18-2.89,5.78-5.84,11.77-6.97,17.89-1.36,7.35-3.96,14.31-5.84,21.42-3.06,11.57-6.7,23.01-9.18,34.73-.82,3.85-.1,8.01-.78,11.91-4.28,24.66-4.64,49.25.15,73.91,2.01,10.35,10.56,19.92,20.79,21.25,17.29,2.25,34.6,1.26,51.66-1.85,11.4-2.08,22.98-3.31,34.11-7.22,8.7-3.06,17.7-5.33,26.36-8.64,8.53-3.26,16.79-7.06,25.02-11.04,7.58-3.66,15.02-7.65,22.27-11.8,9.28-5.31,18.19-11.37,26.42-18.39,7.29-6.23,14.93-12.05,21.36-19.24,4.53-5.07,9.09-10.13,13.48-15.32,5.03-5.95,10.07-11.91,14.79-18.1,7.84-10.29,14.66-21.22,20.88-32.62,4.37-8.01,8.78-16.03,12.24-24.41,4.67-11.31,8.77-22.84,11.88-34.77,4.5-17.29,8.97-34.55,8.98-52.48,0-9.05,3.13-17.94,1.79-26.82Z"/>
  <path class="cls-1" d="M329.98,446.61c1.5-2.56,3.68-4.92,4.43-7.68,1.58-5.85,4.95-10.82,7.64-16.03,4.7-9.11,10.1-17.89,15.83-26.45,9.23-13.78,17.56-28.2,27.4-41.51,12.01-16.23,23.63-32.79,36.89-48.09,5.28-6.1,10.36-12.36,16.2-17.95-.16.49,0,.84.52.91.14.02.49-.39.46-.54-.11-.52-.47-.7-.97-.39,0,0,0-.02,0-.02-.2-.85-.11-1.64.5-2.33,4.73-5.32,9.45-10.66,14.2-15.96,1.2-1.33,3.31-2.64,1.71-4.54-1.96-2.32-3.73.13-5.04,1.22-7.89,6.6-15.9,13.09-23.35,20.17-9.73,9.26-20.06,17.85-30.91,25.62-15.62,11.18-30.75,23.07-47.02,33.35-8.68,5.48-16.93,11.59-25.64,17.06-8.98,5.64-18.17,10.91-27.2,16.45-6.62,4.07-13.36,8.06-20.41,11.29-8.24,3.78-16.38,7.77-24.64,11.52-10.19,4.63-19.91,10.22-30.36,14.44-4.33,1.75-9.05,2.41-13,4.47-10.37,5.43-21.68,8.42-32.26,13.35-9.92,4.62-20.33,8.45-31.2,11.01-8.29,1.95-16.62,5.14-23.41,10.48-17.34,13.65-24.62,31.61-21.06,53.59,1.02,6.28,3.48,12.24,6.84,17.51,6.75,10.6,13.83,21.03,22.43,30.27,6.2,6.66,11.45,14.16,18.31,20.26,13.01,11.58,26.26,22.83,40.62,32.74,7.35,5.08,15.45,8.78,24.03,10.37,17.02,3.15,31.44-3,44.25-14.17,10.47-9.13,14.96-21.49,18.58-34.02,3.46-11.99,8.56-23.26,12.94-34.84,1.47-3.88,2.47-7.98,4.28-11.67,5.24-10.65,9.14-21.86,14.06-32.64,3.56-7.81,6.67-15.89,10.97-23.28,4.61-7.91,8.73-16.07,13.35-23.96ZM423.48,296.99s0,0,0,0c-.15-.21-.28-.56-.46-.58.18.03.31.38.46.58Z"/>
</svg>