<svg width="424" height="159" viewBox="0 0 424 159" fill="none" xmlns="http://www.w3.org/2000/svg">
<g clip-path="url(#clip0_3_2)">
<path d="M408.481 85.6083C410.203 85.9626 411.926 86.4248 413.633 87.0102C415.341 87.5956 416.879 88.3658 418.263 89.321C419.647 90.2761 420.77 91.5086 421.631 92.9875C422.493 94.4664 422.923 96.2843 422.923 98.441C422.923 103.155 421.37 106.745 418.248 109.225C415.141 111.705 410.573 112.938 404.59 112.938C401.529 112.938 398.96 112.614 396.853 111.982C394.746 111.335 392.992 110.38 391.577 109.102C390.162 107.823 389.086 106.236 388.332 104.341C387.578 102.446 387.04 100.274 386.686 97.8402H394.208C394.777 100.629 395.853 102.755 397.407 104.218C398.96 105.666 401.36 106.406 404.59 106.406C406.035 106.406 407.404 106.267 408.696 105.974C409.988 105.682 411.111 105.235 412.065 104.619C413.018 104.002 413.772 103.278 414.31 102.431C414.848 101.584 415.125 100.582 415.125 99.4116C415.125 97.9635 414.725 96.7772 413.91 95.8683C413.11 94.9594 412.018 94.2199 410.665 93.6345C409.311 93.0491 407.773 92.5716 406.035 92.1864C404.313 91.8013 402.513 91.4161 400.667 91.0002C398.822 90.5996 397.115 90.0451 395.561 89.3364C394.008 88.6432 392.654 87.7804 391.501 86.7637C390.347 85.7469 389.44 84.5299 388.778 83.1434C388.117 81.7569 387.778 80.1085 387.778 78.2599C387.778 74.0696 389.255 70.8498 392.193 68.616C395.13 66.3822 399.252 65.2576 404.559 65.2576C407.558 65.2576 410.111 65.6428 412.218 66.3976C414.326 67.1525 416.048 68.2001 417.402 69.5403C418.755 70.8806 419.801 72.4828 420.555 74.3469C421.308 76.2109 421.816 78.2136 422.108 80.3704H414.587C414.356 79.2612 414.003 78.1828 413.51 77.1353C413.018 76.0877 412.372 75.1633 411.557 74.3777C410.757 73.592 409.773 72.9604 408.619 72.4982C407.466 72.036 406.112 71.805 404.559 71.805C401.852 71.805 399.668 72.3133 398.022 73.3301C396.376 74.3469 395.561 75.8258 395.561 77.7361C395.561 79.0763 395.899 80.1547 396.592 80.9712C397.284 81.7877 398.222 82.4656 399.406 83.0202C400.591 83.5747 401.959 84.0369 403.513 84.422C405.112 84.8072 406.758 85.1923 408.481 85.6083ZM376.504 106.298C376.504 107.284 376.55 108.239 376.627 109.132C376.72 110.041 376.904 110.858 377.196 111.628H369.583C369.46 110.812 369.368 109.949 369.275 109.055C369.183 108.146 369.152 107.238 369.152 106.298V89.1823C369.152 86.394 369.014 83.9137 368.722 81.7569C368.429 79.6001 367.891 77.7977 367.076 76.3496C366.276 74.9015 365.138 73.7923 363.708 73.0374C362.262 72.2825 360.385 71.8974 358.094 71.8974C355.787 71.8974 353.91 72.2825 352.48 73.0374C351.034 73.7923 349.911 74.9015 349.111 76.3496C348.312 77.7977 347.758 79.6155 347.466 81.7569C347.173 83.9137 347.035 86.3785 347.035 89.1823V111.628H339.683V89.1823C339.683 85.5775 339.929 82.2961 340.421 79.3536C340.913 76.4112 341.821 73.9155 343.144 71.8358C344.466 69.7714 346.343 68.1693 348.758 67.0293C351.172 65.8892 354.295 65.3192 358.094 65.3192C361.954 65.3192 365.076 65.8892 367.476 67.0293C369.875 68.1693 371.721 69.7714 373.059 71.8358C374.382 73.9001 375.289 76.4112 375.781 79.3536C376.274 82.2961 376.52 85.5621 376.52 89.1823V106.298H376.504ZM304.923 106.39C307.399 106.39 309.491 105.944 311.198 105.035C312.905 104.126 314.289 102.986 315.397 101.584C316.489 100.182 317.35 98.6721 317.95 97.0391C318.55 95.4062 318.98 93.8656 319.211 92.4175H307.537C304.077 92.4175 301.447 93.0183 299.632 94.2045C297.817 95.3908 296.909 97.1316 296.909 99.3962C296.909 100.736 297.14 101.846 297.601 102.708C298.063 103.586 298.647 104.295 299.37 104.85C300.093 105.404 300.939 105.789 301.923 106.036C302.877 106.267 303.877 106.39 304.923 106.39ZM326.978 109.102C327.04 109.98 327.209 110.812 327.501 111.628H319.888C319.765 111.228 319.703 110.796 319.673 110.365C319.642 109.934 319.596 109.471 319.55 109.009C319.488 108.547 319.457 108.085 319.457 107.654V106.036C317.965 108.131 315.997 109.81 313.582 111.058C311.167 112.306 308.276 112.938 304.938 112.938C302.569 112.938 300.462 112.614 298.586 111.982C296.709 111.335 295.094 110.427 293.741 109.225C292.387 108.039 291.341 106.637 290.634 105.035C289.911 103.432 289.557 101.676 289.557 99.7505C289.557 98.3024 289.834 96.731 290.372 95.0826C290.926 93.4189 291.864 91.9245 293.233 90.5842C294.587 89.244 296.417 88.1194 298.724 87.2258C301.031 86.3169 303.969 85.8702 307.553 85.8702H319.488C319.427 83.4207 319.257 81.3101 318.965 79.5385C318.673 77.7669 318.165 76.3034 317.412 75.1788C316.658 74.0387 315.643 73.2069 314.336 72.6523C313.044 72.0977 311.352 71.8204 309.275 71.8204C306.045 71.8204 303.646 72.5752 302.062 74.085C300.478 75.5947 299.432 77.6899 298.909 80.3704H291.388C292.018 75.5331 293.941 71.805 297.14 69.186C300.339 66.5671 304.384 65.2576 309.291 65.2576C313.151 65.2576 316.243 65.9047 318.55 67.1833C320.857 68.462 322.626 70.1874 323.872 72.3287C325.117 74.4855 325.917 77.012 326.286 79.9236C326.655 82.8353 326.855 85.8856 326.855 89.0899V106.298C326.855 106.76 326.871 107.222 326.902 107.7C326.871 108.162 326.917 108.624 326.978 109.102ZM280.898 66.4747C281.652 66.4747 282.344 66.4901 282.974 66.5209C283.605 66.5517 284.235 66.5979 284.881 66.6595V73.2069C284.42 73.2069 283.959 73.176 283.497 73.1144C283.097 73.1144 282.667 73.099 282.205 73.0682C281.744 73.0374 281.313 73.022 280.913 73.022C278.606 73.022 276.73 73.3917 275.299 74.1158C273.854 74.8398 272.731 75.7488 271.931 76.8271C271.131 77.9055 270.577 79.0609 270.285 80.278C269.993 81.495 269.855 82.6042 269.855 83.5901V111.628H262.503V83.5901C262.503 81.5566 262.749 79.5077 263.241 77.4742C263.733 75.4406 264.64 73.6074 265.963 71.9744C267.286 70.3414 269.162 69.0166 271.577 67.9998C273.977 66.983 277.099 66.4747 280.898 66.4747ZM251.782 66.4747C252.536 66.4747 253.228 66.4901 253.859 66.5209C254.489 66.5517 255.12 66.5979 255.766 66.6595V73.2069C255.304 73.2069 254.843 73.176 254.382 73.1144C253.982 73.1144 253.551 73.099 253.09 73.0682C252.628 73.0374 252.197 73.022 251.798 73.022C249.49 73.022 247.614 73.3917 246.184 74.1158C244.753 74.8398 243.615 75.7488 242.815 76.8271C242.015 77.9055 241.462 79.0609 241.17 80.278C240.877 81.495 240.739 82.6042 240.739 83.5901V111.628H233.387V83.5901C233.387 81.5566 233.633 79.5077 234.125 77.4742C234.617 75.4406 235.525 73.6074 236.848 71.9744C238.17 70.3414 240.047 69.0166 242.461 67.9998C244.861 66.983 247.968 66.4747 251.782 66.4747ZM199.734 106.39C202.21 106.39 204.302 105.944 206.009 105.035C207.716 104.126 209.101 102.986 210.208 101.584C211.3 100.182 212.162 98.6721 212.761 97.0391C213.361 95.4062 213.792 93.8656 214.023 92.4175H202.349C198.888 92.4175 196.258 93.0183 194.443 94.2045C192.628 95.3908 191.721 97.1316 191.721 99.3962C191.721 100.736 191.951 101.846 192.413 102.708C192.874 103.586 193.459 104.295 194.181 104.85C194.904 105.404 195.75 105.789 196.735 106.036C197.688 106.267 198.688 106.39 199.734 106.39ZM221.79 109.102C221.851 109.98 222.021 110.812 222.313 111.628H214.699C214.592 111.228 214.515 110.796 214.484 110.365C214.453 109.934 214.407 109.471 214.361 109.009C214.299 108.547 214.269 108.085 214.269 107.654V106.036C212.777 108.131 210.808 109.81 208.393 111.058C205.978 112.306 203.087 112.938 199.749 112.938C197.381 112.938 195.273 112.614 193.397 111.982C191.521 111.351 189.906 110.427 188.552 109.225C187.199 108.039 186.153 106.637 185.445 105.035C184.722 103.432 184.369 101.676 184.369 99.7505C184.369 98.3024 184.645 96.731 185.184 95.0826C185.737 93.4189 186.676 91.9245 188.045 90.5842C189.398 89.244 191.228 88.1194 193.535 87.2258C195.843 86.3169 198.78 85.8702 202.364 85.8702H214.299C214.238 83.4207 214.069 81.3101 213.776 79.5385C213.484 77.7669 212.977 76.3034 212.223 75.1788C211.469 74.0387 210.454 73.2069 209.147 72.6523C207.84 72.0977 206.163 71.8204 204.087 71.8204C200.857 71.8204 198.457 72.5752 196.873 74.085C195.289 75.5947 194.243 77.6899 193.72 80.3704H186.199C186.829 75.5331 188.752 71.805 191.951 69.186C195.15 66.5671 199.196 65.2576 204.102 65.2576C207.963 65.2576 211.054 65.9047 213.361 67.1833C215.668 68.462 217.437 70.1874 218.683 72.3287C219.929 74.4855 220.729 77.012 221.098 79.9236C221.467 82.8353 221.667 85.8856 221.667 89.0899V106.298C221.667 106.76 221.682 107.222 221.713 107.7C221.682 108.162 221.728 108.624 221.79 109.102ZM156.606 106.39C158.913 106.39 160.836 105.913 162.359 104.942C163.881 103.987 165.112 102.708 166.035 101.106C166.958 99.504 167.604 97.6554 167.988 95.5602C168.357 93.4651 168.557 91.3083 168.557 89.1053C168.557 86.3169 168.373 83.8366 167.988 81.6799C167.619 79.5231 166.958 77.7207 166.035 76.2725C165.112 74.8244 163.881 73.7152 162.359 72.9604C160.836 72.2055 158.913 71.8204 156.606 71.8204C154.299 71.8204 152.423 72.2055 150.992 72.9604C149.547 73.7152 148.424 74.8244 147.624 76.2725C146.824 77.7207 146.271 79.5385 145.978 81.6799C145.686 83.8366 145.548 86.3015 145.548 89.1053C145.548 91.8937 145.686 94.374 145.978 96.5308C146.271 98.6875 146.809 100.49 147.624 101.938C148.424 103.386 149.562 104.495 150.992 105.25C152.423 106.005 154.299 106.39 156.606 106.39ZM158.421 65.2576C161.59 65.2576 164.281 65.8276 166.512 66.9676C168.726 68.1076 170.526 69.7098 171.91 71.7741C173.294 73.8385 174.31 76.3496 174.94 79.292C175.571 82.2345 175.894 85.5004 175.894 89.1207C175.894 91.8629 175.602 94.6205 175.032 97.4243C174.463 100.213 173.448 102.785 172.002 105.112C170.557 107.438 168.588 109.333 166.081 110.781C163.574 112.229 160.421 112.968 156.606 112.968C152.746 112.968 149.624 112.445 147.224 111.397C144.825 110.349 142.964 108.824 141.61 106.806C140.257 104.804 139.349 102.308 138.888 99.3346C138.426 96.3613 138.196 92.9567 138.196 89.1207V49.2821H145.548V70.5109C146.763 68.7701 148.408 67.4606 150.469 66.5825C152.53 65.689 155.191 65.2576 158.421 65.2576Z" fill="#F82554"/>
<path fill-rule="evenodd" clip-rule="evenodd" d="M137.116 48.2007H146.627V67.7031C147.621 66.8396 148.763 66.1349 150.044 65.5886C152.289 64.616 155.111 64.1762 158.421 64.1762C161.717 64.1762 164.586 64.769 167.002 66.0044L167.004 66.0051L167.005 66.0058C169.382 67.2291 171.32 68.9545 172.807 71.1712C174.281 73.3699 175.342 76.0145 175.996 79.0651C176.645 82.0935 176.974 85.4368 176.974 89.1207C176.974 91.9407 176.673 94.7705 176.091 97.6397L176.09 97.6409C175.497 100.551 174.435 103.244 172.919 105.683C171.376 108.167 169.275 110.185 166.62 111.718C163.908 113.284 160.556 114.05 156.606 114.05C152.661 114.05 149.377 113.517 146.793 112.388C144.22 111.265 142.192 109.612 140.715 107.411C139.253 105.248 138.301 102.593 137.821 99.5007C137.349 96.4599 137.116 92.998 137.116 89.1207V48.2007ZM139.275 50.3636V89.1207C139.275 92.9154 139.504 96.2627 139.955 99.1685C140.398 102.022 141.26 104.358 142.504 106.2L142.505 106.202L142.506 106.203C143.737 108.038 145.431 109.434 147.656 110.406C149.87 111.373 152.83 111.887 156.606 111.887C160.286 111.887 163.24 111.174 165.542 109.844C167.901 108.481 169.738 106.709 171.086 104.54C172.461 102.327 173.43 99.8755 173.974 97.2088C174.53 94.4705 174.814 91.7851 174.814 89.1207C174.814 85.5641 174.497 82.3754 173.885 79.519C173.277 76.6846 172.308 74.3071 171.014 72.3771C169.732 70.4656 168.072 68.987 166.02 67.9304C163.976 66.8861 161.462 66.3391 158.421 66.3391C155.274 66.3391 152.775 66.7615 150.898 67.575L150.895 67.5763L150.892 67.5777C149.005 68.3818 147.524 69.5667 146.433 71.1306L144.468 73.9453V50.3636H139.275ZM204.102 66.3391C199.396 66.3391 195.607 67.5904 192.635 70.0234C189.951 72.22 188.208 75.28 187.462 79.289H192.853C193.458 76.8419 194.531 74.8241 196.129 73.3015C197.991 71.5266 200.709 70.7389 204.087 70.7389C206.248 70.7389 208.082 71.0259 209.568 71.6564C211.06 72.2894 212.245 73.2547 213.121 74.5787C213.988 75.8725 214.534 77.4973 214.842 79.3622C215.145 81.1994 215.317 83.3633 215.379 85.843L215.407 86.9516H202.364C198.859 86.9516 196.068 87.3903 193.931 88.2323L193.928 88.2334L193.925 88.2345C191.719 89.0889 190.027 90.1424 188.804 91.3533L188.802 91.3555L188.799 91.3576C187.547 92.5837 186.705 93.9314 186.209 95.4219C185.699 96.9831 185.448 98.439 185.448 99.7505C185.448 101.54 185.776 103.142 186.429 104.589L186.431 104.593L186.433 104.597C187.073 106.048 188.022 107.323 189.263 108.411L189.266 108.413L189.268 108.416C190.506 109.514 191.991 110.368 193.741 110.957C195.49 111.546 197.479 111.856 199.749 111.856C202.952 111.856 205.667 111.25 207.898 110.097C210.17 108.923 212.004 107.354 213.39 105.408L215.348 102.657V107.654C215.348 108.035 215.376 108.449 215.431 108.866L215.434 108.884L215.436 108.911C215.482 109.367 215.529 109.842 215.561 110.288C215.567 110.374 215.576 110.46 215.586 110.547H220.895C220.808 110.108 220.748 109.663 220.715 109.209C220.656 108.75 220.603 108.237 220.631 107.702C220.602 107.226 220.587 106.762 220.587 106.298V89.0899C220.587 85.9309 220.39 82.9261 220.027 80.0599C219.672 77.265 218.91 74.8819 217.749 72.8712C216.605 70.9062 214.982 69.3174 212.838 68.1296C210.748 66.9708 207.857 66.3391 204.102 66.3391ZM191.268 68.3487C194.694 65.5438 198.995 64.1762 204.102 64.1762C208.068 64.1762 211.361 64.8385 213.884 66.2371C216.354 67.6062 218.268 69.4674 219.616 71.7843L219.617 71.7857L219.618 71.7872C220.948 74.0898 221.785 76.7594 222.169 79.7874C222.544 82.7445 222.747 85.8403 222.747 89.0899V106.298C222.747 106.736 222.761 107.174 222.79 107.63L222.795 107.701L222.79 107.772C222.767 108.122 222.8 108.496 222.861 108.963L222.865 108.994L222.867 109.026C222.922 109.811 223.072 110.545 223.329 111.263L223.847 112.71H213.872L213.657 111.909C213.533 111.448 213.443 110.948 213.407 110.442C213.378 110.034 213.334 109.593 213.288 109.134C213.277 109.05 213.267 108.965 213.258 108.881C211.999 110.119 210.538 111.167 208.888 112.019C206.29 113.362 203.222 114.019 199.749 114.019C197.282 114.019 195.057 113.682 193.053 113.008C191.051 112.334 189.308 111.34 187.838 110.036C186.375 108.753 185.233 107.227 184.459 105.476C183.668 103.72 183.289 101.811 183.289 99.7505C183.289 98.1667 183.591 96.4808 184.158 94.7464L184.158 94.7435L184.159 94.7407C184.77 92.9058 185.804 91.2667 187.287 89.8136C188.77 88.3453 190.737 87.1505 193.143 86.2183C195.62 85.2433 198.703 84.7887 202.364 84.7887H213.184C213.104 82.8432 212.949 81.154 212.711 79.7148C212.435 78.0377 211.967 76.7364 211.327 75.7815L211.325 75.7787L211.323 75.7758C210.692 74.8214 209.847 74.1238 208.726 73.6481C207.598 73.1695 206.078 72.9018 204.087 72.9018C201.004 72.9018 198.923 73.6239 197.617 74.8685C196.233 76.1877 195.271 78.0601 194.78 80.5778L194.609 81.4519H184.969L185.128 80.2304C185.788 75.1704 187.819 71.172 191.268 68.3487ZM309.291 66.3391C304.585 66.3391 300.795 67.5904 297.823 70.0234C295.14 72.22 293.397 75.28 292.651 79.289H298.042C298.647 76.8419 299.72 74.8241 301.318 73.3015C303.18 71.5266 305.898 70.7389 309.275 70.7389C311.432 70.7389 313.283 71.0246 314.757 71.6566C316.249 72.2896 317.434 73.2545 318.31 74.5781C319.176 75.872 319.723 77.497 320.03 79.3622C320.333 81.1994 320.505 83.3633 320.567 85.843L320.595 86.9516H307.553C304.047 86.9516 301.257 87.3903 299.119 88.2323L299.116 88.2334L299.114 88.2345C296.908 89.0889 295.215 90.1424 293.992 91.3533L293.99 91.3555L293.988 91.3576C292.736 92.5835 291.894 93.931 291.398 95.4212C290.888 96.9827 290.637 98.4388 290.637 99.7505C290.637 101.54 290.965 103.142 291.618 104.589L291.62 104.593L291.621 104.597C292.262 106.048 293.211 107.323 294.452 108.411L294.454 108.413L294.457 108.416C295.689 109.51 297.174 110.352 298.933 110.958C300.681 111.547 302.669 111.856 304.938 111.856C308.141 111.856 310.855 111.25 313.087 110.097C315.359 108.923 317.193 107.354 318.578 105.408L320.537 102.657V107.654C320.537 108.035 320.564 108.449 320.62 108.866L320.622 108.884L320.624 108.905C320.67 109.363 320.718 109.84 320.75 110.288C320.756 110.376 320.764 110.463 320.773 110.547H326.084C325.996 110.108 325.937 109.663 325.904 109.209C325.845 108.75 325.792 108.237 325.82 107.702C325.791 107.226 325.776 106.762 325.776 106.298V89.0899C325.776 85.9309 325.579 82.9261 325.215 80.0599C324.861 77.265 324.099 74.8819 322.938 72.8712C321.794 70.9062 320.17 69.3174 318.027 68.1296C315.936 66.9708 313.046 66.3391 309.291 66.3391ZM296.457 68.3487C299.883 65.5438 304.183 64.1762 309.291 64.1762C313.257 64.1762 316.549 64.8385 319.073 66.2371C321.543 67.6062 323.457 69.4674 324.804 71.7843L324.805 71.7857L324.806 71.7872C326.136 74.0898 326.974 76.7594 327.357 79.7874C327.732 82.7445 327.935 85.8403 327.935 89.0899V106.298C327.935 106.736 327.95 107.175 327.979 107.63L327.984 107.701L327.979 107.772C327.956 108.122 327.989 108.496 328.049 108.963L328.053 108.994L328.056 109.026C328.111 109.811 328.261 110.545 328.518 111.263L329.036 112.71H319.091L318.856 111.946C318.7 111.439 318.63 110.919 318.596 110.442C318.567 110.034 318.523 109.593 318.477 109.134C318.466 109.05 318.456 108.965 318.446 108.881C317.188 110.119 315.727 111.167 314.077 112.019C311.479 113.362 308.41 114.019 304.938 114.019C302.471 114.019 300.245 113.682 298.242 113.008L298.238 113.006L298.234 113.005C296.243 112.318 294.5 111.343 293.027 110.036C291.563 108.753 290.422 107.227 289.648 105.476C288.857 103.72 288.478 101.811 288.478 99.7505C288.478 98.1667 288.78 96.4808 289.346 94.7464L289.347 94.7435L289.348 94.7407C289.959 92.9056 290.993 91.2664 292.476 89.8132C293.959 88.3451 295.926 87.1504 298.332 86.2183C300.808 85.2433 303.892 84.7887 307.553 84.7887H318.372C318.293 82.8432 318.137 81.154 317.9 79.7148C317.623 78.0377 317.155 76.7365 316.515 75.7815L316.513 75.7787L316.511 75.7758C315.88 74.8214 315.036 74.1238 313.914 73.6481L313.912 73.6472L313.91 73.6463C312.801 73.1703 311.27 72.9018 309.275 72.9018C306.193 72.9018 304.112 73.6239 302.806 74.8685C301.422 76.1877 300.46 78.0601 299.968 80.5778L299.798 81.4519H290.158L290.317 80.2304C290.977 75.1704 293.008 71.172 296.457 68.3487ZM404.559 66.3391C399.39 66.3391 395.53 67.4363 392.846 69.4774C390.215 71.4778 388.858 74.3568 388.858 78.2599C388.858 79.9788 389.173 81.4624 389.752 82.6772C390.353 83.9359 391.173 85.0343 392.214 85.9518C393.279 86.891 394.539 87.6963 396.001 88.3486L396.005 88.3504L396.009 88.3522C397.484 89.0253 399.117 89.5571 400.896 89.9433L400.9 89.9442L400.905 89.9451C401.926 90.1754 402.918 90.3927 403.895 90.6067C404.693 90.7818 405.482 90.9546 406.269 91.1305C408.058 91.527 409.664 92.0234 411.093 92.6417C412.551 93.2724 413.787 94.094 414.717 95.1499C415.744 96.2965 416.205 97.7576 416.205 99.4116C416.205 100.761 415.884 101.969 415.221 103.012C414.585 104.013 413.71 104.842 412.65 105.527C411.571 106.225 410.325 106.714 408.934 107.029C407.554 107.342 406.104 107.487 404.59 107.487C401.221 107.487 398.505 106.719 396.671 105.01L396.669 105.008L396.667 105.006C395.084 103.514 393.988 101.461 393.347 98.9217H387.955C388.291 100.789 388.747 102.463 389.335 103.941C390.033 105.695 391.019 107.14 392.301 108.299C393.58 109.455 395.187 110.339 397.166 110.947C399.144 111.54 401.601 111.856 404.59 111.856C410.449 111.856 414.736 110.645 417.575 108.379L417.577 108.378C420.392 106.141 421.844 102.893 421.844 98.441C421.844 96.4267 421.442 94.8082 420.699 93.5324C419.914 92.1844 418.898 91.0723 417.65 90.2116C416.352 89.3156 414.903 88.5886 413.284 88.0333C411.622 87.4636 409.944 87.0133 408.264 86.6676L408.246 86.6639L408.228 86.6596C407.3 86.4357 406.414 86.2251 405.542 86.0179C404.776 85.836 404.022 85.6568 403.261 85.4736L403.257 85.4727L403.253 85.4718C401.65 85.0744 400.212 84.5913 398.949 83.9998C397.659 83.3956 396.583 82.6322 395.769 81.6712C394.869 80.6106 394.481 79.2608 394.481 77.7361C394.481 75.4513 395.49 73.6237 397.455 72.4097C399.327 71.2533 401.729 70.7235 404.559 70.7235C406.216 70.7235 407.712 70.9698 409.02 71.4941C410.291 72.0033 411.398 72.7081 412.309 73.6012C413.224 74.4845 413.944 75.5182 414.487 76.6748C414.888 77.5279 415.203 78.3996 415.44 79.289H420.845C420.553 77.6773 420.127 76.169 419.554 74.7528C418.851 73.015 417.884 71.5391 416.643 70.3094C415.418 69.097 413.838 68.1264 411.855 67.4159C409.895 66.7138 407.471 66.3391 404.559 66.3391ZM391.54 67.7547C394.731 65.3281 399.115 64.1762 404.559 64.1762C407.645 64.1762 410.328 64.5718 412.582 65.3793C414.813 66.1786 416.678 67.3031 418.161 68.7713C419.626 70.2222 420.751 71.9506 421.556 73.9409C422.347 75.8992 422.875 77.9909 423.178 80.225L423.344 81.4519H413.709L413.53 80.591C413.316 79.5618 412.988 78.5642 412.533 77.5958C412.093 76.6584 411.522 75.8445 410.808 75.157L410.805 75.1534L410.801 75.1498C410.113 74.4736 409.252 73.9166 408.218 73.5023C407.22 73.1023 406.008 72.8864 404.559 72.8864C401.975 72.8864 400.009 73.3734 398.589 74.2506C397.262 75.07 396.641 76.2003 396.641 77.7361C396.641 78.8919 396.929 79.6989 397.415 80.2713C397.984 80.9432 398.785 81.5355 399.864 82.0405C400.968 82.5579 402.267 82.9988 403.769 83.3715C404.499 83.5472 405.256 83.727 406.027 83.9103C406.909 84.1199 407.811 84.3342 408.716 84.5526C410.475 84.9152 412.236 85.3879 413.983 85.987C415.778 86.6025 417.406 87.4161 418.876 88.4304C420.397 89.4799 421.626 90.8327 422.564 92.4426C423.544 94.1247 424.003 96.1419 424.003 98.441C424.003 103.417 422.348 107.348 418.919 110.072C415.544 112.765 410.695 114.019 404.59 114.019C401.459 114.019 398.78 113.689 396.543 113.019L396.54 113.017L396.537 113.016C394.303 112.331 392.404 111.305 390.854 109.905C389.306 108.506 388.139 106.777 387.329 104.742C386.537 102.749 385.981 100.491 385.618 97.996L385.438 96.7588H395.089L395.265 97.6236C395.803 100.259 396.798 102.159 398.145 103.429C399.419 104.615 401.501 105.324 404.59 105.324C405.967 105.324 407.255 105.192 408.458 104.92C409.651 104.649 410.651 104.245 411.479 103.71C412.326 103.163 412.959 102.544 413.399 101.85C413.813 101.198 414.046 100.404 414.046 99.4116C414.046 98.1714 413.709 97.2617 413.107 96.591L413.104 96.5872L413.1 96.5834C412.431 95.8231 411.484 95.1669 410.237 94.6274C408.959 94.0748 407.489 93.6162 405.802 93.2424L405.8 93.2419C405.041 93.0722 404.253 92.8995 403.45 92.7234C402.459 92.5063 401.446 92.284 400.434 92.0561C398.525 91.6415 396.746 91.065 395.117 90.3221C393.474 89.5882 392.028 88.6688 390.787 87.5756C389.521 86.4596 388.526 85.1239 387.804 83.6096C387.061 82.0515 386.699 80.2382 386.699 78.2599C386.699 73.7823 388.295 70.2219 391.54 67.7547ZM358.094 66.4007C354.39 66.4007 351.441 66.9582 349.218 68.0075C346.968 69.0697 345.255 70.543 344.052 72.4199C342.822 74.3549 341.959 76.7067 341.486 79.5323C341.006 82.405 340.763 85.6253 340.763 89.1824V110.547H345.955V89.1824C345.955 86.3452 346.095 83.8296 346.396 81.6115L346.396 81.6104C346.701 79.3749 347.286 77.4206 348.167 75.8261C349.066 74.1978 350.341 72.9352 351.978 72.0795C353.614 71.217 355.68 70.8159 358.094 70.8159C360.496 70.8159 362.559 71.2181 364.207 72.0784L364.209 72.0795L364.211 72.0806C365.826 72.9328 367.117 74.191 368.018 75.8215C368.919 77.4232 369.488 79.3668 369.792 81.6115C370.092 83.8297 370.232 86.3608 370.232 89.1824V106.298C370.232 107.214 370.262 108.084 370.349 108.944C370.407 109.499 370.463 110.033 370.526 110.547H375.756C375.666 110.126 375.599 109.692 375.553 109.242L375.552 109.234L375.552 109.225C375.472 108.303 375.425 107.317 375.425 106.298V105.216H375.44V89.1824C375.44 85.6101 375.197 82.4051 374.717 79.5323C374.244 76.7045 373.38 74.3395 372.152 72.423C370.93 70.5373 369.242 69.0654 367.013 68.0064C364.808 66.9589 361.861 66.4007 358.094 66.4007ZM377.6 107.275V89.1824C377.6 85.5141 377.35 82.1871 376.846 79.175C376.335 76.1194 375.385 73.4633 373.968 71.2517L373.966 71.2493L373.965 71.2469C372.511 69.0047 370.508 67.2728 367.939 66.0522C365.345 64.8196 362.048 64.2378 358.094 64.2378C354.199 64.2378 350.904 64.8204 348.297 66.051C345.718 67.2689 343.678 68.9999 342.235 71.2517L342.234 71.2532L342.233 71.2547C340.819 73.4786 339.868 76.1172 339.356 79.175C338.853 82.1872 338.603 85.5296 338.603 89.1824V112.71H348.115V89.1824C348.115 86.4123 348.252 83.9986 348.535 81.9034C348.815 79.8562 349.337 78.1748 350.056 76.8731C350.756 75.6058 351.726 74.6505 352.979 73.9964L352.981 73.9953L352.983 73.9942C354.208 73.3478 355.895 72.9789 358.094 72.9789C360.274 72.9789 361.963 73.3466 363.206 73.9953C364.45 74.652 365.434 75.6103 366.131 76.8731L366.133 76.8769L366.136 76.8807C366.864 78.1748 367.372 79.8349 367.652 81.9023C367.936 83.9977 368.073 86.4271 368.073 89.1824V106.298C368.073 107.26 368.104 108.208 368.201 109.165L368.201 109.167C368.294 110.059 368.388 110.945 368.515 111.79L368.654 112.71H378.762L378.206 111.244C377.952 110.575 377.787 109.854 377.702 109.031C377.654 108.467 377.618 107.879 377.6 107.275ZM251.782 67.5561C248.051 67.5561 245.102 68.0553 242.882 68.9958L242.881 68.9963L242.88 68.9968C240.588 69.962 238.872 71.1921 237.686 72.6558C236.464 74.1647 235.629 75.8524 235.174 77.729C234.702 79.6809 234.467 81.6443 234.467 83.5902V110.547H239.659V83.5902C239.659 82.5048 239.811 81.3099 240.12 80.0251C240.449 78.6543 241.07 77.3672 241.949 76.1823C242.868 74.942 244.15 73.9336 245.697 73.1506C247.328 72.3249 249.388 71.9405 251.798 71.9405C252.225 71.9405 252.68 71.957 253.161 71.9891C253.603 72.0186 254.009 72.033 254.382 72.033H254.453L254.524 72.0425C254.578 72.0497 254.632 72.0564 254.686 72.0627V67.6542C254.391 67.6331 254.099 67.6154 253.806 67.6011C253.196 67.5713 252.522 67.5561 251.782 67.5561ZM242.042 67.0033C244.621 65.9107 247.885 65.3932 251.782 65.3932C252.55 65.3932 253.26 65.4089 253.911 65.4407C254.56 65.4724 255.207 65.5198 255.868 65.5829L256.846 65.6762V74.2883H255.766C255.28 74.2883 254.795 74.2574 254.31 74.1957C253.904 74.194 253.473 74.1777 253.018 74.1473C252.577 74.1178 252.17 74.1035 251.798 74.1035C249.593 74.1035 247.9 74.4586 246.671 75.081C245.357 75.7461 244.362 76.5555 243.682 77.4721C242.961 78.4439 242.475 79.4676 242.219 80.5309C241.943 81.6801 241.819 82.7036 241.819 83.5902V112.71H232.307V83.5902C232.307 81.469 232.564 79.3346 233.076 77.2194C233.606 75.0289 234.586 73.0501 236.009 71.2931C237.469 69.491 239.505 68.0716 242.042 67.0033ZM280.898 67.5561C277.182 67.5561 274.217 68.0554 271.998 68.9958L271.997 68.9963L271.996 68.9968C269.703 69.962 267.987 71.1921 266.802 72.6558C265.579 74.1647 264.744 75.8524 264.29 77.729C263.818 79.6809 263.582 81.6443 263.582 83.5902V110.547H268.775V83.5902C268.775 82.5048 268.927 81.3099 269.235 80.0251C269.565 78.6543 270.185 77.3672 271.064 76.1823C271.982 74.9453 273.246 73.9353 274.815 73.1495C276.445 72.3245 278.505 71.9405 280.913 71.9405C281.341 71.9405 281.795 71.957 282.277 71.9891C282.718 72.0186 283.125 72.033 283.497 72.033H283.569L283.64 72.0425C283.694 72.0497 283.748 72.0564 283.802 72.0627V67.6542C283.507 67.6331 283.214 67.6154 282.922 67.6011C282.312 67.5713 281.637 67.5561 280.898 67.5561ZM271.158 67.0033C273.737 65.9106 277.017 65.3932 280.898 65.3932C281.666 65.3932 282.376 65.4089 283.027 65.4407C283.675 65.4724 284.322 65.5198 284.984 65.5829L285.961 65.6762V74.2883H284.882C284.396 74.2883 283.911 74.2574 283.426 74.1957C283.02 74.194 282.589 74.1777 282.133 74.1473C281.692 74.1178 281.286 74.1035 280.913 74.1035C278.709 74.1035 277.016 74.4586 275.786 75.081L275.782 75.0831C274.46 75.7452 273.48 76.5527 272.798 77.4721C272.077 78.4439 271.59 79.4676 271.335 80.5309C271.059 81.6801 270.934 82.7036 270.934 83.5902V112.71H261.423V83.5902C261.423 81.469 261.68 79.3346 262.192 77.2194C262.722 75.029 263.701 73.0501 265.125 71.2931C266.584 69.491 268.621 68.0716 271.158 67.0033ZM150.491 72.0025C152.127 71.14 154.192 70.7389 156.606 70.7389C159.026 70.7389 161.124 71.1418 162.838 71.9911C164.539 72.8344 165.917 74.0784 166.945 75.6907C167.96 77.2835 168.663 79.2276 169.052 81.4936C169.45 83.7285 169.637 86.2738 169.637 89.1053C169.637 91.374 169.431 93.5937 169.051 95.7482L169.051 95.752L169.05 95.7557C168.647 97.9513 167.964 99.9205 166.97 101.647C165.961 103.398 164.608 104.806 162.935 105.856C161.195 106.965 159.057 107.472 156.606 107.472C154.191 107.472 152.125 107.07 150.489 106.207C148.874 105.355 147.583 104.096 146.681 102.466C145.781 100.864 145.213 98.9206 144.908 96.6762C144.608 94.458 144.468 91.9269 144.468 89.1053C144.468 86.2682 144.608 83.7525 144.908 81.5344L144.909 81.5334C145.214 79.2979 145.799 77.3436 146.679 75.7491C147.579 74.1208 148.853 72.8581 150.491 72.0025ZM156.606 72.9018C154.407 72.9018 152.721 73.2707 151.496 73.9172L151.494 73.9183L151.492 73.9194C150.239 74.5735 149.269 75.5288 148.569 76.7961C147.85 78.0977 147.328 79.7789 147.048 81.8259C146.764 83.9212 146.627 86.3351 146.627 89.1053C146.627 91.8605 146.764 94.29 147.048 96.3853C147.328 98.4528 147.836 100.113 148.565 101.407L148.567 101.411L148.569 101.415C149.267 102.678 150.251 103.637 151.496 104.293C152.721 104.94 154.407 105.309 156.606 105.309C158.769 105.309 160.474 104.861 161.779 104.03L161.782 104.028L161.786 104.026C163.156 103.166 164.264 102.017 165.1 100.566C165.95 99.0885 166.559 97.3617 166.925 95.3685C167.284 93.3339 167.477 91.2413 167.477 89.1053C167.477 86.3616 167.296 83.9477 166.925 81.87L166.925 81.8663L166.924 81.8626C166.574 79.8166 165.955 78.157 165.125 76.8544C164.306 75.5705 163.224 74.5961 161.88 73.9296C160.548 73.2692 158.801 72.9018 156.606 72.9018ZM193.853 93.2988C195.918 91.9494 198.789 91.336 202.349 91.336H215.288L215.089 92.5879C214.844 94.1226 214.392 95.7326 213.775 97.4126C213.133 99.1596 212.214 100.767 211.059 102.249L211.057 102.252L211.055 102.255C209.848 103.782 208.345 105.016 206.516 105.99C204.613 107.003 202.336 107.472 199.734 107.472C198.603 107.472 197.518 107.338 196.481 107.087L196.477 107.086L196.473 107.085C195.37 106.809 194.384 106.367 193.525 105.708C192.668 105.051 191.986 104.218 191.459 103.216C190.889 102.148 190.641 100.849 190.641 99.3962C190.641 96.7883 191.714 94.6965 193.853 93.2988ZM202.349 93.499C198.986 93.499 196.598 94.0873 195.033 95.1102C193.542 96.085 192.8 97.4749 192.8 99.3962C192.8 100.622 193.013 101.54 193.364 102.198L193.366 102.201L193.368 102.205C193.764 102.957 194.25 103.54 194.838 103.991C195.424 104.441 196.128 104.769 196.993 104.986C197.862 105.196 198.775 105.309 199.734 105.309C202.085 105.309 203.991 104.884 205.502 104.08C207.087 103.236 208.351 102.19 209.359 100.916C210.387 99.5951 211.19 98.1836 211.748 96.6657C212.156 95.5543 212.479 94.4994 212.711 93.499H202.349ZM299.042 93.2988C301.106 91.9494 303.978 91.336 307.537 91.336H320.477L320.277 92.5879C320.033 94.1226 319.58 95.7326 318.963 97.4126C318.322 99.1595 317.403 100.767 316.248 102.249L316.246 102.252L316.244 102.255C315.037 103.782 313.534 105.016 311.705 105.99C309.802 107.003 307.524 107.472 304.923 107.472C303.791 107.472 302.706 107.338 301.669 107.087L301.665 107.086L301.661 107.085C300.559 106.809 299.573 106.367 298.714 105.708C297.856 105.05 297.175 104.217 296.647 103.215C296.078 102.148 295.829 100.849 295.829 99.3962C295.829 96.7883 296.903 94.6965 299.042 93.2988ZM307.537 93.499C304.175 93.499 301.787 94.0873 300.222 95.1102C298.73 96.085 297.989 97.4749 297.989 99.3962C297.989 100.622 298.201 101.54 298.553 102.198L298.555 102.201L298.557 102.205C298.952 102.957 299.439 103.54 300.027 103.991C300.613 104.441 301.317 104.769 302.181 104.986C303.051 105.196 303.964 105.309 304.923 105.309C307.273 105.309 309.18 104.884 310.691 104.08C312.276 103.236 313.541 102.19 314.548 100.915C315.576 99.5945 316.379 98.1833 316.937 96.6657C317.345 95.5543 317.668 94.4994 317.899 93.499H307.537Z" fill="#F82554"/>
<path fill-rule="evenodd" clip-rule="evenodd" d="M47.2042 135.522L47.1265 135.57C47.1731 135.601 47.515 135.491 47.2042 135.522Z" fill="#F82554"/>
<path fill-rule="evenodd" clip-rule="evenodd" d="M58.8482 121.784L58.9117 121.736C58.8324 121.673 58.7213 121.594 58.8482 121.784Z" fill="#F82554"/>
<path fill-rule="evenodd" clip-rule="evenodd" d="M121.878 93.6509L92.9158 76.8589L112.142 66.337C113.049 65.844 113.618 64.9043 113.634 63.8721C113.649 62.8399 113.111 61.8848 112.219 61.361L64.1539 33.3538L69.5986 30.057C69.6294 30.0725 69.6448 30.0879 69.6755 30.1033L109.942 53.6891C110.404 53.951 110.896 54.0896 111.388 54.0896C112.372 54.0896 113.341 53.5658 113.88 52.6415C114.679 51.255 114.218 49.4834 112.834 48.6823L75.228 26.6524L82.2108 22.4467L107.42 37.1282C108.758 37.9138 110.481 37.4517 111.265 36.096C112.049 34.7403 111.588 33.0149 110.234 32.2292L83.6104 16.7159C82.7184 16.2075 81.6417 16.2075 80.765 16.7313L33.0694 45.5242V38.0063L73.9667 12.1713C75.3203 11.3086 75.7663 9.45991 74.9511 8.0272C74.1359 6.59449 72.3825 6.13233 71.0136 6.97963L33.0694 30.9506V21.2297L59.6935 5.33124C61.047 4.51475 61.493 2.75853 60.6778 1.40284C59.8626 0.0471617 58.1092 -0.399597 56.7557 0.416893L28.7321 17.1473C27.8708 17.671 27.3324 18.5954 27.3324 19.6121V50.038C27.2555 50.4231 27.2402 50.8236 27.3324 51.2242V102.987L20.7187 99.0428V22.724C20.7187 21.1527 19.3499 19.874 17.658 19.874C15.9661 19.874 14.5972 21.1527 14.5972 22.724V95.4225L8.1527 91.6482V28.5473C8.1527 26.9759 6.89148 25.6819 5.33803 25.6819C3.78458 25.6819 2.52336 26.9605 2.52336 28.5473V93.2966C2.52336 94.3133 3.06168 95.2685 3.923 95.7768L15.5201 102.586C15.8123 102.848 16.1507 103.048 16.5352 103.187L53.6335 124.986L53.5565 125.032L46.8506 129.022L5.41493 104.983C4.06143 104.136 2.29265 104.583 1.47747 106C0.662293 107.417 1.09295 109.235 2.46184 110.098L41.1751 132.426L31.5621 138.157L4.33828 122.783C2.95402 121.997 1.16986 122.475 0.38544 123.861C-0.398976 125.248 0.0778259 127.004 1.47747 127.789L30.1471 143.965C30.5932 144.212 31.0853 144.335 31.5775 144.335C32.0851 144.335 32.5926 144.196 33.0387 143.934L47.1274 135.554C47.112 135.538 47.1274 135.508 47.2351 135.446L65.7381 124.477L66.7224 123.892C66.8301 123.83 66.9224 123.769 67.0147 123.692L85.1639 112.553L93.3926 117.129L43.0823 146.353C41.698 147.154 41.2366 148.91 42.0518 150.281C42.5901 151.19 43.5591 151.699 44.5588 151.699C45.051 151.699 45.5586 151.576 46.02 151.298L99.2526 120.395L105.067 123.63L55.1715 153.686C53.818 154.503 53.3874 156.259 54.2025 157.614C54.7409 158.508 55.6791 159.001 56.6481 159.001C57.1556 159.001 57.6632 158.862 58.1246 158.585L112.249 125.972C113.126 125.448 113.649 124.493 113.634 123.476C113.618 122.459 113.049 121.519 112.157 121.026L86.6866 106.884C86.6866 106.884 85.7791 106.407 84.8409 105.852L62.5696 93.4814L72.9055 87.8122C72.9209 87.8122 72.9209 87.8276 72.9362 87.8276L113.188 111.398C113.649 111.66 114.141 111.799 114.633 111.799C115.633 111.799 116.602 111.275 117.14 110.35C117.94 108.964 117.479 107.177 116.095 106.376L78.8424 84.5616L87.2403 79.9708C87.4864 80.4022 87.8401 80.7565 88.2862 81.0184L119.048 98.8579C119.494 99.1198 119.986 99.2431 120.463 99.2431C121.478 99.2431 122.447 98.6885 122.985 97.7179C123.754 96.2852 123.262 94.4674 121.878 93.6509ZM55.2638 95.9617L79.2269 109.272L58.909 121.735C58.9859 121.812 59.0321 121.889 58.8475 121.781L33.0694 106.391V52.1177L58.586 36.7122L77.6735 47.8504L49.4038 64.2418C48.0195 65.0583 47.5273 66.8762 48.3117 68.3089C48.8347 69.2794 49.819 69.834 50.8342 69.834C51.311 69.834 51.8031 69.7108 52.2492 69.4489L83.0106 51.6093C83.1952 51.5015 83.3644 51.3782 83.5028 51.2396L91.3316 55.7996L55.1869 76.9667C53.8026 77.7678 53.3412 79.5549 54.141 80.9414C54.6793 81.8657 55.6483 82.3895 56.6481 82.3895C57.1403 82.3895 57.6478 82.2662 58.0939 81.9889L97.084 59.158L104.959 63.7488L55.2792 90.9549C54.3717 91.4479 53.8026 92.4184 53.7873 93.4506C53.7873 94.4982 54.3563 95.4533 55.2638 95.9617Z" fill="#F82554"/>
</g>
<defs>
<clipPath id="clip0_3_2">
<rect width="424" height="159" fill="white"/>
</clipPath>
</defs>
</svg>
